SplineFontDB: 3.0
FontName: DEV-PaniniBoldItalic
FullName: DEV Panini Bold Italic
FamilyName: DEV Panini
Weight: Bold
Copyright: Copyright (c) 2009-2015, NLCI (http://www.nlci.in/fonts/)
Version: 1.0 Wed Sep 13 15:02:01 1995
ItalicAngle: 12
UnderlinePosition: -594
UnderlineWidth: 41
Ascent: 1638
Descent: 410
InvalidEm: 0
LayerCount: 2
Layer: 0 0 "Back" 1
Layer: 1 0 "Fore" 0
XUID: [1021 683 738607073 12826993]
FSType: 0
OS2Version: 0
OS2_WeightWidthSlopeOnly: 0
OS2_UseTypoMetrics: 1
CreationTime: 1258090210
ModificationTime: 1433223432
PfmFamily: 81
TTFWeight: 700
TTFWidth: 5
LineGap: 0
VLineGap: 0
Panose: 5 0 0 0 0 0 0 0 0 0
OS2TypoAscent: 275
OS2TypoAOffset: 1
OS2TypoDescent: -417
OS2TypoDOffset: 1
OS2TypoLinegap: 0
OS2WinAscent: -765
OS2WinAOffset: 1
OS2WinDescent: -330
OS2WinDOffset: 1
HheadAscent: -765
HheadAOffset: 1
HheadDescent: 330
HheadDOffset: 1
OS2SubXSize: 1434
OS2SubYSize: 1331
OS2SubXOff: 0
OS2SubYOff: 293
OS2SupXSize: 1434
OS2SupYSize: 1331
OS2SupXOff: 0
OS2SupYOff: 928
OS2StrikeYSize: 102
OS2StrikeYPos: 530
OS2Vendor: 'Alts'
OS2UnicodeRanges: 00000000.00000000.00000000.00000000
Lookup: 1 0 0 "Wide I-matra" { "Wide I-matra-1"  } []
Lookup: 1 0 0 "'nukt' Nukta Forms in Devanagari lookup 6" { "'locl' Local Forms in Devanagari lookup 6-1"  } ['nukt' ('deva' <'NEP ' > ) ]
Lookup: 4 0 0 "'akhn' Akhand in Devanagari lookup 0" { "'akhn' Akhand in Devanagari lookup 0 subtable"  } ['akhn' ('deva' <'HIN ' 'NEP ' 'dflt' > ) ]
Lookup: 4 0 0 "'rphf' Reph Form in Devanagari lookup 1" { "'rphf' Reph Form in Devanagari lookup 1 subtable"  } ['rphf' ('deva' <'HIN ' 'NEP ' 'dflt' > ) ]
Lookup: 4 0 0 "'blwf' Below Base Forms in Devanagari lookup 2" { "'blwf' Below Base Forms in Devanagari lookup 2 subtable"  } ['blwf' ('deva' <'HIN ' 'NEP ' 'dflt' > ) ]
Lookup: 4 8 0 "'half' Half Forms in Devanagari lookup 3" { "'half' Half Forms in Devanagari lookup 3 subtable"  } ['half' ('deva' <'HIN ' 'NEP ' 'dflt' > ) ]

StartChar: .notdef
Encoding: 65536 -1 0
Width: 1024
Flags: HW
LayerCount: 2
Back
Fore
SplineSet
64 0 m 1
 64 1383 l 1
 960 1383 l 1
 960 0 l 1
 64 0 l 1
896 64 m 1
 896 1319 l 1
 128 1319 l 1
 128 64 l 1
 896 64 l 1
EndSplineSet
EndChar

StartChar: quotedbl
Encoding: 34 34 3
Width: 770
GlyphClass: 2
Flags: HW
LayerCount: 2
Back
Fore
SplineSet
461 1370 m 0
 461 1363.33333333 457.333333333 1348 450 1324 c 128
 442.666666667 1300 433.166666667 1271.33333333 421.5 1238 c 128
 409.833333333 1204.66666667 396.833333333 1168.5 382.5 1129.5 c 128
 368.166666667 1090.5 354.333333333 1053 341 1017 c 128
 327.666666667 981 315.5 948.333333333 304.5 919 c 128
 293.5 889.666666667 285.666666667 868 281 854 c 1
 205 854 l 1
 219 1333 l 2
 219.666666667 1351.66666667 224.333333333 1368.83333333 233 1384.5 c 128
 241.666666667 1400.16666667 252.666666667 1413.66666667 266 1425 c 128
 279.333333333 1436.33333333 294.333333333 1445.33333333 311 1452 c 128
 327.666666667 1458.66666667 344.666666667 1462 362 1462 c 0
 392 1462 416 1454.66666667 434 1440 c 128
 452 1425.33333333 461 1402 461 1370 c 0
862 1370 m 0
 862 1363.33333333 858.333333333 1348 851 1324 c 128
 843.666666667 1300 834.166666667 1271.33333333 822.5 1238 c 128
 810.833333333 1204.66666667 797.833333333 1168.5 783.5 1129.5 c 128
 769.166666667 1090.5 755.333333333 1053 742 1017 c 128
 728.666666667 981 716.666666667 948.333333333 706 919 c 128
 695.333333333 889.666666667 687.333333333 868 682 854 c 1
 606 854 l 1
 623 1333 l 2
 623.666666667 1351.66666667 628 1368.83333333 636 1384.5 c 128
 644 1400.16666667 654.666666667 1413.66666667 668 1425 c 128
 681.333333333 1436.33333333 696.333333333 1445.33333333 713 1452 c 128
 729.666666667 1458.66666667 746.666666667 1462 764 1462 c 0
 794 1462 817.833333333 1454.66666667 835.5 1440 c 128
 853.166666667 1425.33333333 862 1402 862 1370 c 0
EndSplineSet
EndChar

StartChar: numbersign
Encoding: 35 35 4
Width: 1518
GlyphClass: 2
Flags: HW
LayerCount: 2
Back
Fore
SplineSet
678 848 m 1
 588 578 l 1
 842 578 l 1
 936 848 l 1
 678 848 l 1
1079 848 m 1
 991 578 l 1
 1309 578 l 1
 1309 449 l 1
 946 449 l 1
 791 -49 l 1
 649 -14 l 1
 801 449 l 1
 545 449 l 1
 385 -49 l 1
 248 -12 l 1
 401 449 l 1
 127 449 l 1
 127 578 l 1
 442 578 l 1
 530 848 l 1
 227 848 l 1
 227 983 l 1
 573 983 l 1
 731 1454 l 1
 868 1417 l 1
 717 983 l 1
 983 983 l 1
 1135 1454 l 1
 1276 1415 l 1
 1122 983 l 1
 1391 983 l 1
 1391 848 l 1
 1079 848 l 1
EndSplineSet
EndChar

StartChar: dollar
Encoding: 36 36 5
Width: 1225
GlyphClass: 2
Flags: HW
LayerCount: 2
Back
Fore
SplineSet
1133 967 m 1
 991 967 l 1
 995 1182 l 1
 996.333333333 1190 995.333333333 1195.5 992 1198.5 c 128
 988.666666667 1201.5 984.333333333 1204 979 1206 c 0
 969 1210.66666667 956 1215.16666667 940 1219.5 c 128
 924 1223.83333333 908 1227.83333333 892 1231.5 c 128
 876 1235.16666667 861 1238 847 1240 c 128
 833 1242 823 1243 817 1243 c 1
 733 821 l 1
 754.333333333 815 779.333333333 807.5 808 798.5 c 128
 836.666666667 789.5 866 778.166666667 896 764.5 c 128
 926 750.833333333 955.166666667 734.166666667 983.5 714.5 c 128
 1011.83333333 694.833333333 1035.83333333 671.166666667 1055.5 643.5 c 128
 1075.16666667 615.833333333 1089.16666667 583.666666667 1097.5 547 c 128
 1105.83333333 510.333333333 1105.33333333 468 1096 420 c 0
 1084.66666667 361.333333333 1063.5 308.333333333 1032.5 261 c 128
 1001.5 213.666666667 963 172.333333333 917 137 c 128
 871 101.666666667 818.5 72.6666666667 759.5 50 c 128
 700.5 27.3333333333 637.666666667 11.3333333333 571 2 c 1
 530 -209 l 1
 410 -209 l 1
 451 0 l 1
 403 2 355.333333333 6 308 12 c 0
 266.666666667 17.3333333333 222.5 24.3333333333 175.5 33 c 128
 128.5 41.6666666667 84.3333333333 53.3333333333 43 68 c 1
 113 422 l 1
 260 422 l 1
 254 201 l 1
 254 187 l 2
 254 184.333333333 254.5 182.333333333 255.5 181 c 128
 256.5 179.666666667 258 178.5 260 177.5 c 128
 262 176.5 265.333333333 174.666666667 270 172 c 0
 289.333333333 160.666666667 310.833333333 152.166666667 334.5 146.5 c 128
 358.166666667 140.833333333 380.666666667 136.333333333 402 133 c 0
 426 129.666666667 450.333333333 127.666666667 475 127 c 1
 563 578 l 1
 539 585.333333333 513 594 485 604 c 128
 457 614 429.333333333 626 402 640 c 128
 374.666666667 654 349 670.833333333 325 690.5 c 128
 301 710.166666667 280.833333333 733.5 264.5 760.5 c 128
 248.166666667 787.5 237 818.833333333 231 854.5 c 128
 225 890.166666667 226.666666667 931 236 977 c 1
 244.666666667 1023.66666667 258.5 1065 277.5 1101 c 128
 296.5 1137 318.166666667 1168.66666667 342.5 1196 c 128
 366.833333333 1223.33333333 393.166666667 1246.5 421.5 1265.5 c 128
 449.833333333 1284.5 478 1300.33333333 506 1313 c 0
 572 1343 643.666666667 1361.33333333 721 1368 c 1
 752 1520 l 1
 872 1520 l 1
 842 1368 l 1
 884 1368 926.166666667 1364.83333333 968.5 1358.5 c 128
 1010.83333333 1352.16666667 1049.33333333 1345.33333333 1084 1338 c 0
 1124 1329.33333333 1162.66666667 1319.66666667 1200 1309 c 1
 1133 967 l 1
821 346 m 0
 827.666666667 380 827.166666667 408.666666667 819.5 432 c 128
 811.833333333 455.333333333 800.333333333 474.666666667 785 490 c 128
 769.666666667 505.333333333 752.333333333 517.5 733 526.5 c 128
 713.666666667 535.5 696 542.333333333 680 547 c 1
 598 133 l 1
 632.666666667 137.666666667 665 148.333333333 695 165 c 0
 707.666666667 171.666666667 720.5 180.333333333 733.5 191 c 128
 746.5 201.666666667 758.666666667 214.166666667 770 228.5 c 128
 781.333333333 242.833333333 791.333333333 259.666666667 800 279 c 128
 808.666666667 298.333333333 815.666666667 320.666666667 821 346 c 0
694 1237 m 1
 666 1233 639.666666667 1224 615 1210 c 0
 593.666666667 1197.33333333 573 1178.66666667 553 1154 c 128
 533 1129.33333333 518.666666667 1095 510 1051 c 0
 506 1030.33333333 504.333333333 1011.5 505 994.5 c 128
 505.666666667 977.5 508.333333333 962.333333333 513 949 c 128
 517.666666667 935.666666667 523.333333333 924 530 914 c 128
 536.666666667 904 544 895.333333333 552 888 c 0
 570 870.666666667 592 858 618 850 c 1
 694 1237 l 1
EndSplineSet
EndChar

StartChar: percent
Encoding: 37 37 6
Width: 1843
GlyphClass: 2
Flags: HW
LayerCount: 2
Back
Fore
SplineSet
655 1165 m 0
 655 1179.66666667 654 1195.66666667 652 1213 c 128
 650 1230.33333333 646 1246.16666667 640 1260.5 c 128
 634 1274.83333333 625.333333333 1286.83333333 614 1296.5 c 128
 602.666666667 1306.16666667 587.666666667 1311 569 1311 c 0
 541 1311 516 1301.5 494 1282.5 c 128
 472 1263.5 452.5 1238.83333333 435.5 1208.5 c 128
 418.5 1178.16666667 404.166666667 1144.16666667 392.5 1106.5 c 128
 380.833333333 1068.83333333 371.166666667 1031.5 363.5 994.5 c 128
 355.833333333 957.5 350.333333333 922.666666667 347 890 c 128
 343.666666667 857.333333333 342 831 342 811 c 0
 342 794.333333333 343 776.333333333 345 757 c 128
 347 737.666666667 351.5 719.666666667 358.5 703 c 128
 365.5 686.333333333 375.166666667 672.5 387.5 661.5 c 128
 399.833333333 650.5 416.666666667 645 438 645 c 0
 464 645 487.5 655.166666667 508.5 675.5 c 128
 529.5 695.833333333 548.166666667 722.166666667 564.5 754.5 c 128
 580.833333333 786.833333333 594.666666667 822.833333333 606 862.5 c 128
 617.333333333 902.166666667 626.666666667 941.166666667 634 979.5 c 128
 641.333333333 1017.83333333 646.666666667 1053.66666667 650 1087 c 128
 653.333333333 1120.33333333 655 1146.33333333 655 1165 c 0
1548 584 m 0
 1548 598 1547 613.333333333 1545 630 c 128
 1543 646.666666667 1539 662.166666667 1533 676.5 c 128
 1527 690.833333333 1518.33333333 702.833333333 1507 712.5 c 128
 1495.66666667 722.166666667 1480.66666667 727 1462 727 c 0
 1434 727 1409.16666667 717.333333333 1387.5 698 c 128
 1365.83333333 678.666666667 1346.66666667 653.833333333 1330 623.5 c 128
 1313.33333333 593.166666667 1299.16666667 559 1287.5 521 c 128
 1275.83333333 483 1266.16666667 445.333333333 1258.5 408 c 128
 1250.83333333 370.666666667 1245.33333333 335.666666667 1242 303 c 128
 1238.66666667 270.333333333 1237 243.666666667 1237 223 c 0
 1237 207 1238 189.666666667 1240 171 c 128
 1242 152.333333333 1246.33333333 135 1253 119 c 128
 1259.66666667 103 1269.16666667 89.6666666667 1281.5 79 c 128
 1293.83333333 68.3333333333 1310.33333333 63 1331 63 c 0
 1357.66666667 63 1381.5 73.1666666667 1402.5 93.5 c 128
 1423.5 113.833333333 1442 140 1458 172 c 128
 1474 204 1487.83333333 239.833333333 1499.5 279.5 c 128
 1511.16666667 319.166666667 1520.5 358.333333333 1527.5 397 c 128
 1534.5 435.666666667 1539.66666667 471.666666667 1543 505 c 128
 1546.33333333 538.333333333 1548 564.666666667 1548 584 c 0
868 1118 m 0
 868 1072.66666667 864 1027.33333333 856 982 c 128
 848 936.666666667 835.833333333 892.833333333 819.5 850.5 c 128
 803.166666667 808.166666667 782.666666667 768.666666667 758 732 c 128
 733.333333333 695.333333333 704.5 663.5 671.5 636.5 c 128
 638.5 609.5 601 588.166666667 559 572.5 c 128
 517 556.833333333 470.666666667 549 420 549 c 0
 325.333333333 549 254.5 574.333333333 207.5 625 c 128
 160.5 675.666666667 137 747.333333333 137 840 c 0
 137 907.333333333 146.166666667 974.833333333 164.5 1042.5 c 128
 182.833333333 1110.16666667 210.666666667 1171 248 1225 c 128
 285.333333333 1279 332.333333333 1322.83333333 389 1356.5 c 128
 445.666666667 1390.16666667 512 1407 588 1407 c 0
 681.333333333 1407 751.333333333 1382.16666667 798 1332.5 c 128
 844.666666667 1282.83333333 868 1211.33333333 868 1118 c 0
463 0 m 1
 315 0 l 1
 1438 1374 l 1
 1587 1374 l 1
 463 0 l 1
1763 535 m 0
 1763 489.666666667 1759 444.166666667 1751 398.5 c 128
 1743 352.833333333 1730.83333333 308.833333333 1714.5 266.5 c 128
 1698.16666667 224.166666667 1677.5 184.833333333 1652.5 148.5 c 128
 1627.5 112.166666667 1598.33333333 80.5 1565 53.5 c 128
 1531.66666667 26.5 1494 5.33333333333 1452 -10 c 128
 1410 -25.3333333333 1363.66666667 -33 1313 -33 c 0
 1219 -33 1149 -8.33333333333 1103 41 c 128
 1057 90.3333333333 1034 161.333333333 1034 254 c 0
 1034 298.666666667 1038 343.833333333 1046 389.5 c 128
 1054 435.166666667 1066 479.166666667 1082 521.5 c 128
 1098 563.833333333 1118.33333333 603.333333333 1143 640 c 128
 1167.66666667 676.666666667 1196.66666667 708.5 1230 735.5 c 128
 1263.33333333 762.5 1301 783.833333333 1343 799.5 c 128
 1385 815.166666667 1431.66666667 823 1483 823 c 0
 1576.33333333 823 1646.33333333 798.166666667 1693 748.5 c 128
 1739.66666667 698.833333333 1763 627.666666667 1763 535 c 0
EndSplineSet
EndChar

StartChar: ampersand
Encoding: 38 38 7
Width: 1526
GlyphClass: 2
Flags: HW
LayerCount: 2
Back
Fore
SplineSet
463 633 m 1
 419.666666667 599 386 561.333333333 362 520 c 128
 338 478.666666667 326 432.333333333 326 381 c 0
 326 339 333.166666667 302.166666667 347.5 270.5 c 128
 361.833333333 238.833333333 379.666666667 212.333333333 401 191 c 128
 422.333333333 169.666666667 445.166666667 153.666666667 469.5 143 c 128
 493.833333333 132.333333333 516.333333333 127 537 127 c 0
 558.333333333 127 578 129 596 133 c 128
 614 137 631.833333333 143 649.5 151 c 128
 667.166666667 159 685.666666667 169.333333333 705 182 c 128
 724.333333333 194.666666667 746 209.666666667 770 227 c 1
 463 633 l 1
836 1108 m 0
 836 1130 834.5 1151.33333333 831.5 1172 c 128
 828.5 1192.66666667 822.833333333 1211 814.5 1227 c 128
 806.166666667 1243 794.666666667 1255.83333333 780 1265.5 c 128
 765.333333333 1275.16666667 746.333333333 1280 723 1280 c 0
 711 1280 694.5 1276.33333333 673.5 1269 c 128
 652.5 1261.66666667 631.833333333 1249.66666667 611.5 1233 c 128
 591.166666667 1216.33333333 573.333333333 1194.33333333 558 1167 c 128
 542.666666667 1139.66666667 535 1106.33333333 535 1067 c 0
 535 1045.66666667 537.5 1024.5 542.5 1003.5 c 128
 547.5 982.5 554.166666667 962 562.5 942 c 128
 570.833333333 922 580.666666667 902.666666667 592 884 c 128
 603.333333333 865.333333333 615 847.666666667 627 831 c 1
 658.333333333 845.666666667 686.833333333 862.166666667 712.5 880.5 c 128
 738.166666667 898.833333333 760.166666667 919.166666667 778.5 941.5 c 128
 796.833333333 963.833333333 811 988.666666667 821 1016 c 128
 831 1043.33333333 836 1074 836 1108 c 0
1309 625 m 1
 1279.66666667 566.333333333 1243.5 506 1200.5 444 c 128
 1157.5 382 1110.33333333 324 1059 270 c 1
 1083.66666667 238 1107.33333333 211.666666667 1130 191 c 128
 1152.66666667 170.333333333 1176.83333333 154 1202.5 142 c 128
 1228.16666667 130 1256.16666667 121.833333333 1286.5 117.5 c 128
 1316.83333333 113.166666667 1351.66666667 111 1391 111 c 1
 1391 4 l 1
 1341.66666667 2 1303.33333333 0 1276 -2 c 128
 1248.66666667 -4 1225.33333333 -5.33333333333 1206 -6 c 1
 1154 -10 1102.33333333 -8 1051 0 c 1
 1017 7.33333333333 985.833333333 19.3333333333 957.5 36 c 128
 929.166666667 52.6666666667 900 77 870 109 c 1
 843.333333333 91 814.833333333 74 784.5 58 c 128
 754.166666667 42 721 28 685 16 c 128
 649 4 610.166666667 -5.5 568.5 -12.5 c 128
 526.833333333 -19.5 481.333333333 -23 432 -23 c 0
 368 -23 310.833333333 -14.5 260.5 2.5 c 128
 210.166666667 19.5 167.5 43.1666666667 132.5 73.5 c 128
 97.5 103.833333333 70.8333333333 140.166666667 52.5 182.5 c 128
 34.1666666667 224.833333333 25 271.333333333 25 322 c 0
 25 372 34.1666666667 417.833333333 52.5 459.5 c 128
 70.8333333333 501.166666667 95.6666666667 539.666666667 127 575 c 128
 158.333333333 610.333333333 195.333333333 642.666666667 238 672 c 128
 280.666666667 701.333333333 326.333333333 728.666666667 375 754 c 1
 343.666666667 796 317.666666667 837.833333333 297 879.5 c 128
 276.333333333 921.166666667 266 966 266 1014 c 0
 266 1066.66666667 277.333333333 1116.5 300 1163.5 c 128
 322.666666667 1210.5 355.5 1251.5 398.5 1286.5 c 128
 441.5 1321.5 493.666666667 1349.33333333 555 1370 c 128
 616.333333333 1390.66666667 686 1401 764 1401 c 0
 822 1401 873.166666667 1393.16666667 917.5 1377.5 c 128
 961.833333333 1361.83333333 998.833333333 1341 1028.5 1315 c 128
 1058.16666667 1289 1080.5 1259.33333333 1095.5 1226 c 128
 1110.5 1192.66666667 1118 1158.66666667 1118 1124 c 0
 1118 1076 1108 1032.5 1088 993.5 c 128
 1068 954.5 1039.83333333 919 1003.5 887 c 128
 967.166666667 855 923.833333333 826.166666667 873.5 800.5 c 128
 823.166666667 774.833333333 767.666666667 751.666666667 707 731 c 1
 952 414 l 1
 976.666666667 446 998.666666667 478.666666667 1018 512 c 128
 1037.33333333 545.333333333 1053.66666667 575.333333333 1067 602 c 0
 1068.33333333 604 1068.33333333 607.666666667 1067 613 c 128
 1065.66666667 618.333333333 1064.33333333 621 1063 621 c 2
 942 641 l 1
 942 752 l 1
 1460 752 l 1
 1460 641 l 1
 1309 625 l 1
EndSplineSet
EndChar

StartChar: quotesingle
Encoding: 39 39 8
Width: 358
GlyphClass: 2
Flags: HW
LayerCount: 2
Back
Fore
SplineSet
461 1370 m 0
 461 1359.33333333 457.333333333 1341.16666667 450 1315.5 c 128
 442.666666667 1289.83333333 433.166666667 1260.16666667 421.5 1226.5 c 128
 409.833333333 1192.83333333 396.833333333 1157.16666667 382.5 1119.5 c 128
 368.166666667 1081.83333333 354.333333333 1045.83333333 341 1011.5 c 128
 327.666666667 977.166666667 315.5 946 304.5 918 c 128
 293.5 890 285.666666667 868.666666667 281 854 c 1
 205 854 l 1
 219 1333 l 2
 219.666666667 1351.66666667 224.333333333 1368.83333333 233 1384.5 c 128
 241.666666667 1400.16666667 252.666666667 1413.66666667 266 1425 c 128
 279.333333333 1436.33333333 294.333333333 1445.33333333 311 1452 c 128
 327.666666667 1458.66666667 344.666666667 1462 362 1462 c 0
 392 1462 416 1454.66666667 434 1440 c 128
 452 1425.33333333 461 1402 461 1370 c 0
EndSplineSet
EndChar

StartChar: asterisk
Encoding: 42 42 9
Width: 1024
GlyphClass: 2
Flags: HW
LayerCount: 2
Back
Fore
SplineSet
549 733 m 1
 391 692 l 1
 385 852 l 1
 604 1012 l 1
 631 987 l 1
 549 733 l 1
594 1038 m 1
 328 1036 l 1
 240 1169 l 1
 385 1229 l 1
 604 1067 l 1
 594 1038 l 1
893 692 m 1
 735 733 l 1
 653 987 l 1
 680 1012 l 1
 897 852 l 1
 893 692 l 1
657 1092 m 1
 625 1092 l 1
 541 1348 l 1
 641 1470 l 1
 743 1348 l 1
 657 1092 l 1
954 1036 m 1
 690 1038 l 1
 678 1069 l 1
 895 1229 l 1
 1044 1169 l 1
 954 1036 l 1
EndSplineSet
EndChar

StartChar: plus
Encoding: 43 43 10
Width: 2048
GlyphClass: 2
Flags: HW
LayerCount: 2
Back
Fore
SplineSet
1087 551 m 1
 1087 0 l 1
 961 0 l 1
 961 551 l 1
 410 551 l 1
 410 678 l 1
 961 678 l 1
 961 1229 l 1
 1087 1229 l 1
 1087 678 l 1
 1638 678 l 1
 1638 551 l 1
 1087 551 l 1
EndSplineSet
EndChar

StartChar: less
Encoding: 60 60 11
Width: 2048
GlyphClass: 2
Flags: HW
LayerCount: 2
Back
Fore
SplineSet
410 551 m 1
 410 678 l 1
 1638 1149 l 1
 1638 1022 l 1
 541 614 l 1
 1638 207 l 1
 1638 80 l 1
 410 551 l 1
EndSplineSet
EndChar

StartChar: equal
Encoding: 61 61 12
Width: 2048
GlyphClass: 2
Flags: HW
LayerCount: 2
Back
Fore
SplineSet
410 365 m 1
 410 492 l 1
 1638 492 l 1
 1638 365 l 1
 410 365 l 1
410 737 m 1
 410 864 l 1
 1638 864 l 1
 1638 737 l 1
 410 737 l 1
EndSplineSet
EndChar

StartChar: greater
Encoding: 62 62 13
Width: 2048
GlyphClass: 2
Flags: HW
LayerCount: 2
Back
Fore
SplineSet
410 80 m 1
 410 207 l 1
 1507 614 l 1
 410 1022 l 1
 410 1149 l 1
 1638 678 l 1
 1638 551 l 1
 410 80 l 1
EndSplineSet
EndChar

StartChar: at
Encoding: 64 64 14
Width: 1917
GlyphClass: 2
Flags: HW
LayerCount: 2
Back
Fore
SplineSet
1798 754 m 0
 1798 686 1790.5 622.833333333 1775.5 564.5 c 128
 1760.5 506.166666667 1740.16666667 452.833333333 1714.5 404.5 c 128
 1688.83333333 356.166666667 1658.83333333 313.166666667 1624.5 275.5 c 128
 1590.16666667 237.833333333 1553.33333333 206.166666667 1514 180.5 c 128
 1474.66666667 154.833333333 1434.16666667 135.333333333 1392.5 122 c 128
 1350.83333333 108.666666667 1310 102 1270 102 c 0
 1238.66666667 102 1212.5 106 1191.5 114 c 128
 1170.5 122 1153.16666667 132.5 1139.5 145.5 c 128
 1125.83333333 158.5 1115.5 173.666666667 1108.5 191 c 128
 1101.5 208.333333333 1096.66666667 226.666666667 1094 246 c 1
 1072.66666667 228 1051 210.5 1029 193.5 c 128
 1007 176.5 984.333333333 161.333333333 961 148 c 128
 937.666666667 134.666666667 913.666666667 124 889 116 c 128
 864.333333333 108 839 104 813 104 c 0
 766.333333333 104 725.333333333 112.5 690 129.5 c 128
 654.666666667 146.5 625 170.166666667 601 200.5 c 128
 577 230.833333333 558.833333333 266.666666667 546.5 308 c 128
 534.166666667 349.333333333 528 394.666666667 528 444 c 0
 528 520.666666667 542.166666667 592.833333333 570.5 660.5 c 128
 598.833333333 728.166666667 637.333333333 787.5 686 838.5 c 128
 734.666666667 889.5 791.833333333 929.833333333 857.5 959.5 c 128
 923.166666667 989.166666667 993 1004 1067 1004 c 0
 1083 1004 1099.16666667 1002 1115.5 998 c 128
 1131.83333333 994 1148 988.833333333 1164 982.5 c 128
 1180 976.166666667 1195.5 969.333333333 1210.5 962 c 128
 1225.5 954.666666667 1239.66666667 948 1253 942 c 1
 1280 993 l 1
 1452 993 l 1
 1442 955 l 2
 1437.33333333 935 1431.5 910.333333333 1424.5 881 c 128
 1417.5 851.666666667 1409.83333333 819 1401.5 783 c 128
 1393.16666667 747 1384.66666667 710.666666667 1376 674 c 0
 1356 588 1333.66666667 491.666666667 1309 385 c 0
 1303.66666667 362.333333333 1299.66666667 341.666666667 1297 323 c 128
 1294.33333333 304.333333333 1294.33333333 288.333333333 1297 275 c 128
 1299.66666667 261.666666667 1305.5 251.333333333 1314.5 244 c 128
 1323.5 236.666666667 1337.33333333 233 1356 233 c 0
 1369.33333333 233 1385.83333333 238.166666667 1405.5 248.5 c 128
 1425.16666667 258.833333333 1445.5 274 1466.5 294 c 128
 1487.5 314 1508.33333333 338.833333333 1529 368.5 c 128
 1549.66666667 398.166666667 1568.16666667 432.166666667 1584.5 470.5 c 128
 1600.83333333 508.833333333 1614.16666667 551.5 1624.5 598.5 c 128
 1634.83333333 645.5 1640 696.666666667 1640 752 c 0
 1640 816.666666667 1632.33333333 875.166666667 1617 927.5 c 128
 1601.66666667 979.833333333 1581 1026.33333333 1555 1067 c 128
 1529 1107.66666667 1498.16666667 1142.83333333 1462.5 1172.5 c 128
 1426.83333333 1202.16666667 1389 1226.66666667 1349 1246 c 128
 1309 1265.33333333 1267.33333333 1279.66666667 1224 1289 c 128
 1180.66666667 1298.33333333 1138 1303 1096 1303 c 0
 1024 1303 955.166666667 1294.16666667 889.5 1276.5 c 128
 823.833333333 1258.83333333 762.5 1233.83333333 705.5 1201.5 c 128
 648.5 1169.16666667 596.666666667 1129.66666667 550 1083 c 128
 503.333333333 1036.33333333 463.333333333 983.833333333 430 925.5 c 128
 396.666666667 867.166666667 371 803.833333333 353 735.5 c 128
 335 667.166666667 326 594.666666667 326 518 c 0
 326 412.666666667 342.333333333 315.833333333 375 227.5 c 128
 407.666666667 139.166666667 454 62.6666666667 514 -2 c 128
 574 -66.6666666667 646.333333333 -117 731 -153 c 128
 815.666666667 -189 910 -207 1014 -207 c 0
 1068 -207 1119.33333333 -202.5 1168 -193.5 c 128
 1216.66666667 -184.5 1263.66666667 -172.333333333 1309 -157 c 128
 1354.33333333 -141.666666667 1398.83333333 -123.5 1442.5 -102.5 c 128
 1486.16666667 -81.5 1529.66666667 -59 1573 -35 c 1
 1616 -137 l 1
 1570 -161 1522.33333333 -184.166666667 1473 -206.5 c 128
 1423.66666667 -228.833333333 1372.33333333 -248.5 1319 -265.5 c 128
 1265.66666667 -282.5 1209.5 -296.166666667 1150.5 -306.5 c 128
 1091.5 -316.833333333 1029.66666667 -322 965 -322 c 0
 885 -322 808.666666667 -313.5 736 -296.5 c 128
 663.333333333 -279.5 595.666666667 -254.666666667 533 -222 c 128
 470.333333333 -189.333333333 413.5 -149.666666667 362.5 -103 c 128
 311.5 -56.3333333333 268 -3.16666666667 232 56.5 c 128
 196 116.166666667 168.166666667 181.5 148.5 252.5 c 128
 128.833333333 323.5 119 399.666666667 119 481 c 0
 119 580.333333333 131 672.333333333 155 757 c 128
 179 841.666666667 212.5 918.333333333 255.5 987 c 128
 298.5 1055.66666667 349.666666667 1116.16666667 409 1168.5 c 128
 468.333333333 1220.83333333 533.166666667 1264.66666667 603.5 1300 c 128
 673.833333333 1335.33333333 748.5 1362 827.5 1380 c 128
 906.5 1398 987 1407 1069 1407 c 0
 1179.66666667 1407 1280 1392.33333333 1370 1363 c 128
 1460 1333.66666667 1536.66666667 1291.16666667 1600 1235.5 c 128
 1663.33333333 1179.83333333 1712.16666667 1111.5 1746.5 1030.5 c 128
 1780.83333333 949.5 1798 857.333333333 1798 754 c 0
1167 795 m 2
 1169 803 1168.5 813.166666667 1165.5 825.5 c 128
 1162.5 837.833333333 1157.33333333 849.666666667 1150 861 c 128
 1142.66666667 872.333333333 1132.66666667 882.166666667 1120 890.5 c 128
 1107.33333333 898.833333333 1092.33333333 903 1075 903 c 0
 1033.66666667 903 994.833333333 892 958.5 870 c 128
 922.166666667 848 890.333333333 817.5 863 778.5 c 128
 835.666666667 739.5 814 693 798 639 c 128
 782 585 774 526.333333333 774 463 c 0
 774 424.333333333 777.833333333 391.5 785.5 364.5 c 128
 793.166666667 337.5 803.333333333 315.5 816 298.5 c 128
 828.666666667 281.5 842.666666667 269.166666667 858 261.5 c 128
 873.333333333 253.833333333 889 250 905 250 c 0
 927 250 946.833333333 254.166666667 964.5 262.5 c 128
 982.166666667 270.833333333 998.166666667 281.333333333 1012.5 294 c 128
 1026.83333333 306.666666667 1040 320.333333333 1052 335 c 128
 1064 349.666666667 1075 363 1085 375 c 1
 1167 795 l 2
EndSplineSet
EndChar

StartChar: A
Encoding: 65 65 15
Width: 1464
GlyphClass: 2
Flags: HW
LayerCount: 2
Back
Fore
SplineSet
784 1032 m 1
 555 635 l 1
 852 635 l 1
 784 1032 l 1
801 0 m 1
 801 102 l 1
 811.666666667 103.333333333 822.5 104.5 833.5 105.5 c 128
 844.5 106.5 854.666666667 107.666666667 864 109 c 0
 874.666666667 110.333333333 885 111.666666667 895 113 c 0
 908.333333333 114.333333333 918.666666667 116.666666667 926 120 c 128
 933.333333333 123.333333333 936 131 934 143 c 2
 874 518 l 1
 487 518 l 1
 285 143 l 1
 278.333333333 133 277.666666667 125.833333333 283 121.5 c 128
 288.333333333 117.166666667 297.666666667 114.333333333 311 113 c 0
 321.666666667 111.666666667 333 110.333333333 345 109 c 0
 355 107.666666667 366.333333333 106.5 379 105.5 c 128
 391.666666667 104.5 404.666666667 103.333333333 418 102 c 1
 418 0 l 1
 -109 0 l 1
 -109 102 l 1
 10 115 l 1
 768 1407 l 1
 1010 1407 l 1
 1233 145 l 2
 1235 131.666666667 1238.5 123.166666667 1243.5 119.5 c 128
 1248.5 115.833333333 1258.66666667 113 1274 111 c 0
 1283.33333333 110.333333333 1293.33333333 109.333333333 1304 108 c 0
 1313.33333333 106.666666667 1323.5 105.666666667 1334.5 105 c 128
 1345.5 104.333333333 1356.66666667 103.333333333 1368 102 c 1
 1368 0 l 1
 801 0 l 1
EndSplineSet
EndChar

StartChar: B
Encoding: 66 66 16
Width: 1329
GlyphClass: 2
Flags: HW
LayerCount: 2
Back
Fore
SplineSet
1262 1106 m 0
 1262 1056 1253.66666667 1011.66666667 1237 973 c 128
 1220.33333333 934.333333333 1197.5 900 1168.5 870 c 128
 1139.5 840 1105.33333333 813.833333333 1066 791.5 c 128
 1026.66666667 769.166666667 984 749.666666667 938 733 c 1
 982.666666667 725 1022.5 714 1057.5 700 c 128
 1092.5 686 1122.16666667 668.166666667 1146.5 646.5 c 128
 1170.83333333 624.833333333 1189.33333333 599 1202 569 c 128
 1214.66666667 539 1221 503.666666667 1221 463 c 0
 1221 381.666666667 1205.66666667 311.666666667 1175 253 c 128
 1144.33333333 194.333333333 1100.83333333 146.333333333 1044.5 109 c 128
 988.166666667 71.6666666667 920.166666667 44.1666666667 840.5 26.5 c 128
 760.833333333 8.83333333333 671.666666667 0 573 0 c 2
 -31 0 l 1
 -31 102 l 1
 -14.3333333333 103.333333333 1.66666666667 104.666666667 17 106 c 128
 32.3333333333 107.333333333 46 108.666666667 58 110 c 0
 72 111.333333333 85.3333333333 112.333333333 98 113 c 0
 109.333333333 113 118.166666667 114.833333333 124.5 118.5 c 128
 130.833333333 122.166666667 135 131 137 145 c 1
 350 1231 l 2
 352 1242.33333333 350.166666667 1250 344.5 1254 c 128
 338.833333333 1258 329.666666667 1260.66666667 317 1262 c 0
 305 1262.66666667 292.333333333 1263.66666667 279 1265 c 0
 267.666666667 1266.33333333 254.666666667 1267.5 240 1268.5 c 128
 225.333333333 1269.5 210.333333333 1270.66666667 195 1272 c 1
 195 1374 l 1
 813 1374 l 2
 899.666666667 1374 971.833333333 1367 1029.5 1353 c 128
 1087.16666667 1339 1133.33333333 1320 1168 1296 c 128
 1202.66666667 1272 1227 1243.66666667 1241 1211 c 128
 1255 1178.33333333 1262 1143.33333333 1262 1106 c 0
911 442 m 0
 911 484 903.666666667 518.666666667 889 546 c 128
 874.333333333 573.333333333 854.5 595.166666667 829.5 611.5 c 128
 804.5 627.833333333 775.833333333 639.166666667 743.5 645.5 c 128
 711.166666667 651.833333333 677 655 641 655 c 0
 604.333333333 655 566.666666667 653 528 649 c 1
 424 115 l 1
 438.666666667 113.666666667 453.333333333 113 468 113 c 2
 506 113 l 2
 566.666666667 113 621.833333333 119.833333333 671.5 133.5 c 128
 721.166666667 147.166666667 763.666666667 167.833333333 799 195.5 c 128
 834.333333333 223.166666667 861.833333333 257.5 881.5 298.5 c 128
 901.166666667 339.5 911 387.333333333 911 442 c 0
948 1092 m 0
 948 1124.66666667 941.5 1152.16666667 928.5 1174.5 c 128
 915.5 1196.83333333 898.166666667 1214.66666667 876.5 1228 c 128
 854.833333333 1241.33333333 829.833333333 1251 801.5 1257 c 128
 773.166666667 1263 743.666666667 1266 713 1266 c 0
 701.666666667 1266 690.5 1265.66666667 679.5 1265 c 128
 668.5 1264.33333333 658.333333333 1264 649 1264 c 1
 553 768 l 1
 564.333333333 766.666666667 574.666666667 766 584 766 c 2
 604 766 l 2
 654.666666667 766 701.166666667 774.166666667 743.5 790.5 c 128
 785.833333333 806.833333333 822.166666667 829.5 852.5 858.5 c 128
 882.833333333 887.5 906.333333333 921.833333333 923 961.5 c 128
 939.666666667 1001.16666667 948 1044.66666667 948 1092 c 0
EndSplineSet
EndChar

StartChar: C
Encoding: 67 67 17
Width: 1376
GlyphClass: 2
Flags: HW
LayerCount: 2
Back
Fore
SplineSet
1343 961 m 1
 1192 961 l 1
 1194 1190 l 1
 1195.33333333 1198 1193.16666667 1207 1187.5 1217 c 128
 1181.83333333 1227 1173.66666667 1233.66666667 1163 1237 c 1
 1157.66666667 1239.66666667 1147.66666667 1243.66666667 1133 1249 c 128
 1118.33333333 1254.33333333 1101.83333333 1259.33333333 1083.5 1264 c 128
 1065.16666667 1268.66666667 1046.33333333 1272.83333333 1027 1276.5 c 128
 1007.66666667 1280.16666667 990.333333333 1282 975 1282 c 0
 931.666666667 1282 887.333333333 1274.33333333 842 1259 c 128
 796.666666667 1243.66666667 752.833333333 1221.16666667 710.5 1191.5 c 128
 668.166666667 1161.83333333 628.166666667 1125.33333333 590.5 1082 c 128
 552.833333333 1038.66666667 520 989 492 933 c 128
 464 877 441.833333333 815 425.5 747 c 128
 409.166666667 679 401 605.333333333 401 526 c 0
 401 448 412.333333333 381.666666667 435 327 c 128
 457.666666667 272.333333333 487.166666667 227.5 523.5 192.5 c 128
 559.833333333 157.5 600.333333333 132 645 116 c 128
 689.666666667 100 734 92 778 92 c 0
 792.666666667 92 808.666666667 93 826 95 c 128
 843.333333333 97 860 99.6666666667 876 103 c 128
 892 106.333333333 906.5 109.666666667 919.5 113 c 128
 932.5 116.333333333 942 119.666666667 948 123 c 1
 958.666666667 124.333333333 966.666666667 128.333333333 972 135 c 128
 977.333333333 141.666666667 981.666666667 148.666666667 985 156 c 2
 1083 426 l 1
 1237 426 l 1
 1174 55 l 1
 1148 45.6666666667 1118.16666667 35.8333333333 1084.5 25.5 c 128
 1050.83333333 15.1666666667 1014.33333333 5.66666666667 975 -3 c 128
 935.666666667 -11.6666666667 893.833333333 -18.8333333333 849.5 -24.5 c 128
 805.166666667 -30.1666666667 759 -33 711 -33 c 0
 634.333333333 -33 565.833333333 -25.1666666667 505.5 -9.5 c 128
 445.166666667 6.16666666667 392.333333333 27.8333333333 347 55.5 c 128
 301.666666667 83.1666666667 263.166666667 115.666666667 231.5 153 c 128
 199.833333333 190.333333333 174.166666667 230.666666667 154.5 274 c 128
 134.833333333 317.333333333 120.5 362.333333333 111.5 409 c 128
 102.5 455.666666667 98 502.333333333 98 549 c 0
 98 619 106.833333333 689 124.5 759 c 128
 142.166666667 829 168 895.666666667 202 959 c 128
 236 1022.33333333 278 1081.33333333 328 1136 c 128
 378 1190.66666667 435 1238.16666667 499 1278.5 c 128
 563 1318.83333333 634 1350.33333333 712 1373 c 128
 790 1395.66666667 874.333333333 1407 965 1407 c 0
 1004.33333333 1407 1041.83333333 1404.83333333 1077.5 1400.5 c 128
 1113.16666667 1396.16666667 1148.66666667 1390.33333333 1184 1383 c 128
 1219.33333333 1375.66666667 1255.16666667 1366.66666667 1291.5 1356 c 128
 1327.83333333 1345.33333333 1366.33333333 1333.66666667 1407 1321 c 1
 1343 961 l 1
EndSplineSet
EndChar

StartChar: D
Encoding: 68 68 18
Width: 1460
GlyphClass: 2
Flags: HW
LayerCount: 2
Back
Fore
SplineSet
1116 866 m 0
 1116 922 1110 970.333333333 1098 1011 c 128
 1086 1051.66666667 1069.66666667 1086.16666667 1049 1114.5 c 128
 1028.33333333 1142.83333333 1003.83333333 1165.66666667 975.5 1183 c 128
 947.166666667 1200.33333333 916.666666667 1213.83333333 884 1223.5 c 128
 851.333333333 1233.16666667 817.333333333 1239.83333333 782 1243.5 c 128
 746.666666667 1247.16666667 711.333333333 1249.66666667 676 1251 c 1
 647 1251 l 1
 426 127 l 1
 530 127 l 1
 590 127.666666667 646.166666667 137.333333333 698.5 156 c 128
 750.833333333 174.666666667 798.666666667 200.5 842 233.5 c 128
 885.333333333 266.5 924 305.833333333 958 351.5 c 128
 992 397.166666667 1020.66666667 447.166666667 1044 501.5 c 128
 1067.33333333 555.833333333 1085.16666667 613.833333333 1097.5 675.5 c 128
 1109.83333333 737.166666667 1116 800.666666667 1116 866 c 0
1423 848 m 0
 1423 726 1401.66666667 613.166666667 1359 509.5 c 128
 1316.33333333 405.833333333 1255 316.333333333 1175 241 c 128
 1095 165.666666667 997.5 106.666666667 882.5 64 c 128
 767.5 21.3333333333 638 0 494 0 c 2
 -31 0 l 1
 -31 102 l 1
 -15.6666666667 103.333333333 -0.666666666667 104.666666667 14 106 c 128
 28.6666666667 107.333333333 41.6666666667 108.333333333 53 109 c 0
 66.3333333333 109.666666667 79.3333333333 110.333333333 92 111 c 0
 108.666666667 112.333333333 119.5 114.833333333 124.5 118.5 c 128
 129.5 122.166666667 133.666666667 131 137 145 c 2
 350 1231 l 2
 352 1243 349.5 1250.83333333 342.5 1254.5 c 128
 335.5 1258.16666667 325.666666667 1260.66666667 313 1262 c 0
 300.333333333 1262.66666667 287.666666667 1263.66666667 275 1265 c 0
 263.666666667 1266.33333333 251 1267.5 237 1268.5 c 128
 223 1269.5 209 1270.66666667 195 1272 c 1
 195 1374 l 1
 727 1374 l 2
 833 1374 928.833333333 1364.33333333 1014.5 1345 c 128
 1100.16666667 1325.66666667 1173.33333333 1294.83333333 1234 1252.5 c 128
 1294.66666667 1210.16666667 1341.33333333 1155.66666667 1374 1089 c 128
 1406.66666667 1022.33333333 1423 942 1423 848 c 0
EndSplineSet
EndChar

StartChar: E
Encoding: 69 69 19
Width: 1229
GlyphClass: 2
Flags: HW
LayerCount: 2
Back
Fore
SplineSet
1210 1051 m 1
 1047 1051 l 1
 1047 1225 l 2
 1047 1235 1041.83333333 1241.83333333 1031.5 1245.5 c 128
 1021.16666667 1249.16666667 1010.33333333 1251 999 1251 c 2
 647 1251 l 1
 555 776 l 1
 786 776 l 2
 796.666666667 776 808.166666667 778.5 820.5 783.5 c 128
 832.833333333 788.5 840.666666667 796.333333333 844 807 c 2
 887 950 l 1
 1036 950 l 1
 942 469 l 1
 791 469 l 1
 811 623 l 2
 811.666666667 627 810.666666667 630.666666667 808 634 c 128
 805.333333333 637.333333333 801.666666667 640.333333333 797 643 c 128
 792.333333333 645.666666667 787.166666667 647.666666667 781.5 649 c 128
 775.833333333 650.333333333 770.666666667 651 766 651 c 2
 530 651 l 1
 428 123 l 1
 864 123 l 2
 874.666666667 123 886.166666667 125.666666667 898.5 131 c 128
 910.833333333 136.333333333 918.666666667 143.333333333 922 152 c 2
 987 356 l 1
 1149 356 l 1
 1077 0 l 1
 -31 0 l 1
 -31 102 l 1
 -15.6666666667 103.333333333 -0.5 104.666666667 14.5 106 c 128
 29.5 107.333333333 42.6666666667 108.666666667 54 110 c 0
 67.3333333333 111.333333333 80 112.333333333 92 113 c 0
 107.333333333 114.333333333 118.166666667 116.666666667 124.5 120 c 128
 130.833333333 123.333333333 135 131.666666667 137 145 c 2
 350 1231 l 1
 353.333333333 1243 351.333333333 1250.83333333 344 1254.5 c 128
 336.666666667 1258.16666667 326.333333333 1260.66666667 313 1262 c 0
 301 1262.66666667 288.666666667 1263.66666667 276 1265 c 0
 264.666666667 1266.33333333 252 1267.5 238 1268.5 c 128
 224 1269.5 210.333333333 1270.66666667 197 1272 c 1
 197 1374 l 1
 1276 1374 l 1
 1210 1051 l 1
EndSplineSet
EndChar

StartChar: F
Encoding: 70 70 20
Width: 1139
GlyphClass: 2
Flags: HW
LayerCount: 2
Back
Fore
SplineSet
1186 1028 m 1
 1020 1028 l 1
 1020 1225 l 2
 1020 1235 1015 1241.83333333 1005 1245.5 c 128
 995 1249.16666667 984.333333333 1251 973 1251 c 2
 647 1251 l 1
 551 756 l 1
 768 756 l 2
 778 756 789.166666667 758.166666667 801.5 762.5 c 128
 813.833333333 766.833333333 821.666666667 774 825 784 c 2
 866 932 l 1
 1018 932 l 1
 924 449 l 1
 770 449 l 1
 793 602 l 1
 793.666666667 611.333333333 788.5 618.5 777.5 623.5 c 128
 766.5 628.5 755.666666667 631 745 631 c 2
 526 631 l 1
 430 143 l 2
 428 131 430.666666667 123.333333333 438 120 c 128
 445.333333333 116.666666667 455.666666667 114.333333333 469 113 c 0
 481.666666667 112.333333333 495.333333333 111.333333333 510 110 c 0
 522.666666667 108.666666667 536.833333333 107.333333333 552.5 106 c 128
 568.166666667 104.666666667 584.666666667 103.333333333 602 102 c 1
 602 0 l 1
 -31 0 l 1
 -31 102 l 1
 -17 103.333333333 -3.16666666667 104.666666667 10.5 106 c 128
 24.1666666667 107.333333333 36.6666666667 108.666666667 48 110 c 0
 60.6666666667 111.333333333 73.3333333333 112.333333333 86 113 c 0
 101.333333333 114.333333333 112.833333333 116.666666667 120.5 120 c 128
 128.166666667 123.333333333 133.666666667 131.666666667 137 145 c 1
 350 1231 l 2
 352 1243 349.333333333 1250.83333333 342 1254.5 c 128
 334.666666667 1258.16666667 324.333333333 1260.66666667 311 1262 c 0
 299 1262.66666667 286.666666667 1263.66666667 274 1265 c 0
 262.666666667 1266.33333333 250 1267.5 236 1268.5 c 128
 222 1269.5 208.333333333 1270.66666667 195 1272 c 1
 195 1374 l 1
 1253 1374 l 1
 1186 1028 l 1
EndSplineSet
EndChar

StartChar: G
Encoding: 71 71 21
Width: 1495
GlyphClass: 2
Flags: HW
LayerCount: 2
Back
Fore
SplineSet
1329 561 m 2
 1319.66666667 559.666666667 1313.16666667 556.5 1309.5 551.5 c 128
 1305.83333333 546.5 1302.66666667 539.333333333 1300 530 c 1
 1206 53 l 1
 1177.33333333 45 1144.33333333 36 1107 26 c 128
 1069.66666667 16 1029.66666667 6.66666666667 987 -2 c 128
 944.333333333 -10.6666666667 900.5 -18 855.5 -24 c 128
 810.5 -30 766.333333333 -33 723 -33 c 0
 635.666666667 -33 559.666666667 -23.6666666667 495 -5 c 128
 430.333333333 13.6666666667 375 38.6666666667 329 70 c 128
 283 101.333333333 245 137.166666667 215 177.5 c 128
 185 217.833333333 161.333333333 259.666666667 144 303 c 128
 126.666666667 346.333333333 114.666666667 389.5 108 432.5 c 128
 101.333333333 475.5 98 515 98 551 c 0
 98 635.666666667 109.5 715.666666667 132.5 791 c 128
 155.5 866.333333333 187.5 935.833333333 228.5 999.5 c 128
 269.5 1063.16666667 318.5 1120.16666667 375.5 1170.5 c 128
 432.5 1220.83333333 495.333333333 1263.5 564 1298.5 c 128
 632.666666667 1333.5 706 1360.33333333 784 1379 c 128
 862 1397.66666667 942 1407 1024 1407 c 0
 1062.66666667 1407 1098.83333333 1405.5 1132.5 1402.5 c 128
 1166.16666667 1399.5 1199.5 1394.83333333 1232.5 1388.5 c 128
 1265.5 1382.16666667 1299.33333333 1374.16666667 1334 1364.5 c 128
 1368.66666667 1354.83333333 1406.66666667 1343.66666667 1448 1331 c 1
 1372 958 l 1
 1198 958 l 1
 1217 1190 l 2
 1218.33333333 1202 1213.16666667 1211.5 1201.5 1218.5 c 128
 1189.83333333 1225.5 1177 1231.66666667 1163 1237 c 0
 1156.33333333 1239 1147.16666667 1242.16666667 1135.5 1246.5 c 128
 1123.83333333 1250.83333333 1110.5 1255.16666667 1095.5 1259.5 c 128
 1080.5 1263.83333333 1064.66666667 1267.66666667 1048 1271 c 128
 1031.33333333 1274.33333333 1015 1276 999 1276 c 0
 957 1276 913.333333333 1268.33333333 868 1253 c 128
 822.666666667 1237.66666667 778.166666667 1215.16666667 734.5 1185.5 c 128
 690.833333333 1155.83333333 649.333333333 1119.16666667 610 1075.5 c 128
 570.666666667 1031.83333333 536.166666667 982 506.5 926 c 128
 476.833333333 870 453.333333333 808 436 740 c 128
 418.666666667 672 410 598.666666667 410 520 c 0
 410 464.666666667 416.5 415.833333333 429.5 373.5 c 128
 442.5 331.166666667 459.5 294.166666667 480.5 262.5 c 128
 501.5 230.833333333 525.166666667 204.5 551.5 183.5 c 128
 577.833333333 162.5 604.166666667 145.5 630.5 132.5 c 128
 656.833333333 119.5 681.666666667 110.166666667 705 104.5 c 128
 728.333333333 98.8333333333 748 96 764 96 c 0
 777.333333333 96 791.666666667 97 807 99 c 128
 822.333333333 101 837.333333333 103.5 852 106.5 c 128
 866.666666667 109.5 880.666666667 112.666666667 894 116 c 128
 907.333333333 119.333333333 918.666666667 122.333333333 928 125 c 1
 1008 530 l 2
 1010 542.666666667 1008 551 1002 555 c 128
 996 559 985 561.666666667 969 563 c 1
 957 563 944.666666667 563.666666667 932 565 c 0
 920.666666667 565.666666667 908.166666667 566.5 894.5 567.5 c 128
 880.833333333 568.5 867.333333333 569.666666667 854 571 c 1
 854 676 l 1
 1468 676 l 1
 1468 571 l 1
 1329 561 l 2
EndSplineSet
EndChar

StartChar: H
Encoding: 72 72 22
Width: 1571
GlyphClass: 2
Flags: HW
LayerCount: 2
Back
Fore
SplineSet
1526 1260 m 2
 1513.33333333 1258.66666667 1504.5 1255.5 1499.5 1250.5 c 128
 1494.5 1245.5 1491 1238.33333333 1489 1229 c 2
 1276 143 l 2
 1274 131.666666667 1276 124.166666667 1282 120.5 c 128
 1288 116.833333333 1297.66666667 114.333333333 1311 113 c 0
 1323 112.333333333 1335.66666667 111.333333333 1349 110 c 0
 1360.33333333 108.666666667 1373.16666667 107.333333333 1387.5 106 c 128
 1401.83333333 104.666666667 1416.66666667 103.333333333 1432 102 c 1
 1432 0 l 1
 811 0 l 1
 811 102 l 1
 857 106 l 2
 872.333333333 107.333333333 886 108.666666667 898 110 c 0
 912 111.333333333 925.333333333 112.333333333 938 113 c 0
 950.666666667 114.333333333 960.833333333 117 968.5 121 c 128
 976.166666667 125 981 133 983 145 c 2
 1083 657 l 1
 530 657 l 1
 430 143 l 2
 428 131 429.333333333 123.333333333 434 120 c 128
 438.666666667 116.666666667 449.666666667 114.333333333 467 113 c 0
 479 112.333333333 491.666666667 111.333333333 505 110 c 0
 516.333333333 108.666666667 529.166666667 107.333333333 543.5 106 c 128
 557.833333333 104.666666667 572.666666667 103.333333333 588 102 c 1
 588 0 l 1
 -31 0 l 1
 -31 102 l 1
 -15.6666666667 103.333333333 -0.5 104.666666667 14.5 106 c 128
 29.5 107.333333333 42.6666666667 108.666666667 54 110 c 0
 67.3333333333 111.333333333 80 112.333333333 92 113 c 0
 106.666666667 114.333333333 117.333333333 117 124 121 c 128
 130.666666667 125 135 133 137 145 c 2
 350 1231 l 2
 352 1243 349.666666667 1250.83333333 343 1254.5 c 128
 336.333333333 1258.16666667 325.666666667 1260.66666667 311 1262 c 0
 299 1262.66666667 286.666666667 1263.66666667 274 1265 c 0
 262.666666667 1266.33333333 250.166666667 1267.5 236.5 1268.5 c 128
 222.833333333 1269.5 209 1270.66666667 195 1272 c 1
 195 1374 l 1
 813 1374 l 1
 813 1272 l 1
 797 1270.66666667 781.5 1269.5 766.5 1268.5 c 128
 751.5 1267.5 738 1266.33333333 726 1265 c 0
 712 1263.66666667 698.666666667 1262.66666667 686 1262 c 0
 672.666666667 1260.66666667 662.666666667 1257.83333333 656 1253.5 c 128
 649.333333333 1249.16666667 645 1241 643 1229 c 2
 555 780 l 1
 1108 780 l 1
 1196 1231 l 2
 1198 1243 1195.5 1251.16666667 1188.5 1255.5 c 128
 1181.5 1259.83333333 1169.66666667 1262.66666667 1153 1264 c 0
 1141 1264.66666667 1128.66666667 1265.33333333 1116 1266 c 0
 1104.66666667 1266.66666667 1092.16666667 1267.5 1078.5 1268.5 c 128
 1064.83333333 1269.5 1051.33333333 1270.66666667 1038 1272 c 1
 1038 1374 l 1
 1657 1374 l 1
 1657 1272 l 1
 1526 1260 l 2
EndSplineSet
EndChar

StartChar: I
Encoding: 73 73 23
Width: 729
GlyphClass: 2
Flags: HW
LayerCount: 2
Back
Fore
SplineSet
674 1262 m 2
 663.333333333 1260.66666667 656 1257.16666667 652 1251.5 c 128
 648 1245.83333333 645 1238.33333333 643 1229 c 2
 430 143 l 2
 428 131.666666667 429.333333333 124.166666667 434 120.5 c 128
 438.666666667 116.833333333 447.666666667 114.333333333 461 113 c 0
 473.666666667 112.333333333 487 111.333333333 501 110 c 0
 513 108.666666667 526.666666667 107.333333333 542 106 c 128
 557.333333333 104.666666667 573.333333333 103.333333333 590 102 c 1
 590 0 l 1
 -31 0 l 1
 -31 102 l 1
 -15.6666666667 103.333333333 -0.833333333333 104.333333333 13.5 105 c 128
 27.8333333333 105.666666667 40.6666666667 106.666666667 52 108 c 0
 65.3333333333 109.333333333 78 110.333333333 90 111 c 0
 105.333333333 112.333333333 116.5 114.833333333 123.5 118.5 c 128
 130.5 122.166666667 135 131 137 145 c 1
 350 1231 l 1
 353.333333333 1243 351.333333333 1250.83333333 344 1254.5 c 128
 336.666666667 1258.16666667 326.333333333 1260.66666667 313 1262 c 0
 301 1262.66666667 288.666666667 1263.66666667 276 1265 c 0
 264.666666667 1266.33333333 252 1267.5 238 1268.5 c 128
 224 1269.5 210.333333333 1270.66666667 197 1272 c 1
 197 1374 l 1
 815 1374 l 1
 815 1272 l 1
 674 1262 l 2
EndSplineSet
EndChar

StartChar: J
Encoding: 74 74 24
Width: 1044
GlyphClass: 2
Flags: HW
LayerCount: 2
Back
Fore
SplineSet
985 1260 m 1
 975.666666667 1260 969.166666667 1257.16666667 965.5 1251.5 c 128
 961.833333333 1245.83333333 958.666666667 1238.33333333 956 1229 c 1
 825 526 l 2
 810.333333333 445.333333333 792.166666667 370.833333333 770.5 302.5 c 128
 748.833333333 234.166666667 718 175.166666667 678 125.5 c 128
 638 75.8333333333 585.5 37 520.5 9 c 128
 455.5 -19 372.666666667 -33 272 -33 c 0
 226.666666667 -33 186.166666667 -30 150.5 -24 c 128
 114.833333333 -18 84 -11 58 -3 c 128
 32 5 10.8333333333 12.8333333333 -5.5 20.5 c 128
 -21.8333333333 28.1666666667 -33.6666666667 33.6666666667 -41 37 c 1
 29 393 l 1
 197 393 l 1
 197 135 l 2
 197 129.666666667 200.166666667 124.5 206.5 119.5 c 128
 212.833333333 114.5 220.666666667 110.166666667 230 106.5 c 128
 239.333333333 102.833333333 249.166666667 99.8333333333 259.5 97.5 c 128
 269.833333333 95.1666666667 279 94 287 94 c 0
 346.333333333 94 395 128.166666667 433 196.5 c 128
 471 264.833333333 502.666666667 369.333333333 528 510 c 1
 664 1231 l 2
 666 1243 663.666666667 1250.83333333 657 1254.5 c 128
 650.333333333 1258.16666667 640.333333333 1260.66666667 627 1262 c 0
 614.333333333 1262.66666667 601.333333333 1263.66666667 588 1265 c 0
 576.666666667 1266.33333333 563.666666667 1267.5 549 1268.5 c 128
 534.333333333 1269.5 520 1270.66666667 506 1272 c 1
 506 1374 l 1
 1124 1374 l 1
 1124 1272 l 1
 985 1260 l 1
EndSplineSet
EndChar

StartChar: K
Encoding: 75 75 25
Width: 1430
GlyphClass: 2
Flags: HW
LayerCount: 2
Back
Fore
SplineSet
1323 1255 m 1
 795 752 l 1
 1079 211 l 2
 1091 188.333333333 1100.83333333 170 1108.5 156 c 128
 1116.16666667 142 1124 130.833333333 1132 122.5 c 128
 1140 114.166666667 1149 108.5 1159 105.5 c 128
 1169 102.5 1182 100.666666667 1198 100 c 0
 1203.33333333 100 1212.66666667 100.5 1226 101.5 c 128
 1239.33333333 102.5 1253.33333333 103.5 1268 104.5 c 128
 1282.66666667 105.5 1295.83333333 106.5 1307.5 107.5 c 128
 1319.16666667 108.5 1325.66666667 109 1327 109 c 1
 1327 6 l 1
 1289.66666667 -5.33333333333 1250.66666667 -14.6666666667 1210 -22 c 128
 1169.33333333 -29.3333333333 1130 -33 1092 -33 c 0
 1050.66666667 -33 1015.5 -30 986.5 -24 c 128
 957.5 -18 932.5 -8.5 911.5 4.5 c 128
 890.5 17.5 872.166666667 34.1666666667 856.5 54.5 c 128
 840.833333333 74.8333333333 825.666666667 99 811 127 c 2
 565 596 l 1
 518 596 l 1
 428 143 l 2
 426 129.666666667 428.166666667 121.333333333 434.5 118 c 128
 440.833333333 114.666666667 449.666666667 112.333333333 461 111 c 0
 472.333333333 110.333333333 484 109.333333333 496 108 c 0
 506 106.666666667 517.166666667 105.666666667 529.5 105 c 128
 541.833333333 104.333333333 554.333333333 103.333333333 567 102 c 1
 567 0 l 1
 -33 0 l 1
 -33 102 l 1
 -19.6666666667 103.333333333 -5.66666666667 104.333333333 9 105 c 128
 23.6666666667 105.666666667 37.6666666667 106.666666667 51 108 c 0
 66.3333333333 109.333333333 81.3333333333 110.333333333 96 111 c 0
 106.666666667 111 115.333333333 113.333333333 122 118 c 128
 128.666666667 122.666666667 133 131.666666667 135 145 c 2
 350 1231 l 1
 353.333333333 1243 352.333333333 1251.16666667 347 1255.5 c 128
 341.666666667 1259.83333333 334 1262.66666667 324 1264 c 1
 312.666666667 1264.66666667 301 1265.33333333 289 1266 c 0
 278.333333333 1266.66666667 266.666666667 1267.5 254 1268.5 c 128
 241.333333333 1269.5 228.333333333 1270.66666667 215 1272 c 1
 215 1374 l 1
 795 1374 l 1
 795 1272 l 1
 781 1270.66666667 767.166666667 1269.5 753.5 1268.5 c 128
 739.833333333 1267.5 727.666666667 1266.66666667 717 1266 c 0
 705 1265.33333333 693.333333333 1264.66666667 682 1264 c 1
 672 1262.66666667 663.833333333 1259.83333333 657.5 1255.5 c 128
 651.166666667 1251.16666667 646.333333333 1242.33333333 643 1229 c 1
 555 784 l 1
 571 784 l 1
 1032 1233 l 1
 1042.66666667 1242.33333333 1045.83333333 1249.5 1041.5 1254.5 c 128
 1037.16666667 1259.5 1028 1262.66666667 1014 1264 c 1
 1002 1264 990 1264.66666667 978 1266 c 0
 967.333333333 1266.66666667 955.666666667 1267.5 943 1268.5 c 128
 930.333333333 1269.5 918.333333333 1270.66666667 907 1272 c 1
 907 1374 l 1
 1503 1374 l 1
 1503 1272 l 1
 1323 1255 l 1
EndSplineSet
EndChar

StartChar: L
Encoding: 76 76 26
Width: 1147
GlyphClass: 2
Flags: HW
LayerCount: 2
Back
Fore
SplineSet
999 0 m 1
 -31 0 l 1
 -31 102 l 1
 -17 103.333333333 -3.16666666667 104.666666667 10.5 106 c 128
 24.1666666667 107.333333333 36.6666666667 108.333333333 48 109 c 2
 86 111 l 1
 105.333333333 113 118.166666667 115.833333333 124.5 119.5 c 128
 130.833333333 123.166666667 135 131.666666667 137 145 c 2
 350 1231 l 1
 353.333333333 1242.33333333 351.5 1250 344.5 1254 c 128
 337.5 1258 328.333333333 1260.66666667 317 1262 c 1
 305 1262.66666667 292.333333333 1263.66666667 279 1265 c 0
 267.666666667 1266.33333333 254.833333333 1267.5 240.5 1268.5 c 128
 226.166666667 1269.5 211.666666667 1270.66666667 197 1272 c 1
 197 1374 l 1
 815 1374 l 1
 815 1272 l 1
 797.666666667 1270.66666667 781.166666667 1269.5 765.5 1268.5 c 128
 749.833333333 1267.5 735.666666667 1266.33333333 723 1265 c 0
 708.333333333 1263.66666667 694.666666667 1262.66666667 682 1262 c 1
 672.666666667 1260.66666667 664.666666667 1257.83333333 658 1253.5 c 128
 651.333333333 1249.16666667 646.333333333 1241 643 1229 c 1
 426 123 l 1
 786 123 l 2
 796.666666667 123 808.166666667 125.666666667 820.5 131 c 128
 832.833333333 136.333333333 840.666666667 143.333333333 844 152 c 2
 928 414 l 1
 1081 414 l 1
 999 0 l 1
EndSplineSet
EndChar

StartChar: M
Encoding: 77 77 27
Width: 1851
GlyphClass: 2
Flags: HW
LayerCount: 2
Back
Fore
SplineSet
1796 1257 m 2
 1786.66666667 1255.66666667 1780.16666667 1253 1776.5 1249 c 128
 1772.83333333 1245 1769.66666667 1238.33333333 1767 1229 c 1
 1556 143 l 2
 1554 131 1556.33333333 123.333333333 1563 120 c 128
 1569.66666667 116.666666667 1579.66666667 114.333333333 1593 113 c 0
 1605 112.333333333 1617.66666667 111.333333333 1631 110 c 0
 1642.33333333 108.666666667 1655 107.333333333 1669 106 c 128
 1683 104.666666667 1697.33333333 103.333333333 1712 102 c 1
 1712 0 l 1
 1094 0 l 1
 1094 102 l 1
 1109.33333333 103.333333333 1124.33333333 104.666666667 1139 106 c 128
 1153.66666667 107.333333333 1167 108.666666667 1179 110 c 0
 1193 111.333333333 1206.33333333 112.333333333 1219 113 c 0
 1230.33333333 113 1240.16666667 115.333333333 1248.5 120 c 128
 1256.83333333 124.666666667 1262 133 1264 145 c 2
 1417 936 l 1
 885 0 l 1
 684 0 l 1
 518 922 l 1
 373 143 l 1
 369.666666667 131.666666667 371.166666667 124.166666667 377.5 120.5 c 128
 383.833333333 116.833333333 391.666666667 114.333333333 401 113 c 1
 413.666666667 112.333333333 426.666666667 111.333333333 440 110 c 0
 451.333333333 108.666666667 464.5 107.333333333 479.5 106 c 128
 494.5 104.666666667 510 103.333333333 526 102 c 1
 526 0 l 1
 -29 0 l 1
 -29 102 l 1
 -15 103.333333333 -1.33333333333 104.666666667 12 106 c 128
 25.3333333333 107.333333333 37.6666666667 108.666666667 49 110 c 0
 61.6666666667 111.333333333 74 112.333333333 86 113 c 0
 100.666666667 114.333333333 112.333333333 116.666666667 121 120 c 128
 129.666666667 123.333333333 135.666666667 131.666666667 139 145 c 1
 350 1231 l 2
 352 1243 349.666666667 1250.83333333 343 1254.5 c 128
 336.333333333 1258.16666667 326.333333333 1260.66666667 313 1262 c 0
 300.333333333 1262.66666667 287.666666667 1263.66666667 275 1265 c 0
 263.666666667 1266.33333333 251 1267.5 237 1268.5 c 128
 223 1269.5 209 1270.66666667 195 1272 c 1
 195 1374 l 1
 739 1374 l 1
 739 1307 l 1
 895 446 l 1
 1376 1298 l 1
 1376 1374 l 1
 1935 1374 l 1
 1935 1272 l 1
 1796 1257 l 2
EndSplineSet
EndChar

StartChar: N
Encoding: 78 78 28
Width: 1542
GlyphClass: 2
Flags: HW
LayerCount: 2
Back
Fore
SplineSet
1499 1260 m 1
 1479.66666667 1256.66666667 1468 1246.33333333 1464 1229 c 2
 1221 0 l 1
 993 0 l 1
 535 952 l 1
 377 143 l 2
 375 131 377 123.333333333 383 120 c 128
 389 116.666666667 399.333333333 114.333333333 414 113 c 0
 426 112.333333333 438.333333333 111.333333333 451 110 c 0
 462.333333333 108.666666667 474.833333333 107.333333333 488.5 106 c 128
 502.166666667 104.666666667 516.666666667 103.333333333 532 102 c 1
 532 0 l 1
 -29 0 l 1
 -29 102 l 1
 -14.3333333333 103.333333333 -0.166666666667 104.666666667 13.5 106 c 128
 27.1666666667 107.333333333 39.6666666667 108.666666667 51 110 c 0
 63.6666666667 111.333333333 76 112.333333333 88 113 c 0
 102.666666667 114.333333333 114 116.666666667 122 120 c 128
 130 123.333333333 135.666666667 131.666666667 139 145 c 1
 350 1231 l 1
 353.333333333 1243 351.333333333 1250.83333333 344 1254.5 c 128
 336.666666667 1258.16666667 326.333333333 1260.66666667 313 1262 c 0
 301 1262.66666667 288.666666667 1263.66666667 276 1265 c 0
 264.666666667 1266.33333333 252.166666667 1267.5 238.5 1268.5 c 128
 224.833333333 1269.5 211 1270.66666667 197 1272 c 1
 197 1374 l 1
 678 1374 l 1
 678 1311 l 1
 1077 477 l 1
 1227 1231 l 1
 1230.33333333 1243 1227.66666667 1250.83333333 1219 1254.5 c 128
 1210.33333333 1258.16666667 1200 1260.66666667 1188 1262 c 1
 1175.33333333 1262.66666667 1162.66666667 1263.66666667 1150 1265 c 0
 1138.66666667 1266.33333333 1126 1267.5 1112 1268.5 c 128
 1098 1269.5 1084.33333333 1270.66666667 1071 1272 c 1
 1071 1374 l 1
 1632 1374 l 1
 1632 1272 l 1
 1499 1260 l 1
EndSplineSet
EndChar

StartChar: O
Encoding: 79 79 29
Width: 1540
GlyphClass: 2
Flags: HW
LayerCount: 2
Back
Fore
SplineSet
1182 854 m 0
 1182 922.666666667 1173.16666667 983.666666667 1155.5 1037 c 128
 1137.83333333 1090.33333333 1114.83333333 1135.33333333 1086.5 1172 c 128
 1058.16666667 1208.66666667 1026.33333333 1236.5 991 1255.5 c 128
 955.666666667 1274.5 920.333333333 1284 885 1284 c 0
 844.333333333 1284 804.5 1273.66666667 765.5 1253 c 128
 726.5 1232.33333333 689.666666667 1204.16666667 655 1168.5 c 128
 620.333333333 1132.83333333 588.333333333 1090.5 559 1041.5 c 128
 529.666666667 992.5 504.5 939.833333333 483.5 883.5 c 128
 462.5 827.166666667 446 768.166666667 434 706.5 c 128
 422 644.833333333 416 583.333333333 416 522 c 0
 416 451.333333333 425.166666667 389.333333333 443.5 336 c 128
 461.833333333 282.666666667 485.333333333 238 514 202 c 128
 542.666666667 166 574.5 139 609.5 121 c 128
 644.5 103 679 94 713 94 c 0
 753 94 792.5 104.5 831.5 125.5 c 128
 870.5 146.5 907.333333333 175.333333333 942 212 c 128
 976.666666667 248.666666667 1008.66666667 291.5 1038 340.5 c 128
 1067.33333333 389.5 1092.66666667 442.166666667 1114 498.5 c 128
 1135.33333333 554.833333333 1152 613.333333333 1164 674 c 128
 1176 734.666666667 1182 794.666666667 1182 854 c 0
1501 854 m 0
 1501 784 1493.66666667 713.5 1479 642.5 c 128
 1464.33333333 571.5 1442.16666667 503.166666667 1412.5 437.5 c 128
 1382.83333333 371.833333333 1345.66666667 310.333333333 1301 253 c 128
 1256.33333333 195.666666667 1204.33333333 145.833333333 1145 103.5 c 128
 1085.66666667 61.1666666667 1018.66666667 27.8333333333 944 3.5 c 128
 869.333333333 -20.8333333333 787.333333333 -33 698 -33 c 0
 602.666666667 -33 517.833333333 -18.8333333333 443.5 9.5 c 128
 369.166666667 37.8333333333 306.333333333 77.5 255 128.5 c 128
 203.666666667 179.5 164.666666667 239.833333333 138 309.5 c 128
 111.333333333 379.166666667 98 455.666666667 98 539 c 0
 98 609.666666667 106.166666667 680.333333333 122.5 751 c 128
 138.833333333 821.666666667 162.833333333 889.166666667 194.5 953.5 c 128
 226.166666667 1017.83333333 265 1077.66666667 311 1133 c 128
 357 1188.33333333 409.833333333 1236.33333333 469.5 1277 c 128
 529.166666667 1317.66666667 595.333333333 1349.5 668 1372.5 c 128
 740.666666667 1395.5 819 1407 903 1407 c 0
 1001.66666667 1407 1088.33333333 1391.83333333 1163 1361.5 c 128
 1237.66666667 1331.16666667 1300 1290.5 1350 1239.5 c 128
 1400 1188.5 1437.66666667 1129.66666667 1463 1063 c 128
 1488.33333333 996.333333333 1501 926.666666667 1501 854 c 0
EndSplineSet
EndChar

StartChar: P
Encoding: 80 80 30
Width: 1245
GlyphClass: 2
Flags: HW
LayerCount: 2
Back
Fore
SplineSet
1255 1040 m 0
 1255 960 1239.5 887.333333333 1208.5 822 c 128
 1177.5 756.666666667 1133 700.5 1075 653.5 c 128
 1017 606.5 946.833333333 570.166666667 864.5 544.5 c 128
 782.166666667 518.833333333 690 506 588 506 c 2
 546 506 l 2
 529.333333333 506 514 506.666666667 500 508 c 1
 426 143 l 2
 424 131 426 123.333333333 432 120 c 128
 438 116.666666667 448.333333333 114.333333333 463 113 c 0
 475 112.333333333 487.666666667 111.333333333 501 110 c 0
 512.333333333 108.666666667 525.166666667 107.333333333 539.5 106 c 128
 553.833333333 104.666666667 568.666666667 103.333333333 584 102 c 1
 584 0 l 1
 -35 0 l 1
 -35 102 l 1
 -20.3333333333 103.333333333 -6 104.666666667 8 106 c 128
 22 107.333333333 34.6666666667 108.666666667 46 110 c 0
 58.6666666667 111.333333333 71.3333333333 112.333333333 84 113 c 0
 97.3333333333 114.333333333 108 116.666666667 116 120 c 128
 124 123.333333333 129.666666667 131.666666667 133 145 c 1
 348 1231 l 2
 350 1243 347.166666667 1250.83333333 339.5 1254.5 c 128
 331.833333333 1258.16666667 321.666666667 1260.66666667 309 1262 c 0
 297 1262.66666667 284.666666667 1263.66666667 272 1265 c 0
 260.666666667 1266.33333333 248 1267.5 234 1268.5 c 128
 220 1269.5 206.333333333 1270.66666667 193 1272 c 1
 193 1374 l 1
 745 1374 l 2
 841.666666667 1374 922.666666667 1365.16666667 988 1347.5 c 128
 1053.33333333 1329.83333333 1105.83333333 1305.83333333 1145.5 1275.5 c 128
 1185.16666667 1245.16666667 1213.33333333 1209.83333333 1230 1169.5 c 128
 1246.66666667 1129.16666667 1255 1086 1255 1040 c 0
956 1008 m 0
 956 1088.66666667 933 1150.33333333 887 1193 c 128
 841 1235.66666667 772.666666667 1257 682 1257 c 2
 647 1257 l 1
 522 631 l 1
 562 629.666666667 604.5 633.166666667 649.5 641.5 c 128
 694.5 649.833333333 738 666.666666667 780 692 c 0
 804.666666667 706.666666667 827.666666667 724 849 744 c 128
 870.333333333 764 889 787 905 813 c 128
 921 839 933.5 868.166666667 942.5 900.5 c 128
 951.5 932.833333333 956 968.666666667 956 1008 c 0
EndSplineSet
EndChar

StartChar: Q
Encoding: 81 81 31
Width: 1540
GlyphClass: 2
Flags: HW
LayerCount: 2
Back
Fore
SplineSet
1182 852 m 0
 1182 918 1173.66666667 977.5 1157 1030.5 c 128
 1140.33333333 1083.5 1118.5 1128.66666667 1091.5 1166 c 128
 1064.5 1203.33333333 1033.83333333 1232 999.5 1252 c 128
 965.166666667 1272 930.333333333 1282 895 1282 c 0
 853.666666667 1282 813 1272.16666667 773 1252.5 c 128
 733 1232.83333333 695 1205.5 659 1170.5 c 128
 623 1135.5 589.833333333 1094 559.5 1046 c 128
 529.166666667 998 502.833333333 945.833333333 480.5 889.5 c 128
 458.166666667 833.166666667 440.833333333 773.666666667 428.5 711 c 128
 416.166666667 648.333333333 410 584.666666667 410 520 c 0
 410 454.666666667 418.333333333 395.5 435 342.5 c 128
 451.666666667 289.5 473.833333333 244.333333333 501.5 207 c 128
 529.166666667 169.666666667 561.166666667 140.833333333 597.5 120.5 c 128
 633.833333333 100.166666667 671.666666667 90 711 90 c 256
 750.333333333 90 789.333333333 100.333333333 828 121 c 128
 866.666666667 141.666666667 903.5 170.166666667 938.5 206.5 c 128
 973.5 242.833333333 1005.83333333 285.5 1035.5 334.5 c 128
 1065.16666667 383.5 1090.83333333 436.333333333 1112.5 493 c 128
 1134.16666667 549.666666667 1151.16666667 608.5 1163.5 669.5 c 128
 1175.83333333 730.5 1182 791.333333333 1182 852 c 0
1565 -221 m 1
 1555.66666667 -225.666666667 1537.33333333 -233.833333333 1510 -245.5 c 128
 1482.66666667 -257.166666667 1450.66666667 -269.166666667 1414 -281.5 c 128
 1377.33333333 -293.833333333 1338 -304.666666667 1296 -314 c 128
 1254 -323.333333333 1214 -328 1176 -328 c 0
 1112.66666667 -328 1058.5 -319.833333333 1013.5 -303.5 c 128
 968.5 -287.166666667 930 -265.5 898 -238.5 c 128
 866 -211.5 839.166666667 -180.166666667 817.5 -144.5 c 128
 795.833333333 -108.833333333 776 -71.6666666667 758 -33 c 1
 748.666666667 -34.3333333333 738.5 -35.3333333333 727.5 -36 c 128
 716.5 -36.6666666667 704.666666667 -37 692 -37 c 0
 603.333333333 -37 522.333333333 -23.8333333333 449 2.5 c 128
 375.666666667 28.8333333333 312.666666667 66.6666666667 260 116 c 128
 207.333333333 165.333333333 166.5 224.833333333 137.5 294.5 c 128
 108.5 364.166666667 94 442.666666667 94 530 c 0
 94 598 102.166666667 667 118.5 737 c 128
 134.833333333 807 159 874.5 191 939.5 c 128
 223 1004.5 262.166666667 1065.33333333 308.5 1122 c 128
 354.833333333 1178.66666667 408 1228.16666667 468 1270.5 c 128
 528 1312.83333333 594.5 1346.16666667 667.5 1370.5 c 128
 740.5 1394.83333333 819.666666667 1407 905 1407 c 0
 1002.33333333 1407 1088 1392.33333333 1162 1363 c 128
 1236 1333.66666667 1298 1293.66666667 1348 1243 c 128
 1398 1192.33333333 1435.66666667 1133.5 1461 1066.5 c 128
 1486.33333333 999.5 1499 928 1499 852 c 0
 1499 816 1496.83333333 776 1492.5 732 c 128
 1488.16666667 688 1479.83333333 642.166666667 1467.5 594.5 c 128
 1455.16666667 546.833333333 1438.5 498.166666667 1417.5 448.5 c 128
 1396.5 398.833333333 1369.5 350.166666667 1336.5 302.5 c 128
 1303.5 254.833333333 1263.5 209 1216.5 165 c 128
 1169.5 121 1114.33333333 81 1051 45 c 1
 1070.33333333 10.3333333333 1087.33333333 -21.3333333333 1102 -50 c 128
 1116.66666667 -78.6666666667 1132.33333333 -103.166666667 1149 -123.5 c 128
 1165.66666667 -143.833333333 1184.66666667 -159.666666667 1206 -171 c 128
 1227.33333333 -182.333333333 1254 -188 1286 -188 c 0
 1304 -188 1322.33333333 -185.833333333 1341 -181.5 c 128
 1359.66666667 -177.166666667 1380 -171 1402 -163 c 128
 1424 -155 1448.16666667 -145 1474.5 -133 c 128
 1500.83333333 -121 1531 -107.333333333 1565 -92 c 1
 1565 -221 l 1
EndSplineSet
EndChar

StartChar: R
Encoding: 82 82 32
Width: 1399
GlyphClass: 2
Flags: HW
LayerCount: 2
Back
Fore
SplineSet
1346 6 m 1
 1314.66666667 -7.33333333333 1284 -17.1666666667 1254 -23.5 c 128
 1224 -29.8333333333 1190.33333333 -33 1153 -33 c 0
 1089.66666667 -33 1037.66666667 -25.6666666667 997 -11 c 128
 956.333333333 3.66666666667 923 25.1666666667 897 53.5 c 128
 871 81.8333333333 850.666666667 116.666666667 836 158 c 128
 821.333333333 199.333333333 808.333333333 247 797 301 c 0
 792.333333333 321 787.5 342.166666667 782.5 364.5 c 128
 777.5 386.833333333 771.5 409 764.5 431 c 128
 757.5 453 749.166666667 474 739.5 494 c 128
 729.833333333 514 717.833333333 531.833333333 703.5 547.5 c 128
 689.166666667 563.166666667 672.5 575.5 653.5 584.5 c 128
 634.5 593.5 612 598 586 598 c 0
 577.333333333 598 567 597.666666667 555 597 c 128
 543 596.333333333 531.333333333 596 520 596 c 1
 434 143 l 2
 432 131.666666667 433.666666667 124.166666667 439 120.5 c 128
 444.333333333 116.833333333 453.666666667 114.333333333 467 113 c 0
 479 111.666666667 492 110.333333333 506 109 c 0
 517.333333333 107.666666667 530.666666667 106.5 546 105.5 c 128
 561.333333333 104.5 576.666666667 103.333333333 592 102 c 1
 592 0 l 1
 -27 0 l 1
 -27 102 l 1
 -11.6666666667 103.333333333 3.16666666667 104.333333333 17.5 105 c 128
 31.8333333333 105.666666667 44.6666666667 106.666666667 56 108 c 0
 69.3333333333 109.333333333 82 110.333333333 94 111 c 0
 106.666666667 112.333333333 116.833333333 115 124.5 119 c 128
 132.166666667 123 137.666666667 131.666666667 141 145 c 1
 350 1231 l 1
 353.333333333 1242.33333333 351.666666667 1250 345 1254 c 128
 338.333333333 1258 328.333333333 1260.66666667 315 1262 c 0
 302.333333333 1262.66666667 289.666666667 1263.66666667 277 1265 c 0
 265.666666667 1266.33333333 253 1267.5 239 1268.5 c 128
 225 1269.5 211 1270.66666667 197 1272 c 1
 197 1374 l 1
 788 1374 l 2
 856.666666667 1374 920.666666667 1368.66666667 980 1358 c 128
 1039.33333333 1347.33333333 1091 1329.83333333 1135 1305.5 c 128
 1179 1281.16666667 1213.5 1249.5 1238.5 1210.5 c 128
 1263.5 1171.5 1276 1123.66666667 1276 1067 c 0
 1276 1013 1265.5 964.166666667 1244.5 920.5 c 128
 1223.5 876.833333333 1194.66666667 837.666666667 1158 803 c 128
 1121.33333333 768.333333333 1078 738.166666667 1028 712.5 c 128
 978 686.833333333 924 665.666666667 866 649 c 1
 905.333333333 631 937 611.166666667 961 589.5 c 128
 985 567.833333333 1004.33333333 543.5 1019 516.5 c 128
 1033.66666667 489.5 1045.5 459.833333333 1054.5 427.5 c 128
 1063.5 395.166666667 1073 360 1083 322 c 0
 1092.33333333 286 1101.5 254.333333333 1110.5 227 c 128
 1119.5 199.666666667 1132.83333333 176.666666667 1150.5 158 c 128
 1168.16666667 139.333333333 1192.16666667 125.333333333 1222.5 116 c 128
 1252.83333333 106.666666667 1294 102 1346 102 c 1
 1346 6 l 1
958 1036 m 0
 958 1069.33333333 953 1098 943 1122 c 128
 933 1146 920.166666667 1166.16666667 904.5 1182.5 c 128
 888.833333333 1198.83333333 871.333333333 1212 852 1222 c 128
 832.666666667 1232 813.333333333 1239.5 794 1244.5 c 128
 774.666666667 1249.5 756.5 1252.66666667 739.5 1254 c 128
 722.5 1255.33333333 708.666666667 1255.66666667 698 1255 c 2
 647 1251 l 1
 547 721 l 1
 561 721 l 2
 567 721 572.666666667 721.333333333 578 722 c 1
 584.666666667 722 591.333333333 722.333333333 598 723 c 0
 624 723.666666667 651 726.666666667 679 732 c 128
 707 737.333333333 734.333333333 745 761 755 c 128
 787.666666667 765 812.833333333 778 836.5 794 c 128
 860.166666667 810 881 829.5 899 852.5 c 128
 917 875.5 931.333333333 902.166666667 942 932.5 c 128
 952.666666667 962.833333333 958 997.333333333 958 1036 c 0
EndSplineSet
EndChar

StartChar: S
Encoding: 83 83 33
Width: 1153
GlyphClass: 2
Flags: HW
LayerCount: 2
Back
Fore
SplineSet
1069 1006 m 1
 913 1006 l 1
 922 1219 l 2
 922 1222.33333333 915.666666667 1227.66666667 903 1235 c 128
 890.333333333 1242.33333333 874.333333333 1249.83333333 855 1257.5 c 128
 835.666666667 1265.16666667 814.833333333 1271.83333333 792.5 1277.5 c 128
 770.166666667 1283.16666667 749.666666667 1286 731 1286 c 0
 704.333333333 1286 675.666666667 1280 645 1268 c 128
 614.333333333 1256 585.833333333 1238.66666667 559.5 1216 c 128
 533.166666667 1193.33333333 511.166666667 1165.66666667 493.5 1133 c 128
 475.833333333 1100.33333333 467 1063.33333333 467 1022 c 0
 467 986 476.833333333 954.5 496.5 927.5 c 128
 516.166666667 900.5 540.5 876.833333333 569.5 856.5 c 128
 598.5 836.166666667 629.5 818.166666667 662.5 802.5 c 128
 695.5 786.833333333 725.333333333 772.666666667 752 760 c 1
 788.666666667 741.333333333 824.5 721.666666667 859.5 701 c 128
 894.5 680.333333333 925.5 657 952.5 631 c 128
 979.5 605 1001.16666667 575.166666667 1017.5 541.5 c 128
 1033.83333333 507.833333333 1042 468.666666667 1042 424 c 0
 1042 392.666666667 1037.66666667 359.833333333 1029 325.5 c 128
 1020.33333333 291.166666667 1006.33333333 257 987 223 c 128
 967.666666667 189 942.333333333 156.5 911 125.5 c 128
 879.666666667 94.5 841.166666667 67.3333333333 795.5 44 c 128
 749.833333333 20.6666666667 696.5 2 635.5 -12 c 128
 574.5 -26 504.666666667 -33 426 -33 c 0
 370 -33 317.5 -28.1666666667 268.5 -18.5 c 128
 219.5 -8.83333333333 175.833333333 2.5 137.5 15.5 c 128
 99.1666666667 28.5 67.3333333333 41.3333333333 42 54 c 128
 16.6666666667 66.6666666667 -0.666666666667 76 -10 82 c 1
 61 418 l 1
 236 418 l 1
 213 174 l 2
 212.333333333 170 221.333333333 163.5 240 154.5 c 128
 258.666666667 145.5 281 136.5 307 127.5 c 128
 333 118.5 359.833333333 110.666666667 387.5 104 c 128
 415.166666667 97.3333333333 437.666666667 94 455 94 c 0
 485.666666667 94 518 99.8333333333 552 111.5 c 128
 586 123.166666667 617.166666667 140.833333333 645.5 164.5 c 128
 673.833333333 188.166666667 697.166666667 217.833333333 715.5 253.5 c 128
 733.833333333 289.166666667 743 331 743 379 c 0
 743 412.333333333 732.833333333 442 712.5 468 c 128
 692.166666667 494 667.5 517.166666667 638.5 537.5 c 128
 609.5 557.833333333 578.5 576 545.5 592 c 128
 512.5 608 483.666666667 622.333333333 459 635 c 0
 422.333333333 653.666666667 386.833333333 673.166666667 352.5 693.5 c 128
 318.166666667 713.833333333 287.666666667 736.5 261 761.5 c 128
 234.333333333 786.5 212.833333333 814.666666667 196.5 846 c 128
 180.166666667 877.333333333 172 913.333333333 172 954 c 0
 172 1020 185.166666667 1080.66666667 211.5 1136 c 128
 237.833333333 1191.33333333 275.833333333 1239 325.5 1279 c 128
 375.166666667 1319 435.5 1350.33333333 506.5 1373 c 128
 577.5 1395.66666667 658 1407 748 1407 c 0
 794 1407 836.333333333 1404.5 875 1399.5 c 128
 913.666666667 1394.5 949.166666667 1388 981.5 1380 c 128
 1013.83333333 1372 1043 1363.16666667 1069 1353.5 c 128
 1095 1343.83333333 1118.33333333 1334.33333333 1139 1325 c 1
 1069 1006 l 1
EndSplineSet
EndChar

StartChar: T
Encoding: 84 84 34
Width: 1286
GlyphClass: 2
Flags: HW
LayerCount: 2
Back
Fore
SplineSet
1343 1016 m 1
 1184 1016 l 1
 1194 1235 l 2
 1194.66666667 1243.66666667 1189.83333333 1250.33333333 1179.5 1255 c 128
 1169.16666667 1259.66666667 1159 1262 1149 1262 c 2
 926 1262 l 1
 715 143 l 2
 713 131 715.833333333 123.333333333 723.5 120 c 128
 731.166666667 116.666666667 741.333333333 114.333333333 754 113 c 0
 766 112.333333333 778.666666667 111.333333333 792 110 c 0
 803.333333333 108.666666667 816 107.333333333 830 106 c 2
 872 102 l 1
 872 0 l 1
 254 0 l 1
 254 102 l 1
 267.333333333 103.333333333 280.5 104.333333333 293.5 105 c 128
 306.5 105.666666667 318.666666667 106.666666667 330 108 c 0
 342.666666667 109.333333333 355 110.333333333 367 111 c 0
 381 112.333333333 393.166666667 115 403.5 119 c 128
 413.833333333 123 420 131.666666667 422 145 c 2
 633 1262 l 1
 422 1262 l 2
 417.333333333 1262 412 1261.33333333 406 1260 c 128
 400 1258.66666667 394.166666667 1256.66666667 388.5 1254 c 128
 382.833333333 1251.33333333 377.833333333 1248.33333333 373.5 1245 c 128
 369.166666667 1241.66666667 366.333333333 1237.66666667 365 1233 c 2
 287 1016 l 1
 127 1016 l 1
 197 1374 l 1
 1417 1374 l 1
 1343 1016 l 1
EndSplineSet
EndChar

StartChar: U
Encoding: 85 85 35
Width: 1534
GlyphClass: 2
Flags: HW
LayerCount: 2
Back
Fore
SplineSet
1485 1262 m 2
 1475.66666667 1260.66666667 1468.33333333 1257.16666667 1463 1251.5 c 128
 1457.66666667 1245.83333333 1454 1238.33333333 1452 1229 c 2
 1294 440 l 2
 1280 368.666666667 1257.83333333 304 1227.5 246 c 128
 1197.16666667 188 1157.16666667 138.333333333 1107.5 97 c 128
 1057.83333333 55.6666666667 997.666666667 23.6666666667 927 1 c 128
 856.333333333 -21.6666666667 774 -33 680 -33 c 0
 604 -33 535.666666667 -25.8333333333 475 -11.5 c 128
 414.333333333 2.83333333333 362.833333333 24.8333333333 320.5 54.5 c 128
 278.166666667 84.1666666667 245.5 122 222.5 168 c 128
 199.5 214 188 268.666666667 188 332 c 0
 188 351.333333333 190.166666667 379.833333333 194.5 417.5 c 128
 198.833333333 455.166666667 205.666666667 497 215 543 c 2
 358 1231 l 2
 360 1243 357.333333333 1250.83333333 350 1254.5 c 128
 342.666666667 1258.16666667 331.666666667 1260.66666667 317 1262 c 0
 305.666666667 1262.66666667 293.666666667 1263.66666667 281 1265 c 0
 269.666666667 1266.33333333 257.166666667 1267.5 243.5 1268.5 c 128
 229.833333333 1269.5 216.333333333 1270.66666667 203 1272 c 1
 203 1374 l 1
 821 1374 l 1
 821 1272 l 1
 805 1270.66666667 789.5 1269.5 774.5 1268.5 c 128
 759.5 1267.5 746 1266.33333333 734 1265 c 0
 720 1263.66666667 706.666666667 1262.66666667 694 1262 c 1
 682 1260.66666667 672.333333333 1257.83333333 665 1253.5 c 128
 657.666666667 1249.16666667 653 1241 651 1229 c 2
 510 543 l 2
 502 503.666666667 496.166666667 468.333333333 492.5 437 c 128
 488.833333333 405.666666667 487 380.666666667 487 362 c 0
 487 318.666666667 494 281.666666667 508 251 c 128
 522 220.333333333 540.5 195.333333333 563.5 176 c 128
 586.5 156.666666667 612.833333333 142.666666667 642.5 134 c 128
 672.166666667 125.333333333 702.333333333 121 733 121 c 0
 786.333333333 121 832.5 130.833333333 871.5 150.5 c 128
 910.5 170.166666667 943.666666667 197.333333333 971 232 c 128
 998.333333333 266.666666667 1021 308 1039 356 c 128
 1057 404 1071.66666667 456 1083 512 c 2
 1227 1231 l 2
 1229 1243 1227.16666667 1250.83333333 1221.5 1254.5 c 128
 1215.83333333 1258.16666667 1204.66666667 1260.66666667 1188 1262 c 0
 1175.33333333 1262.66666667 1162.66666667 1263.66666667 1150 1265 c 0
 1138.66666667 1266.33333333 1126 1267.5 1112 1268.5 c 128
 1098 1269.5 1084.33333333 1270.66666667 1071 1272 c 1
 1071 1374 l 1
 1620 1374 l 1
 1620 1272 l 1
 1485 1262 l 2
EndSplineSet
EndChar

StartChar: V
Encoding: 86 86 36
Width: 1403
GlyphClass: 2
Flags: HW
LayerCount: 2
Back
Fore
SplineSet
1440 1260 m 1
 733 -33 l 1
 498 -33 l 1
 297 1235 l 2
 295 1248.33333333 289.5 1256.83333333 280.5 1260.5 c 128
 271.5 1264.16666667 261.333333333 1266 250 1266 c 0
 241.333333333 1266 232.333333333 1266.33333333 223 1267 c 0
 215 1267.66666667 206.333333333 1268.16666667 197 1268.5 c 128
 187.666666667 1268.83333333 178.666666667 1269.33333333 170 1270 c 1
 170 1374 l 1
 721 1374 l 1
 721 1270 l 1
 709.666666667 1269.33333333 698.833333333 1268.83333333 688.5 1268.5 c 128
 678.166666667 1268.16666667 668.333333333 1268 659 1268 c 2
 629 1268 l 2
 617.666666667 1268 608.166666667 1266 600.5 1262 c 128
 592.833333333 1258 590 1249.66666667 592 1237 c 2
 725 383 l 1
 1180 1237 l 1
 1182.66666667 1243.66666667 1183.5 1249 1182.5 1253 c 128
 1181.5 1257 1179.33333333 1260 1176 1262 c 128
 1172.66666667 1264 1168.66666667 1265.33333333 1164 1266 c 128
 1159.33333333 1266.66666667 1155 1267.33333333 1151 1268 c 1
 1118 1268 l 2
 1108 1268 1096.83333333 1268.16666667 1084.5 1268.5 c 128
 1072.16666667 1268.83333333 1060.33333333 1269.33333333 1049 1270 c 1
 1049 1374 l 1
 1552 1374 l 1
 1552 1272 l 1
 1440 1260 l 1
EndSplineSet
EndChar

StartChar: W
Encoding: 87 87 37
Width: 1985
GlyphClass: 2
Flags: HW
LayerCount: 2
Back
Fore
SplineSet
2009 1260 m 1
 1393 -33 l 1
 1184 -33 l 1
 1079 907 l 1
 633 -33 l 1
 410 -33 l 1
 305 1235 l 2
 303.666666667 1248.33333333 299.5 1256.5 292.5 1259.5 c 128
 285.5 1262.5 273.333333333 1264.66666667 256 1266 c 0
 247.333333333 1266 238 1266.33333333 228 1267 c 0
 219.333333333 1267.66666667 209.833333333 1268.16666667 199.5 1268.5 c 128
 189.166666667 1268.83333333 179.333333333 1269.33333333 170 1270 c 1
 170 1374 l 1
 729 1374 l 1
 729 1270 l 1
 717 1269.33333333 705.166666667 1268.83333333 693.5 1268.5 c 128
 681.833333333 1268.16666667 671.333333333 1267.66666667 662 1267 c 0
 650.666666667 1266.33333333 640.333333333 1266 631 1266 c 0
 622.333333333 1266 614.333333333 1264.33333333 607 1261 c 128
 599.666666667 1257.66666667 596.666666667 1249.66666667 598 1237 c 2
 657 514 l 1
 1069 1374 l 1
 1315 1374 l 1
 1405 496 l 1
 1751 1237 l 2
 1753.66666667 1243.66666667 1754.66666667 1249 1754 1253 c 128
 1753.33333333 1257 1751.16666667 1260 1747.5 1262 c 128
 1743.83333333 1264 1739 1265.33333333 1733 1266 c 128
 1727 1266.66666667 1720 1267.33333333 1712 1268 c 1
 1681 1268 l 2
 1671.66666667 1268 1661.66666667 1268.16666667 1651 1268.5 c 128
 1640.33333333 1268.83333333 1630 1269.33333333 1620 1270 c 1
 1620 1374 l 1
 2134 1374 l 1
 2134 1272 l 1
 2009 1260 l 1
EndSplineSet
EndChar

StartChar: X
Encoding: 88 88 38
Width: 1382
GlyphClass: 2
Flags: HW
LayerCount: 2
Back
Fore
SplineSet
1348 1262 m 2
 1333.33333333 1260.66666667 1322.5 1257.16666667 1315.5 1251.5 c 128
 1308.5 1245.83333333 1303.33333333 1241 1300 1237 c 2
 852 735 l 1
 1120 135 l 1
 1125.33333333 125 1130.83333333 118.833333333 1136.5 116.5 c 128
 1142.16666667 114.166666667 1149 112.333333333 1157 111 c 1
 1168.33333333 110.333333333 1180 109.666666667 1192 109 c 0
 1202.66666667 108.333333333 1214.83333333 107.333333333 1228.5 106 c 128
 1242.16666667 104.666666667 1256.66666667 103.333333333 1272 102 c 1
 1272 0 l 1
 657 0 l 1
 657 102 l 1
 670.333333333 103.333333333 684 104.333333333 698 105 c 128
 712 105.666666667 724.666666667 106.666666667 736 108 c 0
 748.666666667 109.333333333 761.333333333 110.333333333 774 111 c 0
 782 111.666666667 789.166666667 112.333333333 795.5 113 c 128
 801.833333333 113.666666667 807.166666667 115 811.5 117 c 128
 815.833333333 119 818.5 121.833333333 819.5 125.5 c 128
 820.5 129.166666667 819.666666667 134.333333333 817 141 c 2
 659 502 l 1
 330 141 l 2
 324.666666667 135.666666667 322.833333333 129.666666667 324.5 123 c 128
 326.166666667 116.333333333 332.666666667 112.333333333 344 111 c 2
 473 102 l 1
 473 0 l 1
 -90 0 l 1
 -90 102 l 1
 -80.6666666667 103.333333333 -70.8333333333 104.333333333 -60.5 105 c 128
 -50.1666666667 105.666666667 -41 106.666666667 -33 108 c 0
 -23.6666666667 109.333333333 -14.6666666667 110.333333333 -6 111 c 256
 2.66666666667 111.666666667 10 112.166666667 16 112.5 c 128
 22 112.833333333 27.3333333333 113.833333333 32 115.5 c 128
 36.6666666667 117.166666667 41 119.5 45 122.5 c 128
 49 125.5 53.6666666667 129.666666667 59 135 c 2
 567 696 l 1
 322 1239 l 2
 316.666666667 1250.33333333 310.833333333 1257 304.5 1259 c 128
 298.166666667 1261 287.333333333 1262.66666667 272 1264 c 1
 261.333333333 1264 250.333333333 1264.66666667 239 1266 c 0
 229.666666667 1266.66666667 218.833333333 1267.5 206.5 1268.5 c 128
 194.166666667 1269.5 182 1270.66666667 170 1272 c 1
 170 1374 l 1
 788 1374 l 1
 788 1272 l 1
 771.333333333 1270.66666667 755.166666667 1269.5 739.5 1268.5 c 128
 723.833333333 1267.5 709.333333333 1266.66666667 696 1266 c 0
 680.666666667 1265.33333333 666.333333333 1264.66666667 653 1264 c 0
 643.666666667 1264 635.333333333 1261.83333333 628 1257.5 c 128
 620.666666667 1253.16666667 619.666666667 1245 625 1233 c 2
 764 920 l 1
 1044 1233 l 2
 1049.33333333 1238.33333333 1052.66666667 1244.16666667 1054 1250.5 c 128
 1055.33333333 1256.83333333 1049.33333333 1260.66666667 1036 1262 c 2
 926 1272 l 1
 926 1374 l 1
 1475 1374 l 1
 1475 1272 l 1
 1348 1262 l 2
EndSplineSet
EndChar

StartChar: Y
Encoding: 89 89 39
Width: 1395
GlyphClass: 2
Flags: HW
LayerCount: 2
Back
Fore
SplineSet
1411 1262 m 1
 1403.66666667 1260.66666667 1396.5 1257.16666667 1389.5 1251.5 c 128
 1382.5 1245.83333333 1377.33333333 1241 1374 1237 c 2
 854 575 l 1
 768 143 l 1
 764.666666667 131 766.333333333 123.333333333 773 120 c 128
 779.666666667 116.666666667 790.333333333 114.333333333 805 113 c 0
 817 112.333333333 829.333333333 111.333333333 842 110 c 0
 853.333333333 108.666666667 865.833333333 107.333333333 879.5 106 c 128
 893.166666667 104.666666667 907.333333333 103.333333333 922 102 c 1
 922 0 l 1
 303 0 l 1
 303 102 l 1
 316.333333333 103.333333333 330 104.666666667 344 106 c 128
 358 107.333333333 370.666666667 108.666666667 382 110 c 0
 394.666666667 111.333333333 407.333333333 112.333333333 420 113 c 0
 433.333333333 114.333333333 444.333333333 116.666666667 453 120 c 128
 461.666666667 123.333333333 467.666666667 131.666666667 471 145 c 2
 555 559 l 1
 326 1239 l 2
 322.666666667 1250.33333333 316.333333333 1257 307 1259 c 128
 297.666666667 1261 286.666666667 1262.66666667 274 1264 c 1
 264 1264 253 1264.66666667 241 1266 c 0
 231 1266.66666667 219.833333333 1267.5 207.5 1268.5 c 128
 195.166666667 1269.5 183.333333333 1270.66666667 172 1272 c 1
 172 1374 l 1
 788 1374 l 1
 788 1272 l 1
 772.666666667 1270.66666667 757.5 1269.5 742.5 1268.5 c 128
 727.5 1267.5 714 1266.66666667 702 1266 c 0
 688 1264.66666667 674.666666667 1264 662 1264 c 0
 650.666666667 1264 641 1261.83333333 633 1257.5 c 128
 625 1253.16666667 623.666666667 1244.33333333 629 1231 c 1
 770 786 l 1
 1108 1233 l 2
 1112 1238.33333333 1112.66666667 1244.5 1110 1251.5 c 128
 1107.33333333 1258.5 1098.33333333 1262.66666667 1083 1264 c 2
 963 1272 l 1
 963 1374 l 1
 1542 1374 l 1
 1542 1272 l 1
 1411 1262 l 1
EndSplineSet
EndChar

StartChar: Z
Encoding: 90 90 40
Width: 1237
GlyphClass: 2
Flags: HW
LayerCount: 2
Back
Fore
SplineSet
1286 1272 m 1
 332 127 l 1
 836 127 l 2
 846 127 857.166666667 129.833333333 869.5 135.5 c 128
 881.833333333 141.166666667 889.666666667 148.666666667 893 158 c 1
 967 424 l 1
 1139 424 l 1
 1057 0 l 1
 -43 0 l 1
 -23 100 l 1
 928 1247 l 1
 502 1247 l 2
 491.333333333 1247 479.833333333 1244.83333333 467.5 1240.5 c 128
 455.166666667 1236.16666667 447.333333333 1229 444 1219 c 2
 379 1001 l 1
 207 1001 l 1
 281 1374 l 1
 1307 1374 l 1
 1286 1272 l 1
EndSplineSet
EndChar

StartChar: bracketleft
Encoding: 91 91 41
Width: 918
GlyphClass: 2
Flags: HW
LayerCount: 2
Back
Fore
SplineSet
995 1327 m 1
 682 1327 l 1
 387 -152 l 1
 702 -152 l 1
 678 -270 l 1
 111 -270 l 1
 451 1450 l 1
 1020 1450 l 1
 995 1327 l 1
EndSplineSet
EndChar

StartChar: backslash
Encoding: 92 92 42
Width: 1012
GlyphClass: 2
Flags: HW
LayerCount: 2
Back
Fore
SplineSet
852 -190 m 1
 0 1374 l 1
 160 1374 l 1
 1012 -190 l 1
 852 -190 l 1
EndSplineSet
EndChar

StartChar: bracketright
Encoding: 93 93 43
Width: 918
GlyphClass: 2
Flags: HW
LayerCount: 2
Back
Fore
SplineSet
485 -270 m 1
 -84 -270 l 1
 -59 -152 l 1
 256 -152 l 1
 549 1327 l 1
 233 1327 l 1
 258 1450 l 1
 825 1450 l 1
 485 -270 l 1
EndSplineSet
EndChar

StartChar: asciicircum
Encoding: 94 94 44
Width: 696
GlyphClass: 2
Flags: HW
LayerCount: 2
Back
Fore
SplineSet
641 1128 m 1
 504 1323 l 1
 287 1128 l 1
 117 1128 l 1
 414 1479 l 1
 655 1479 l 1
 813 1128 l 1
 641 1128 l 1
EndSplineSet
EndChar

StartChar: underscore
Encoding: 95 95 45
Width: 700
GlyphClass: 2
Flags: HW
LayerCount: 2
Back
Fore
SplineSet
537 -340 m 1
 -163 -340 l 1
 -130 -175 l 1
 570 -175 l 1
 537 -340 l 1
EndSplineSet
EndChar

StartChar: grave
Encoding: 96 96 46
Width: 868
GlyphClass: 2
Flags: HW
LayerCount: 2
Back
Fore
SplineSet
557 1128 m 1
 225 1309 l 2
 217.666666667 1313 211 1318.5 205 1325.5 c 128
 199 1332.5 193.666666667 1340 189 1348 c 128
 184.333333333 1356 180.666666667 1364.16666667 178 1372.5 c 128
 175.333333333 1380.83333333 174 1388.33333333 174 1395 c 0
 174 1407 176 1419.5 180 1432.5 c 128
 184 1445.5 190.5 1457.16666667 199.5 1467.5 c 128
 208.5 1477.83333333 220.5 1486.33333333 235.5 1493 c 128
 250.5 1499.66666667 269 1503 291 1503 c 0
 305 1503 317.333333333 1502 328 1500 c 128
 338.666666667 1498 348.833333333 1494.5 358.5 1489.5 c 128
 368.166666667 1484.5 377.833333333 1477.83333333 387.5 1469.5 c 128
 397.166666667 1461.16666667 408 1450.66666667 420 1438 c 2
 700 1128 l 1
 557 1128 l 1
EndSplineSet
EndChar

StartChar: a
Encoding: 97 97 47
Width: 1163
GlyphClass: 2
Flags: HW
LayerCount: 2
Back
Fore
SplineSet
768 807 m 0
 768.666666667 809.666666667 768.5 816.333333333 767.5 827 c 128
 766.5 837.666666667 764.5 848.833333333 761.5 860.5 c 128
 758.5 872.166666667 754.833333333 882.5 750.5 891.5 c 128
 746.166666667 900.5 741 905 735 905 c 0
 691 905 651.166666667 897 615.5 881 c 128
 579.833333333 865 547.833333333 843.333333333 519.5 816 c 128
 491.166666667 788.666666667 466.666666667 757 446 721 c 128
 425.333333333 685 408.166666667 646.833333333 394.5 606.5 c 128
 380.833333333 566.166666667 370.666666667 525 364 483 c 128
 357.333333333 441 354 400.666666667 354 362 c 0
 354 334.666666667 354.5 307.333333333 355.5 280 c 128
 356.5 252.666666667 360.5 227.666666667 367.5 205 c 128
 374.5 182.333333333 386.166666667 164 402.5 150 c 128
 418.833333333 136 442.333333333 129 473 129 c 0
 495 129 515.833333333 134 535.5 144 c 128
 555.166666667 154 573.166666667 165.5 589.5 178.5 c 128
 605.833333333 191.5 620.166666667 204.666666667 632.5 218 c 128
 644.833333333 231.333333333 654.666666667 241.333333333 662 248 c 1
 666.666666667 275.333333333 670.5 296.5 673.5 311.5 c 128
 676.5 326.5 679.166666667 340.833333333 681.5 354.5 c 128
 683.833333333 368.166666667 686.666666667 383.666666667 690 401 c 128
 693.333333333 418.333333333 698.166666667 443.166666667 704.5 475.5 c 128
 710.833333333 507.833333333 719 550.166666667 729 602.5 c 128
 739 654.833333333 752 723 768 807 c 0
1157 61 m 1
 1133.66666667 51.6666666667 1109.16666667 42 1083.5 32 c 128
 1057.83333333 22 1031.66666667 12.8333333333 1005 4.5 c 128
 978.333333333 -3.83333333333 951.666666667 -10.8333333333 925 -16.5 c 128
 898.333333333 -22.1666666667 872 -25 846 -25 c 0
 802.666666667 -25 766.5 -17 737.5 -1 c 128
 708.5 15 687.333333333 38 674 68 c 1
 656 56 636.666666667 44.3333333333 616 33 c 128
 595.333333333 21.6666666667 573.666666667 11.8333333333 551 3.5 c 128
 528.333333333 -4.83333333333 505 -11.6666666667 481 -17 c 128
 457 -22.3333333333 432.666666667 -25 408 -25 c 0
 366 -25 328.333333333 -19.3333333333 295 -8 c 128
 261.666666667 3.33333333333 232.333333333 18.6666666667 207 38 c 128
 181.666666667 57.3333333333 160.166666667 79.6666666667 142.5 105 c 128
 124.833333333 130.333333333 110.333333333 156.833333333 99 184.5 c 128
 87.6666666667 212.166666667 79.3333333333 240.333333333 74 269 c 128
 68.6666666667 297.666666667 66 324.666666667 66 350 c 0
 66 400.666666667 71.5 452.5 82.5 505.5 c 128
 93.5 558.5 110.5 610 133.5 660 c 128
 156.5 710 185.333333333 757.166666667 220 801.5 c 128
 254.666666667 845.833333333 295.666666667 884.5 343 917.5 c 128
 390.333333333 950.5 444.166666667 976.5 504.5 995.5 c 128
 564.833333333 1014.5 631.666666667 1024 705 1024 c 0
 735 1024 764.833333333 1020 794.5 1012 c 128
 824.166666667 1004 850.666666667 993.666666667 874 981 c 1
 889 999 l 1
 1108 999 l 1
 1104.66666667 989 1100.33333333 977.666666667 1095 965 c 128
 1089.66666667 952.333333333 1084.33333333 940 1079 928 c 128
 1073.66666667 916 1068.83333333 905.166666667 1064.5 895.5 c 128
 1060.16666667 885.833333333 1057.66666667 878.666666667 1057 874 c 2
 924 199 l 1
 924 183.666666667 924.5 170.666666667 925.5 160 c 128
 926.5 149.333333333 929 140.833333333 933 134.5 c 128
 937 128.166666667 942.666666667 123.666666667 950 121 c 128
 957.333333333 118.333333333 967 117 979 117 c 0
 981.666666667 117 991.5 119 1008.5 123 c 128
 1025.5 127 1044.16666667 131.666666667 1064.5 137 c 128
 1084.83333333 142.333333333 1104 147.166666667 1122 151.5 c 128
 1140 155.833333333 1151.66666667 158.666666667 1157 160 c 1
 1157 61 l 1
EndSplineSet
EndChar

StartChar: b
Encoding: 98 98 48
Width: 1090
GlyphClass: 2
Flags: HW
LayerCount: 2
Back
Fore
SplineSet
741 629 m 0
 741 671.666666667 737.666666667 708.166666667 731 738.5 c 128
 724.333333333 768.833333333 715.833333333 793.666666667 705.5 813 c 128
 695.166666667 832.333333333 683.833333333 846.333333333 671.5 855 c 128
 659.166666667 863.666666667 647 868 635 868 c 0
 606.333333333 868 574.5 859 539.5 841 c 128
 504.5 823 471.333333333 800.666666667 440 774 c 1
 326 162 l 1
 336.666666667 144.666666667 352.166666667 128.333333333 372.5 113 c 128
 392.833333333 97.6666666667 419 90 451 90 c 0
 473.666666667 90 496.5 97.5 519.5 112.5 c 128
 542.5 127.5 564.666666667 147.833333333 586 173.5 c 128
 607.333333333 199.166666667 627.5 229.333333333 646.5 264 c 128
 665.5 298.666666667 682 336 696 376 c 128
 710 416 721 457.666666667 729 501 c 128
 737 544.333333333 741 587 741 629 c 0
1026 637 m 0
 1026 596.333333333 1021.66666667 551.666666667 1013 503 c 128
 1004.33333333 454.333333333 990 405.5 970 356.5 c 128
 950 307.5 924.166666667 260.166666667 892.5 214.5 c 128
 860.833333333 168.833333333 822.166666667 128.166666667 776.5 92.5 c 128
 730.833333333 56.8333333333 677.5 28.3333333333 616.5 7 c 128
 555.5 -14.3333333333 486 -25 408 -25 c 0
 333.333333333 -25 265.166666667 -15.8333333333 203.5 2.5 c 128
 141.833333333 20.8333333333 86.3333333333 46 37 78 c 1
 276 1354 l 1
 96 1370 l 1
 96 1444 l 1
 442 1509 l 1
 582 1509 l 1
 475 958 l 1
 512.333333333 977.333333333 550.5 993.166666667 589.5 1005.5 c 128
 628.5 1017.83333333 666 1024 702 1024 c 0
 756.666666667 1024 804.333333333 1011.83333333 845 987.5 c 128
 885.666666667 963.166666667 919.5 932.333333333 946.5 895 c 128
 973.5 857.666666667 993.5 816 1006.5 770 c 128
 1019.5 724 1026 679.666666667 1026 637 c 0
EndSplineSet
EndChar

StartChar: c
Encoding: 99 99 49
Width: 985
GlyphClass: 2
Flags: HW
LayerCount: 2
Back
Fore
SplineSet
922 872 m 0
 922 860 919 845 913 827 c 128
 907 809 896.5 791.666666667 881.5 775 c 128
 866.5 758.333333333 846.333333333 744.166666667 821 732.5 c 128
 795.666666667 720.833333333 763.666666667 715 725 715 c 1
 612 874 l 1
 573.333333333 865.333333333 540 849.333333333 512 826 c 128
 484 802.666666667 460.333333333 775.333333333 441 744 c 128
 421.666666667 712.666666667 405.833333333 679 393.5 643 c 128
 381.166666667 607 371.666666667 572.333333333 365 539 c 128
 358.333333333 505.666666667 353.833333333 475.5 351.5 448.5 c 128
 349.166666667 421.5 348 401 348 387 c 0
 348 355.666666667 349.333333333 324.5 352 293.5 c 128
 354.666666667 262.5 360.833333333 234.666666667 370.5 210 c 128
 380.166666667 185.333333333 394.5 165.333333333 413.5 150 c 128
 432.5 134.666666667 458.666666667 127 492 127 c 0
 517.333333333 127 543 130.666666667 569 138 c 128
 595 145.333333333 623.166666667 159 653.5 179 c 128
 683.833333333 199 717.166666667 226.5 753.5 261.5 c 128
 789.833333333 296.5 831 341.666666667 877 397 c 1
 877 193 l 1
 849 159.666666667 819 129.666666667 787 103 c 128
 755 76.3333333333 720.5 53.5 683.5 34.5 c 128
 646.5 15.5 606.833333333 0.833333333333 564.5 -9.5 c 128
 522.166666667 -19.8333333333 476.666666667 -25 428 -25 c 0
 365.333333333 -25 311.333333333 -15.6666666667 266 3 c 128
 220.666666667 21.6666666667 183.333333333 48 154 82 c 128
 124.666666667 116 103 157 89 205 c 128
 75 253 68 306.333333333 68 365 c 0
 68 453.666666667 81.8333333333 537.833333333 109.5 617.5 c 128
 137.166666667 697.166666667 177.5 767.166666667 230.5 827.5 c 128
 283.5 887.833333333 348.166666667 935.666666667 424.5 971 c 128
 500.833333333 1006.33333333 588 1024 686 1024 c 0
 726.666666667 1024 761.833333333 1019.16666667 791.5 1009.5 c 128
 821.166666667 999.833333333 845.666666667 987.5 865 972.5 c 128
 884.333333333 957.5 898.666666667 941.166666667 908 923.5 c 128
 917.333333333 905.833333333 922 888.666666667 922 872 c 0
EndSplineSet
EndChar

StartChar: d
Encoding: 100 100 50
Width: 1159
GlyphClass: 2
Flags: HW
LayerCount: 2
Back
Fore
SplineSet
770 807 m 2
 770.666666667 809.666666667 768.666666667 816.333333333 764 827 c 128
 759.333333333 837.666666667 753 849 745 861 c 128
 737 873 727.5 883.666666667 716.5 893 c 128
 705.5 902.333333333 694 907 682 907 c 0
 646 907 608.5 893.666666667 569.5 867 c 128
 530.5 840.333333333 494.5 802.833333333 461.5 754.5 c 128
 428.5 706.166666667 401.333333333 648.333333333 380 581 c 128
 358.666666667 513.666666667 348 439.333333333 348 358 c 0
 348 275.333333333 358 215.166666667 378 177.5 c 128
 398 139.833333333 427 121 465 121 c 0
 482.333333333 121 499.833333333 125.333333333 517.5 134 c 128
 535.166666667 142.666666667 552.833333333 154.333333333 570.5 169 c 128
 588.166666667 183.666666667 605.833333333 200.166666667 623.5 218.5 c 128
 641.166666667 236.833333333 658.666666667 256 676 276 c 1
 770 807 l 2
932 184 m 2
 928.666666667 167.333333333 927.833333333 153.5 929.5 142.5 c 128
 931.166666667 131.5 933.833333333 122.833333333 937.5 116.5 c 128
 941.166666667 110.166666667 945.666666667 105.833333333 951 103.5 c 128
 956.333333333 101.166666667 961 100 965 100 c 0
 979 100 994.666666667 102.166666667 1012 106.5 c 128
 1029.33333333 110.833333333 1046.83333333 116.166666667 1064.5 122.5 c 128
 1082.16666667 128.833333333 1098.83333333 135.5 1114.5 142.5 c 128
 1130.16666667 149.5 1143.66666667 156 1155 162 c 1
 1155 61 l 1
 1137.66666667 51 1116.66666667 40.8333333333 1092 30.5 c 128
 1067.33333333 20.1666666667 1041 10.8333333333 1013 2.5 c 128
 985 -5.83333333333 956.5 -12.5 927.5 -17.5 c 128
 898.5 -22.5 870.666666667 -25 844 -25 c 0
 792 -25 751 -16.3333333333 721 1 c 128
 691 18.3333333333 670.333333333 42.6666666667 659 74 c 1
 641 60 621.5 47 600.5 35 c 128
 579.5 23 557.833333333 12.5 535.5 3.5 c 128
 513.166666667 -5.5 490.666666667 -12.5 468 -17.5 c 128
 445.333333333 -22.5 423 -25 401 -25 c 0
 341.666666667 -25 290.833333333 -14 248.5 8 c 128
 206.166666667 30 171.5 58.8333333333 144.5 94.5 c 128
 117.5 130.166666667 97.6666666667 170 85 214 c 128
 72.3333333333 258 66 302 66 346 c 0
 66 398 71.6666666667 451 83 505 c 128
 94.3333333333 559 111.5 611 134.5 661 c 128
 157.5 711 186.166666667 758.166666667 220.5 802.5 c 128
 254.833333333 846.833333333 295 885.333333333 341 918 c 128
 387 950.666666667 438.833333333 976.5 496.5 995.5 c 128
 554.166666667 1014.5 617.333333333 1024 686 1024 c 0
 711.333333333 1024 734.166666667 1021 754.5 1015 c 128
 774.833333333 1009 791.666666667 1003.66666667 805 999 c 1
 866 1354 l 1
 682 1370 l 1
 682 1444 l 1
 1028 1509 l 1
 1167 1509 l 1
 932 184 l 2
EndSplineSet
EndChar

StartChar: e
Encoding: 101 101 51
Width: 983
GlyphClass: 2
Flags: HW
LayerCount: 2
Back
Fore
SplineSet
682 811 m 0
 682 823 681.166666667 834.833333333 679.5 846.5 c 128
 677.833333333 858.166666667 674.5 868.666666667 669.5 878 c 128
 664.5 887.333333333 657.166666667 894.833333333 647.5 900.5 c 128
 637.833333333 906.166666667 625.333333333 909 610 909 c 0
 578 909 549.5 897.666666667 524.5 875 c 128
 499.5 852.333333333 477.333333333 823.5 458 788.5 c 128
 438.666666667 753.5 422 715.166666667 408 673.5 c 128
 394 631.833333333 382.333333333 592.333333333 373 555 c 1
 408.333333333 563 444.333333333 575 481 591 c 128
 517.666666667 607 550.833333333 626.166666667 580.5 648.5 c 128
 610.166666667 670.833333333 634.5 695.666666667 653.5 723 c 128
 672.5 750.333333333 682 779.666666667 682 811 c 0
948 809 m 0
 948 773 939.833333333 739.666666667 923.5 709 c 128
 907.166666667 678.333333333 884.666666667 650.333333333 856 625 c 128
 827.333333333 599.666666667 793.833333333 576.833333333 755.5 556.5 c 128
 717.166666667 536.166666667 676.166666667 518.666666667 632.5 504 c 128
 588.833333333 489.333333333 543.5 477.5 496.5 468.5 c 128
 449.5 459.5 403.333333333 453 358 449 c 1
 356.666666667 436.333333333 355.333333333 422 354 406 c 128
 352.666666667 390 352 376.333333333 352 365 c 0
 352 329.666666667 354.666666667 297 360 267 c 128
 365.333333333 237 374 211 386 189 c 128
 398 167 413.833333333 149.833333333 433.5 137.5 c 128
 453.166666667 125.166666667 477.333333333 119 506 119 c 0
 528 119 550.333333333 123.333333333 573 132 c 128
 595.666666667 140.666666667 622 155.166666667 652 175.5 c 128
 682 195.833333333 717 222.666666667 757 256 c 128
 797 289.333333333 845 330.333333333 901 379 c 1
 901 184 l 1
 881 164.666666667 855 142.833333333 823 118.5 c 128
 791 94.1666666667 754.666666667 71.3333333333 714 50 c 128
 673.333333333 28.6666666667 629.666666667 10.8333333333 583 -3.5 c 128
 536.333333333 -17.8333333333 488 -25 438 -25 c 0
 393.333333333 -25 349 -19.3333333333 305 -8 c 128
 261 3.33333333333 221.5 23.3333333333 186.5 52 c 128
 151.5 80.6666666667 123 119.5 101 168.5 c 128
 79 217.5 68 280 68 356 c 0
 68 408 74.5 460.666666667 87.5 514 c 128
 100.5 567.333333333 119 618.666666667 143 668 c 128
 167 717.333333333 196.333333333 763.666666667 231 807 c 128
 265.666666667 850.333333333 304.833333333 888 348.5 920 c 128
 392.166666667 952 440 977.333333333 492 996 c 128
 544 1014.66666667 599 1024 657 1024 c 0
 707 1024 750.333333333 1015.66666667 787 999 c 128
 823.666666667 982.333333333 854 962.5 878 939.5 c 128
 902 916.5 919.666666667 892.833333333 931 868.5 c 128
 942.333333333 844.166666667 948 824.333333333 948 809 c 0
EndSplineSet
EndChar

StartChar: f
Encoding: 102 102 52
Width: 741
GlyphClass: 2
Flags: HW
LayerCount: 2
Back
Fore
SplineSet
987 1372 m 0
 987 1356.66666667 984.666666667 1341.5 980 1326.5 c 128
 975.333333333 1311.5 966.5 1297.66666667 953.5 1285 c 128
 940.5 1272.33333333 922.5 1261 899.5 1251 c 128
 876.5 1241 847 1233.66666667 811 1229 c 1
 684 1350 l 1
 656 1325.33333333 633.5 1294.66666667 616.5 1258 c 128
 599.5 1221.33333333 586 1183.5 576 1144.5 c 128
 566 1105.5 558.666666667 1067.83333333 554 1031.5 c 128
 549.333333333 995.166666667 545 964.666666667 541 940 c 1
 791 940 l 1
 791 819 l 1
 520 819 l 1
 517.333333333 799.666666667 513.333333333 770.833333333 508 732.5 c 128
 502.666666667 694.166666667 496.5 650.5 489.5 601.5 c 128
 482.5 552.5 474.833333333 500.666666667 466.5 446 c 128
 458.166666667 391.333333333 450 338.666666667 442 288 c 128
 434 237.333333333 426.333333333 190.833333333 419 148.5 c 128
 411.666666667 106.166666667 405 73 399 49 c 0
 390.333333333 13 378 -24.8333333333 362 -64.5 c 128
 346 -104.166666667 326.666666667 -143.166666667 304 -181.5 c 128
 281.333333333 -219.833333333 255.833333333 -256.333333333 227.5 -291 c 128
 199.166666667 -325.666666667 168.166666667 -356.166666667 134.5 -382.5 c 128
 100.833333333 -408.833333333 64.6666666667 -429.833333333 26 -445.5 c 128
 -12.6666666667 -461.166666667 -53.3333333333 -469 -96 -469 c 0
 -125.333333333 -469 -150.666666667 -463.833333333 -172 -453.5 c 128
 -193.333333333 -443.166666667 -211 -430.666666667 -225 -416 c 128
 -239 -401.333333333 -249.333333333 -385.666666667 -256 -369 c 128
 -262.666666667 -352.333333333 -266 -338 -266 -326 c 0
 -266 -298.666666667 -257.333333333 -271.333333333 -240 -244 c 128
 -222.666666667 -216.666666667 -200 -193.333333333 -172 -174 c 1
 12 -291 l 1
 28 -268.333333333 42.6666666667 -241.833333333 56 -211.5 c 128
 69.3333333333 -181.166666667 81.5 -147.833333333 92.5 -111.5 c 128
 103.5 -75.1666666667 113.833333333 -36.5 123.5 4.5 c 128
 133.166666667 45.5 142 87.6666666667 150 131 c 0
 167.333333333 225.666666667 182.833333333 330.333333333 196.5 445 c 128
 210.166666667 559.666666667 226.666666667 682.333333333 246 813 c 1
 90 797 l 1
 94 893 l 1
 270 954 l 1
 276.666666667 988 285.666666667 1025.16666667 297 1065.5 c 128
 308.333333333 1105.83333333 323 1146.66666667 341 1188 c 128
 359 1229.33333333 380.333333333 1269.16666667 405 1307.5 c 128
 429.666666667 1345.83333333 459 1380 493 1410 c 128
 527 1440 565.833333333 1464 609.5 1482 c 128
 653.166666667 1500 702.666666667 1509 758 1509 c 0
 796 1509 829.166666667 1504.33333333 857.5 1495 c 128
 885.833333333 1485.66666667 909.666666667 1474.16666667 929 1460.5 c 128
 948.333333333 1446.83333333 962.833333333 1432 972.5 1416 c 128
 982.166666667 1400 987 1385.33333333 987 1372 c 0
EndSplineSet
EndChar

StartChar: g
Encoding: 103 103 53
Width: 995
GlyphClass: 2
Flags: HW
LayerCount: 2
Back
Fore
SplineSet
666 -170 m 0
 666 -146.666666667 658.666666667 -124.666666667 644 -104 c 128
 629.333333333 -83.3333333333 603 -64.3333333333 565 -47 c 1
 336 53 l 1
 313.333333333 44.3333333333 294.333333333 33.6666666667 279 21 c 128
 263.666666667 8.33333333333 251.166666667 -5.83333333333 241.5 -21.5 c 128
 231.833333333 -37.1666666667 225 -54 221 -72 c 128
 217 -90 215 -108.333333333 215 -127 c 0
 215 -149 218.333333333 -173.166666667 225 -199.5 c 128
 231.666666667 -225.833333333 243.166666667 -250.5 259.5 -273.5 c 128
 275.833333333 -296.5 297.833333333 -315.666666667 325.5 -331 c 128
 353.166666667 -346.333333333 388 -354 430 -354 c 0
 476.666666667 -354 515.166666667 -347.333333333 545.5 -334 c 128
 575.833333333 -320.666666667 600 -304.5 618 -285.5 c 128
 636 -266.5 648.5 -246.5 655.5 -225.5 c 128
 662.5 -204.5 666 -186 666 -170 c 0
643 737 m 0
 643 761 642.666666667 784 642 806 c 128
 641.333333333 828 638.5 847.333333333 633.5 864 c 128
 628.5 880.666666667 620.666666667 893.833333333 610 903.5 c 128
 599.333333333 913.166666667 584.333333333 918 565 918 c 0
 553.666666667 918 537.833333333 910 517.5 894 c 128
 497.166666667 878 477 855.333333333 457 826 c 128
 437 796.666666667 419.666666667 761.5 405 720.5 c 128
 390.333333333 679.5 383 634 383 584 c 0
 383 560 383.833333333 538.166666667 385.5 518.5 c 128
 387.166666667 498.833333333 390.5 481.833333333 395.5 467.5 c 128
 400.5 453.166666667 408 442 418 434 c 128
 428 426 441.666666667 422 459 422 c 0
 493 422 521.666666667 432.5 545 453.5 c 128
 568.333333333 474.5 587.166666667 500.833333333 601.5 532.5 c 128
 615.833333333 564.166666667 626.333333333 598.333333333 633 635 c 128
 639.666666667 671.666666667 643 705.666666667 643 737 c 0
903 854 m 1
 909 838.666666667 914.333333333 819.833333333 919 797.5 c 128
 923.666666667 775.166666667 926 751.666666667 926 727 c 0
 926 676.333333333 916.166666667 627 896.5 579 c 128
 876.833333333 531 847.833333333 488.333333333 809.5 451 c 128
 771.166666667 413.666666667 723.666666667 383.666666667 667 361 c 128
 610.333333333 338.333333333 545 326.666666667 471 326 c 1
 463.666666667 306.666666667 458.333333333 287.166666667 455 267.5 c 128
 451.666666667 247.833333333 451 232.333333333 453 221 c 1
 725 98 l 1
 757.666666667 84 787.333333333 69.8333333333 814 55.5 c 128
 840.666666667 41.1666666667 863.5 25.3333333333 882.5 8 c 128
 901.5 -9.33333333333 916.166666667 -29 926.5 -51 c 128
 936.833333333 -73 942 -99 942 -129 c 0
 942 -172.333333333 927 -214.333333333 897 -255 c 128
 867 -295.666666667 826.333333333 -331.833333333 775 -363.5 c 128
 723.666666667 -395.166666667 663.833333333 -420.666666667 595.5 -440 c 128
 527.166666667 -459.333333333 454.333333333 -469 377 -469 c 0
 295.666666667 -469 227.166666667 -459.833333333 171.5 -441.5 c 128
 115.833333333 -423.166666667 70.5 -399.5 35.5 -370.5 c 128
 0.5 -341.5 -24.6666666667 -308.666666667 -40 -272 c 128
 -55.3333333333 -235.333333333 -63 -198.666666667 -63 -162 c 0
 -63 -127.333333333 -56 -95.3333333333 -42 -66 c 128
 -28 -36.6666666667 -8.66666666667 -10 16 14 c 128
 40.6666666667 38 69.6666666667 59.1666666667 103 77.5 c 128
 136.333333333 95.8333333333 172.333333333 111.666666667 211 125 c 1
 208.333333333 141 208.5 159.166666667 211.5 179.5 c 128
 214.5 199.833333333 219.5 220.5 226.5 241.5 c 128
 233.5 262.5 242.333333333 282.666666667 253 302 c 128
 263.666666667 321.333333333 275.666666667 338 289 352 c 1
 261.666666667 364.666666667 236.5 379.166666667 213.5 395.5 c 128
 190.5 411.833333333 170.5 430.333333333 153.5 451 c 128
 136.5 471.666666667 123.333333333 495 114 521 c 128
 104.666666667 547 100 576 100 608 c 256
 100 640 104 672.5 112 705.5 c 128
 120 738.5 132.333333333 770.333333333 149 801 c 128
 165.666666667 831.666666667 186.5 860.5 211.5 887.5 c 128
 236.5 914.5 266.166666667 938.166666667 300.5 958.5 c 128
 334.833333333 978.833333333 373.666666667 994.833333333 417 1006.5 c 128
 460.333333333 1018.16666667 508.333333333 1024 561 1024 c 0
 587 1024 611.833333333 1022.16666667 635.5 1018.5 c 128
 659.166666667 1014.83333333 681 1010.16666667 701 1004.5 c 128
 721 998.833333333 738.833333333 993.166666667 754.5 987.5 c 128
 770.166666667 981.833333333 783 977 793 973 c 1
 1092 973 l 1
 1092 854 l 1
 903 854 l 1
EndSplineSet
EndChar

StartChar: h
Encoding: 104 104 54
Width: 1157
GlyphClass: 2
Flags: HW
LayerCount: 2
Back
Fore
SplineSet
1153 57 m 1
 1101.66666667 32.3333333333 1049.83333333 12.5 997.5 -2.5 c 128
 945.166666667 -17.5 892 -25 838 -25 c 0
 814 -25 789.5 -22.5 764.5 -17.5 c 128
 739.5 -12.5 717.333333333 -4.33333333333 698 7 c 128
 678.666666667 18.3333333333 664 33.1666666667 654 51.5 c 128
 644 69.8333333333 641.666666667 92.3333333333 647 119 c 2
 770 715 l 2
 775.333333333 739.666666667 776.5 761.5 773.5 780.5 c 128
 770.5 799.5 765.333333333 815.5 758 828.5 c 128
 750.666666667 841.5 741.666666667 851.333333333 731 858 c 128
 720.333333333 864.666666667 710 868 700 868 c 0
 684.666666667 868 667.333333333 864.166666667 648 856.5 c 128
 628.666666667 848.833333333 608.333333333 838.166666667 587 824.5 c 128
 565.666666667 810.833333333 543.833333333 794.833333333 521.5 776.5 c 128
 499.166666667 758.166666667 477.666666667 738.333333333 457 717 c 1
 307 0 l 1
 35 0 l 1
 317 1354 l 1
 137 1370 l 1
 137 1444 l 1
 483 1509 l 1
 625 1509 l 1
 502 930 l 1
 543.333333333 955.333333333 590.333333333 977.333333333 643 996 c 128
 695.666666667 1014.66666667 752.333333333 1024 813 1024 c 0
 864.333333333 1024 907 1017 941 1003 c 128
 975 989 1001.5 969.333333333 1020.5 944 c 128
 1039.5 918.666666667 1051.16666667 888.166666667 1055.5 852.5 c 128
 1059.83333333 816.833333333 1057.66666667 777.666666667 1049 735 c 2
 934 193 l 2
 930.666666667 175.666666667 930.166666667 161.333333333 932.5 150 c 128
 934.833333333 138.666666667 938.666666667 129.333333333 944 122 c 128
 949.333333333 114.666666667 955.333333333 109.5 962 106.5 c 128
 968.666666667 103.5 975 102 981 102 c 0
 1011 102 1039.16666667 107.333333333 1065.5 118 c 128
 1091.83333333 128.666666667 1120.33333333 142.666666667 1151 160 c 1
 1153 57 l 1
EndSplineSet
EndChar

StartChar: i
Encoding: 105 105 55
Width: 635
GlyphClass: 2
Flags: HW
LayerCount: 2
Back
Fore
SplineSet
631 66 m 1
 569.666666667 32.6666666667 511.333333333 9.16666666667 456 -4.5 c 128
 400.666666667 -18.1666666667 343.666666667 -25 285 -25 c 0
 247.666666667 -25 216.166666667 -18.6666666667 190.5 -6 c 128
 164.833333333 6.66666666667 144.666666667 23 130 43 c 128
 115.333333333 63 105.666666667 85.5 101 110.5 c 128
 96.3333333333 135.5 96.6666666667 160.666666667 102 186 c 2
 231 866 l 1
 55 885 l 1
 55 956 l 1
 393 1024 l 1
 537 1024 l 1
 379 203 l 2
 376.333333333 191 374.666666667 179.333333333 374 168 c 128
 373.333333333 156.666666667 374.166666667 146.666666667 376.5 138 c 128
 378.833333333 129.333333333 383.333333333 122.333333333 390 117 c 128
 396.666666667 111.666666667 406 109 418 109 c 0
 423.333333333 109 433.833333333 110.666666667 449.5 114 c 128
 465.166666667 117.333333333 483.333333333 122 504 128 c 128
 524.666666667 134 546.166666667 141.333333333 568.5 150 c 128
 590.833333333 158.666666667 611.666666667 168 631 178 c 1
 631 66 l 1
604 1358 m 256
 604 1336 599.833333333 1315.33333333 591.5 1296 c 128
 583.166666667 1276.66666667 571.666666667 1259.66666667 557 1245 c 128
 542.333333333 1230.33333333 525.333333333 1218.83333333 506 1210.5 c 128
 486.666666667 1202.16666667 466 1198 444 1198 c 256
 422 1198 401.5 1202.16666667 382.5 1210.5 c 128
 363.5 1218.83333333 346.833333333 1230.33333333 332.5 1245 c 128
 318.166666667 1259.66666667 307 1276.66666667 299 1296 c 128
 291 1315.33333333 287 1336 287 1358 c 256
 287 1380 291 1400.66666667 299 1420 c 128
 307 1439.33333333 318.166666667 1456 332.5 1470 c 128
 346.833333333 1484 363.5 1495.16666667 382.5 1503.5 c 128
 401.5 1511.83333333 422 1516 444 1516 c 256
 466 1516 486.666666667 1511.83333333 506 1503.5 c 128
 525.333333333 1495.16666667 542.333333333 1484 557 1470 c 128
 571.666666667 1456 583.166666667 1439.33333333 591.5 1420 c 128
 599.833333333 1400.66666667 604 1380 604 1358 c 256
EndSplineSet
EndChar

StartChar: j
Encoding: 106 106 56
Width: 651
GlyphClass: 2
Flags: HW
LayerCount: 2
Back
Fore
SplineSet
418 172 m 2
 412 137.333333333 401.833333333 97.5 387.5 52.5 c 128
 373.166666667 7.5 355.166666667 -38.6666666667 333.5 -86 c 128
 311.833333333 -133.333333333 286.666666667 -180 258 -226 c 128
 229.333333333 -272 197.333333333 -313 162 -349 c 128
 126.666666667 -385 88.3333333333 -414 47 -436 c 128
 5.66666666667 -458 -38.6666666667 -469 -86 -469 c 0
 -110 -469 -132.833333333 -466 -154.5 -460 c 128
 -176.166666667 -454 -195 -445.666666667 -211 -435 c 128
 -227 -424.333333333 -239.833333333 -411.833333333 -249.5 -397.5 c 128
 -259.166666667 -383.166666667 -264 -367.333333333 -264 -350 c 0
 -264 -337.333333333 -261.833333333 -325.833333333 -257.5 -315.5 c 128
 -253.166666667 -305.166666667 -247.166666667 -295.666666667 -239.5 -287 c 128
 -231.833333333 -278.333333333 -223 -270.166666667 -213 -262.5 c 128
 -203 -254.833333333 -192 -247.333333333 -180 -240 c 1
 14 -291 l 1
 23.3333333333 -276.333333333 32.8333333333 -258.333333333 42.5 -237 c 128
 52.1666666667 -215.666666667 61.5 -192.5 70.5 -167.5 c 128
 79.5 -142.5 87.6666666667 -116.666666667 95 -90 c 128
 102.333333333 -63.3333333333 108.333333333 -37.3333333333 113 -12 c 2
 264 864 l 1
 88 883 l 1
 88 956 l 1
 428 1024 l 1
 563 1024 l 1
 418 172 l 2
637 1358 m 256
 637 1336 632.666666667 1315.33333333 624 1296 c 128
 615.333333333 1276.66666667 603.666666667 1259.66666667 589 1245 c 128
 574.333333333 1230.33333333 557.166666667 1218.83333333 537.5 1210.5 c 128
 517.833333333 1202.16666667 497 1198 475 1198 c 256
 453 1198 432.333333333 1202.16666667 413 1210.5 c 128
 393.666666667 1218.83333333 377 1230.33333333 363 1245 c 128
 349 1259.66666667 337.833333333 1276.66666667 329.5 1296 c 128
 321.166666667 1315.33333333 317 1336 317 1358 c 256
 317 1380 321.166666667 1400.66666667 329.5 1420 c 128
 337.833333333 1439.33333333 349 1456 363 1470 c 128
 377 1484 393.666666667 1495.16666667 413 1503.5 c 128
 432.333333333 1511.83333333 453 1516 475 1516 c 256
 497 1516 517.833333333 1511.83333333 537.5 1503.5 c 128
 557.166666667 1495.16666667 574.333333333 1484 589 1470 c 128
 603.666666667 1456 615.333333333 1439.33333333 624 1420 c 128
 632.666666667 1400.66666667 637 1380 637 1358 c 256
EndSplineSet
EndChar

StartChar: k
Encoding: 107 107 57
Width: 1126
GlyphClass: 2
Flags: HW
LayerCount: 2
Back
Fore
SplineSet
1102 53 m 1
 1084.66666667 44.3333333333 1064 35.3333333333 1040 26 c 128
 1016 16.6666666667 990.666666667 8.33333333333 964 1 c 128
 937.333333333 -6.33333333333 910.333333333 -12.5 883 -17.5 c 128
 855.666666667 -22.5 830.333333333 -25 807 -25 c 0
 788.333333333 -25 769.333333333 -21.6666666667 750 -15 c 128
 730.666666667 -8.33333333333 712 0.333333333333 694 11 c 128
 676 21.6666666667 659.5 33.6666666667 644.5 47 c 128
 629.5 60.3333333333 617.333333333 74 608 88 c 0
 596.666666667 105.333333333 583.166666667 129.333333333 567.5 160 c 128
 551.833333333 190.666666667 535.666666667 223.5 519 258.5 c 128
 502.333333333 293.5 485.833333333 328.666666667 469.5 364 c 128
 453.166666667 399.333333333 438.666666667 431 426 459 c 1
 383 420 l 1
 297 0 l 1
 25 0 l 1
 299 1354 l 1
 119 1370 l 1
 119 1444 l 1
 465 1509 l 1
 604 1509 l 1
 432 668 l 1
 662 903 l 1
 704 947 743.666666667 978.166666667 781 996.5 c 128
 818.333333333 1014.83333333 857 1024 897 1024 c 0
 921.666666667 1024 944.666666667 1020.5 966 1013.5 c 128
 987.333333333 1006.5 1005.83333333 997.166666667 1021.5 985.5 c 128
 1037.16666667 973.833333333 1049.33333333 961 1058 947 c 128
 1066.66666667 933 1071 919 1071 905 c 0
 1071 893 1069.5 878.333333333 1066.5 861 c 128
 1063.5 843.666666667 1056.33333333 825.833333333 1045 807.5 c 128
 1033.66666667 789.166666667 1016.66666667 771.166666667 994 753.5 c 128
 971.333333333 735.833333333 940.333333333 720.333333333 901 707 c 1
 819 840 l 1
 803 826 785.666666667 810.166666667 767 792.5 c 128
 748.333333333 774.833333333 729.833333333 757.166666667 711.5 739.5 c 128
 693.166666667 721.833333333 675.5 704.833333333 658.5 688.5 c 128
 641.5 672.166666667 626.666666667 658.333333333 614 647 c 1
 623.333333333 629.666666667 633.5 607.666666667 644.5 581 c 128
 655.5 554.333333333 667.166666667 525.666666667 679.5 495 c 128
 691.833333333 464.333333333 704.833333333 433 718.5 401 c 128
 732.166666667 369 746.666666667 339 762 311 c 0
 776.666666667 284.333333333 790.666666667 258.666666667 804 234 c 128
 817.333333333 209.333333333 830.666666667 187.333333333 844 168 c 128
 857.333333333 148.666666667 871.333333333 133.166666667 886 121.5 c 128
 900.666666667 109.833333333 916.666666667 104 934 104 c 0
 935.333333333 104 949.166666667 107.833333333 975.5 115.5 c 128
 1001.83333333 123.166666667 1044 138.666666667 1102 162 c 1
 1102 53 l 1
EndSplineSet
EndChar

StartChar: l
Encoding: 108 108 58
Width: 627
GlyphClass: 2
Flags: HW
LayerCount: 2
Back
Fore
SplineSet
623 59 m 1
 573 33.6666666667 519.166666667 13.3333333333 461.5 -2 c 128
 403.833333333 -17.3333333333 348.333333333 -25 295 -25 c 0
 227 -25 174.166666667 -10.8333333333 136.5 17.5 c 128
 98.8333333333 45.8333333333 80 83.6666666667 80 131 c 0
 80 142.333333333 80.5 154.166666667 81.5 166.5 c 128
 82.5 178.833333333 84.6666666667 191.666666667 88 205 c 1
 311 1354 l 1
 131 1370 l 1
 131 1444 l 1
 477 1509 l 1
 612 1509 l 1
 360 209 l 2
 358 197 357.166666667 185.166666667 357.5 173.5 c 128
 357.833333333 161.833333333 360 151.166666667 364 141.5 c 128
 368 131.833333333 374 124 382 118 c 128
 390 112 400.666666667 109 414 109 c 0
 430 109 456.666666667 113.833333333 494 123.5 c 128
 531.333333333 133.166666667 574.333333333 148.666666667 623 170 c 1
 623 59 l 1
EndSplineSet
EndChar

StartChar: m
Encoding: 109 109 59
Width: 1692
GlyphClass: 2
Flags: HW
LayerCount: 2
Back
Fore
SplineSet
1686 59 m 1
 1634 32.3333333333 1583.83333333 11.6666666667 1535.5 -3 c 128
 1487.16666667 -17.6666666667 1436.66666667 -25 1384 -25 c 0
 1352.66666667 -25 1323.5 -21.8333333333 1296.5 -15.5 c 128
 1269.5 -9.16666666667 1246.33333333 0.5 1227 13.5 c 128
 1207.66666667 26.5 1193.33333333 42.3333333333 1184 61 c 128
 1174.66666667 79.6666666667 1172.66666667 101.666666667 1178 127 c 2
 1290 672 l 1
 1317.33333333 800 1304.33333333 864 1251 864 c 0
 1221 864 1192.83333333 857.5 1166.5 844.5 c 128
 1140.16666667 831.5 1116.83333333 816 1096.5 798 c 128
 1076.16666667 780 1058.66666667 761.666666667 1044 743 c 128
 1029.33333333 724.333333333 1018.66666667 709.333333333 1012 698 c 1
 864 0 l 1
 594 0 l 1
 735 674 l 2
 739 694 742.833333333 715.166666667 746.5 737.5 c 128
 750.166666667 759.833333333 751.166666667 780.333333333 749.5 799 c 128
 747.833333333 817.666666667 742.333333333 833.166666667 733 845.5 c 128
 723.666666667 857.833333333 708 864 686 864 c 0
 664.666666667 864 643 858.166666667 621 846.5 c 128
 599 834.833333333 578 820.333333333 558 803 c 128
 538 785.666666667 519.166666667 767.166666667 501.5 747.5 c 128
 483.833333333 727.833333333 468.333333333 710 455 694 c 1
 309 0 l 1
 37 0 l 1
 217 870 l 1
 45 887 l 1
 45 956 l 1
 383 1024 l 1
 524 1024 l 1
 500 907 l 1
 549.333333333 941 600 969 652 991 c 128
 704 1013 753.666666667 1024 801 1024 c 0
 829 1024 854.166666667 1020 876.5 1012 c 128
 898.833333333 1004 918.666666667 993.5 936 980.5 c 128
 953.333333333 967.5 968 952.666666667 980 936 c 128
 992 919.333333333 1002 902.333333333 1010 885 c 1
 1036.66666667 905 1065 923.5 1095 940.5 c 128
 1125 957.5 1155.33333333 972.166666667 1186 984.5 c 128
 1216.66666667 996.833333333 1247 1006.5 1277 1013.5 c 128
 1307 1020.5 1335.33333333 1024 1362 1024 c 0
 1398 1024 1431.33333333 1017.66666667 1462 1005 c 128
 1492.66666667 992.333333333 1518.33333333 974.333333333 1539 951 c 128
 1559.66666667 927.666666667 1574 899.5 1582 866.5 c 128
 1590 833.5 1589.66666667 796.666666667 1581 756 c 2
 1464 205 l 2
 1458 175.666666667 1458.66666667 151.166666667 1466 131.5 c 128
 1473.33333333 111.833333333 1490 102 1516 102 c 0
 1522.66666667 102 1532.66666667 103.333333333 1546 106 c 128
 1559.33333333 108.666666667 1574 112.333333333 1590 117 c 128
 1606 121.666666667 1622.33333333 127.166666667 1639 133.5 c 128
 1655.66666667 139.833333333 1671.33333333 146.666666667 1686 154 c 1
 1686 59 l 1
EndSplineSet
EndChar

StartChar: n
Encoding: 110 110 60
Width: 1184
GlyphClass: 2
Flags: HW
LayerCount: 2
Back
Fore
SplineSet
1176 47 m 1
 1158 38.3333333333 1135.66666667 29.6666666667 1109 21 c 128
 1082.33333333 12.3333333333 1054.16666667 4.66666666667 1024.5 -2 c 128
 994.833333333 -8.66666666667 965.166666667 -14.1666666667 935.5 -18.5 c 128
 905.833333333 -22.8333333333 879.333333333 -25 856 -25 c 0
 833.333333333 -25 808.833333333 -23.3333333333 782.5 -20 c 128
 756.166666667 -16.6666666667 732.166666667 -10.3333333333 710.5 -1 c 128
 688.833333333 8.33333333333 671.833333333 21.3333333333 659.5 38 c 128
 647.166666667 54.6666666667 643.666666667 76.6666666667 649 104 c 2
 774 729 l 2
 779.333333333 753.666666667 781.833333333 774.5 781.5 791.5 c 128
 781.166666667 808.5 778.5 822.333333333 773.5 833 c 128
 768.5 843.666666667 761.833333333 851.166666667 753.5 855.5 c 128
 745.166666667 859.833333333 735.666666667 862 725 862 c 0
 709 862 690.666666667 857.333333333 670 848 c 128
 649.333333333 838.666666667 627.5 826.333333333 604.5 811 c 128
 581.5 795.666666667 558.166666667 777.833333333 534.5 757.5 c 128
 510.833333333 737.166666667 488.333333333 716 467 694 c 1
 322 0 l 1
 49 0 l 1
 229 870 l 1
 57 887 l 1
 57 956 l 1
 393 1024 l 1
 535 1024 l 1
 510 905 l 1
 534.666666667 921.666666667 560.833333333 937.333333333 588.5 952 c 128
 616.166666667 966.666666667 644.166666667 979.333333333 672.5 990 c 128
 700.833333333 1000.66666667 729.166666667 1009 757.5 1015 c 128
 785.833333333 1021 813.333333333 1024 840 1024 c 0
 890.666666667 1024 932.5 1018.16666667 965.5 1006.5 c 128
 998.5 994.833333333 1023.5 977.666666667 1040.5 955 c 128
 1057.5 932.333333333 1067.5 904.333333333 1070.5 871 c 128
 1073.5 837.666666667 1071 799.333333333 1063 756 c 2
 952 180 l 2
 948.666666667 163.333333333 948.5 149.833333333 951.5 139.5 c 128
 954.5 129.166666667 958.833333333 121 964.5 115 c 128
 970.166666667 109 976.333333333 105 983 103 c 128
 989.666666667 101 995.666666667 100 1001 100 c 0
 1022.33333333 100 1048.33333333 104.166666667 1079 112.5 c 128
 1109.66666667 120.833333333 1140.33333333 131.666666667 1171 145 c 1
 1176 47 l 1
EndSplineSet
EndChar

StartChar: o
Encoding: 111 111 61
Width: 1133
GlyphClass: 2
Flags: HW
LayerCount: 2
Back
Fore
SplineSet
774 629 m 0
 774 679 769 722 759 758 c 128
 749 794 736.833333333 823.666666667 722.5 847 c 128
 708.166666667 870.333333333 692.833333333 887.5 676.5 898.5 c 128
 660.166666667 909.5 645.666666667 915 633 915 c 0
 612.333333333 915 591.166666667 908.166666667 569.5 894.5 c 128
 547.833333333 880.833333333 526.833333333 861.833333333 506.5 837.5 c 128
 486.166666667 813.166666667 467 784.166666667 449 750.5 c 128
 431 716.833333333 415.166666667 680.166666667 401.5 640.5 c 128
 387.833333333 600.833333333 377.166666667 558.833333333 369.5 514.5 c 128
 361.833333333 470.166666667 358 425 358 379 c 0
 358 326.333333333 363.166666667 281.5 373.5 244.5 c 128
 383.833333333 207.5 396.5 177.5 411.5 154.5 c 128
 426.5 131.5 442 114.666666667 458 104 c 128
 474 93.3333333333 488 88 500 88 c 0
 536 88 570.5 104.333333333 603.5 137 c 128
 636.5 169.666666667 665.666666667 212 691 264 c 128
 716.333333333 316 736.5 374 751.5 438 c 128
 766.5 502 774 565.666666667 774 629 c 0
1069 621 m 0
 1069 567 1063 513.666666667 1051 461 c 128
 1039 408.333333333 1021.33333333 358.166666667 998 310.5 c 128
 974.666666667 262.833333333 946 218.5 912 177.5 c 128
 878 136.5 839 101 795 71 c 128
 751 41 702.166666667 17.5 648.5 0.5 c 128
 594.833333333 -16.5 537 -25 475 -25 c 0
 405 -25 344.333333333 -15 293 5 c 128
 241.666666667 25 199.166666667 52.5 165.5 87.5 c 128
 131.833333333 122.5 106.833333333 164.166666667 90.5 212.5 c 128
 74.1666666667 260.833333333 66 313.666666667 66 371 c 0
 66 424.333333333 71.8333333333 477.5 83.5 530.5 c 128
 95.1666666667 583.5 112.166666667 634.333333333 134.5 683 c 128
 156.833333333 731.666666667 184.666666667 776.666666667 218 818 c 128
 251.333333333 859.333333333 289.833333333 895.333333333 333.5 926 c 128
 377.166666667 956.666666667 425.833333333 980.666666667 479.5 998 c 128
 533.166666667 1015.33333333 591.666666667 1024 655 1024 c 0
 717.666666667 1024 774.5 1015.5 825.5 998.5 c 128
 876.5 981.5 920 956.166666667 956 922.5 c 128
 992 888.833333333 1019.83333333 846.833333333 1039.5 796.5 c 128
 1059.16666667 746.166666667 1069 687.666666667 1069 621 c 0
EndSplineSet
EndChar

StartChar: p
Encoding: 112 112 62
Width: 1108
GlyphClass: 2
Flags: HW
LayerCount: 2
Back
Fore
SplineSet
756 629 m 0
 756 657.666666667 754.666666667 686.833333333 752 716.5 c 128
 749.333333333 746.166666667 743.666666667 773.166666667 735 797.5 c 128
 726.333333333 821.833333333 713.833333333 841.833333333 697.5 857.5 c 128
 681.166666667 873.166666667 659.666666667 881 633 881 c 0
 618.333333333 881 602.5 877 585.5 869 c 128
 568.5 861 551.5 851.166666667 534.5 839.5 c 128
 517.5 827.833333333 501.5 815.666666667 486.5 803 c 128
 471.5 790.333333333 459 779.333333333 449 770 c 1
 324 139 l 1
 332 133.666666667 341.333333333 127.833333333 352 121.5 c 128
 362.666666667 115.166666667 373.666666667 109.333333333 385 104 c 128
 396.333333333 98.6666666667 407.5 94 418.5 90 c 128
 429.5 86 439.666666667 84 449 84 c 0
 477.666666667 84 505.166666667 91.8333333333 531.5 107.5 c 128
 557.833333333 123.166666667 582.333333333 144.666666667 605 172 c 128
 627.666666667 199.333333333 648.333333333 230.833333333 667 266.5 c 128
 685.666666667 302.166666667 701.5 340.333333333 714.5 381 c 128
 727.5 421.666666667 737.666666667 463.166666667 745 505.5 c 128
 752.333333333 547.833333333 756 589 756 629 c 0
1042 637 m 0
 1042 582.333333333 1035.33333333 528 1022 474 c 128
 1008.66666667 420 989.5 368.5 964.5 319.5 c 128
 939.5 270.5 908.666666667 225 872 183 c 128
 835.333333333 141 793.666666667 104.666666667 747 74 c 128
 700.333333333 43.3333333333 648.666666667 19.1666666667 592 1.5 c 128
 535.333333333 -16.1666666667 474.666666667 -25 410 -25 c 0
 384.666666667 -25 362.5 -23.1666666667 343.5 -19.5 c 128
 324.5 -15.8333333333 308.333333333 -12 295 -8 c 1
 233 -311 l 2
 231 -320.333333333 232.833333333 -328.166666667 238.5 -334.5 c 128
 244.166666667 -340.833333333 252.666666667 -344 264 -344 c 1
 273.333333333 -344.666666667 285 -345.666666667 299 -347 c 0
 311 -348.333333333 325.833333333 -349.666666667 343.5 -351 c 128
 361.166666667 -352.333333333 382 -354 406 -356 c 1
 406 -449 l 1
 -197 -449 l 1
 -197 -356 l 1
 -186.333333333 -354.666666667 -173.833333333 -353.666666667 -159.5 -353 c 128
 -145.166666667 -352.333333333 -131.666666667 -351.333333333 -119 -350 c 0
 -104.333333333 -348.666666667 -89.3333333333 -347.333333333 -74 -346 c 0
 -63.3333333333 -344.666666667 -55.3333333333 -340.833333333 -50 -334.5 c 128
 -44.6666666667 -328.166666667 -41 -320.333333333 -39 -311 c 2
 193 868 l 1
 23 887 l 1
 23 956 l 1
 360 1024 l 1
 498 1024 l 1
 483 948 l 1
 493.666666667 954 507.5 961.333333333 524.5 970 c 128
 541.5 978.666666667 560.666666667 987 582 995 c 128
 603.333333333 1003 626.333333333 1009.83333333 651 1015.5 c 128
 675.666666667 1021.16666667 701.666666667 1024 729 1024 c 0
 783 1024 829.666666667 1012.5 869 989.5 c 128
 908.333333333 966.5 940.833333333 936.666666667 966.5 900 c 128
 992.166666667 863.333333333 1011.16666667 822 1023.5 776 c 128
 1035.83333333 730 1042 683.666666667 1042 637 c 0
EndSplineSet
EndChar

StartChar: q
Encoding: 113 113 63
Width: 1167
GlyphClass: 2
Flags: HW
LayerCount: 2
Back
Fore
SplineSet
784 799 m 2
 786 805.666666667 785 815.333333333 781 828 c 128
 777 840.666666667 771.666666667 853.166666667 765 865.5 c 128
 758.333333333 877.833333333 750.833333333 888.5 742.5 897.5 c 128
 734.166666667 906.5 726.333333333 911 719 911 c 0
 675.666666667 911 632 897.5 588 870.5 c 128
 544 843.5 504.333333333 805.833333333 469 757.5 c 128
 433.666666667 709.166666667 405 651 383 583 c 128
 361 515 350 440 350 358 c 0
 350 321.333333333 352 288 356 258 c 128
 360 228 366.666666667 202.5 376 181.5 c 128
 385.333333333 160.5 398.166666667 144.166666667 414.5 132.5 c 128
 430.833333333 120.833333333 451.666666667 115 477 115 c 0
 497.666666667 115 516.833333333 119 534.5 127 c 128
 552.166666667 135 568.833333333 145 584.5 157 c 128
 600.166666667 169 615.166666667 182 629.5 196 c 128
 643.833333333 210 658 223.333333333 672 236 c 1
 784 799 l 2
836 -311 m 1
 833.333333333 -320.333333333 833.5 -328.166666667 836.5 -334.5 c 128
 839.5 -340.833333333 846.666666667 -344 858 -344 c 0
 869.333333333 -344.666666667 882.333333333 -345.666666667 897 -347 c 0
 909.666666667 -348.333333333 925.166666667 -349.666666667 943.5 -351 c 128
 961.833333333 -352.333333333 982.666666667 -354 1006 -356 c 1
 1006 -449 l 1
 403 -449 l 1
 403 -356 l 1
 412.333333333 -355.333333333 424 -354.333333333 438 -353 c 128
 452 -351.666666667 465.666666667 -350.333333333 479 -349 c 0
 495 -347 511.333333333 -345.333333333 528 -344 c 0
 547.333333333 -342 559 -331 563 -311 c 2
 635 45 l 1
 593.666666667 21.6666666667 552.666666667 3.5 512 -9.5 c 128
 471.333333333 -22.5 432.333333333 -29 395 -29 c 0
 340.333333333 -29 292.666666667 -20.3333333333 252 -3 c 128
 211.333333333 14.3333333333 177.5 39.3333333333 150.5 72 c 128
 123.5 104.666666667 103.333333333 144.5 90 191.5 c 128
 76.6666666667 238.5 70 291.333333333 70 350 c 0
 70 401.333333333 76 453.5 88 506.5 c 128
 100 559.5 118 611 142 661 c 128
 166 711 195.5 758 230.5 802 c 128
 265.5 846 306.166666667 884.5 352.5 917.5 c 128
 398.833333333 950.5 450.333333333 976.5 507 995.5 c 128
 563.666666667 1014.5 625.333333333 1024 692 1024 c 0
 726 1024 758.333333333 1020.5 789 1013.5 c 128
 819.666666667 1006.5 846.666666667 997.666666667 870 987 c 1
 903 1024 l 1
 1102 1024 l 1
 836 -311 l 1
EndSplineSet
EndChar

StartChar: r
Encoding: 114 114 64
Width: 858
GlyphClass: 2
Flags: HW
LayerCount: 2
Back
Fore
SplineSet
934 879 m 0
 934 831.666666667 919 796.166666667 889 772.5 c 128
 859 748.833333333 809 737 739 737 c 1
 684 848 l 1
 652 832 621.5 812.833333333 592.5 790.5 c 128
 563.5 768.166666667 537.666666667 743.666666667 515 717 c 128
 492.333333333 690.333333333 473 662 457 632 c 128
 441 602 430 571.666666667 424 541 c 2
 309 0 l 1
 37 0 l 1
 217 866 l 1
 45 885 l 1
 45 956 l 1
 385 1024 l 1
 526 1024 l 1
 500 887 l 1
 518 905.666666667 537.833333333 923.333333333 559.5 940 c 128
 581.166666667 956.666666667 604 971.333333333 628 984 c 128
 652 996.666666667 676.666666667 1006.5 702 1013.5 c 128
 727.333333333 1020.5 752.666666667 1024 778 1024 c 0
 804.666666667 1024 827.833333333 1019.16666667 847.5 1009.5 c 128
 867.166666667 999.833333333 883.333333333 987.833333333 896 973.5 c 128
 908.666666667 959.166666667 918.166666667 943.5 924.5 926.5 c 128
 930.833333333 909.5 934 893.666666667 934 879 c 0
EndSplineSet
EndChar

StartChar: s
Encoding: 115 115 65
Width: 850
GlyphClass: 2
Flags: HW
LayerCount: 2
Back
Fore
SplineSet
807 866 m 0
 807 820 794 786 768 764 c 128
 742 742 697.666666667 729 635 725 c 1
 530 903 l 1
 525.333333333 904.333333333 520.333333333 905.666666667 515 907 c 0
 510.333333333 908.333333333 504.666666667 909.333333333 498 910 c 128
 491.333333333 910.666666667 484.333333333 911 477 911 c 0
 456.333333333 911 440.333333333 906.833333333 429 898.5 c 128
 417.666666667 890.166666667 409.166666667 879.666666667 403.5 867 c 128
 397.833333333 854.333333333 394.333333333 840.5 393 825.5 c 128
 391.666666667 810.5 391 796.666666667 391 784 c 0
 391 762.666666667 396.333333333 742 407 722 c 128
 417.666666667 702 431.666666667 682.5 449 663.5 c 128
 466.333333333 644.5 485.833333333 625.833333333 507.5 607.5 c 128
 529.166666667 589.166666667 551 571.666666667 573 555 c 0
 596.333333333 537 618.833333333 518.5 640.5 499.5 c 128
 662.166666667 480.5 681.5 460.5 698.5 439.5 c 128
 715.5 418.5 729 396.666666667 739 374 c 128
 749 351.333333333 754 327.666666667 754 303 c 0
 754 263.666666667 744.666666667 224.333333333 726 185 c 128
 707.333333333 145.666666667 679 110.5 641 79.5 c 128
 603 48.5 555.333333333 23.3333333333 498 4 c 128
 440.666666667 -15.3333333333 373.666666667 -25 297 -25 c 0
 243 -25 196.5 -19.5 157.5 -8.5 c 128
 118.5 2.5 86.3333333333 17.1666666667 61 35.5 c 128
 35.6666666667 53.8333333333 16.8333333333 74.6666666667 4.5 98 c 128
 -7.83333333333 121.333333333 -14 145.333333333 -14 170 c 0
 -14 188 -10.6666666667 205.333333333 -4 222 c 128
 2.66666666667 238.666666667 11.5 253.5 22.5 266.5 c 128
 33.5 279.5 45.6666666667 289.833333333 59 297.5 c 128
 72.3333333333 305.166666667 86 309 100 309 c 0
 130 309 155.333333333 304.5 176 295.5 c 128
 196.666666667 286.5 213.666666667 274.666666667 227 260 c 1
 190 139 l 1
 197.333333333 129 207.666666667 120 221 112 c 128
 234.333333333 104 248.833333333 97.3333333333 264.5 92 c 128
 280.166666667 86.6666666667 296.166666667 82.6666666667 312.5 80 c 128
 328.833333333 77.3333333333 344 76 358 76 c 0
 399.333333333 76 430.166666667 90.1666666667 450.5 118.5 c 128
 470.833333333 146.833333333 481 185 481 233 c 0
 481 253.666666667 477 273.166666667 469 291.5 c 128
 461 309.833333333 449.666666667 327.666666667 435 345 c 128
 420.333333333 362.333333333 402.666666667 379.5 382 396.5 c 128
 361.333333333 413.5 338.333333333 431.666666667 313 451 c 0
 291.666666667 467 270.833333333 484.666666667 250.5 504 c 128
 230.166666667 523.333333333 212 543.833333333 196 565.5 c 128
 180 587.166666667 167.166666667 610 157.5 634 c 128
 147.833333333 658 143 683 143 709 c 0
 143 757 154.333333333 800.333333333 177 839 c 128
 199.666666667 877.666666667 230 910.833333333 268 938.5 c 128
 306 966.166666667 350 987.333333333 400 1002 c 128
 450 1016.66666667 502.333333333 1024 557 1024 c 0
 599.666666667 1024 636.666666667 1018.16666667 668 1006.5 c 128
 699.333333333 994.833333333 725.333333333 980.833333333 746 964.5 c 128
 766.666666667 948.166666667 782 930.833333333 792 912.5 c 128
 802 894.166666667 807 878.666666667 807 866 c 0
EndSplineSet
EndChar

StartChar: t
Encoding: 116 116 66
Width: 705
GlyphClass: 2
Flags: HW
LayerCount: 2
Back
Fore
SplineSet
500 856 m 1
 371 223 l 1
 363.666666667 191 367.166666667 165.333333333 381.5 146 c 128
 395.833333333 126.666666667 419 117 451 117 c 0
 467 117 486.166666667 119.666666667 508.5 125 c 128
 530.833333333 130.333333333 554 136.666666667 578 144 c 128
 602 151.333333333 625.333333333 159.166666667 648 167.5 c 128
 670.666666667 175.833333333 690.333333333 182.666666667 707 188 c 1
 707 76 l 1
 695.666666667 70.6666666667 675.666666667 62.5 647 51.5 c 128
 618.333333333 40.5 585.666666667 29.3333333333 549 18 c 128
 512.333333333 6.66666666667 474.333333333 -3.33333333333 435 -12 c 128
 395.666666667 -20.6666666667 360 -25 328 -25 c 0
 288.666666667 -25 254.333333333 -20.3333333333 225 -11 c 128
 195.666666667 -1.66666666667 171.333333333 11.1666666667 152 27.5 c 128
 132.666666667 43.8333333333 118.166666667 63.3333333333 108.5 86 c 128
 98.8333333333 108.666666667 94 133.333333333 94 160 c 0
 94 173.333333333 94.5 186.666666667 95.5 200 c 128
 96.5 213.333333333 98.6666666667 227.333333333 102 242 c 2
 227 852 l 1
 80 836 l 1
 80 920 l 1
 254 989 l 1
 358 1200 l 1
 563 1200 l 1
 520 969 l 1
 805 969 l 1
 805 856 l 1
 500 856 l 1
EndSplineSet
EndChar

StartChar: u
Encoding: 117 117 67
Width: 1176
GlyphClass: 2
Flags: HW
LayerCount: 2
Back
Fore
SplineSet
1171 57 m 1
 1157 49.6666666667 1137.83333333 41.1666666667 1113.5 31.5 c 128
 1089.16666667 21.8333333333 1062.16666667 12.8333333333 1032.5 4.5 c 128
 1002.83333333 -3.83333333333 972 -10.8333333333 940 -16.5 c 128
 908 -22.1666666667 877.333333333 -25 848 -25 c 0
 812.666666667 -25 784 -21.3333333333 762 -14 c 128
 740 -6.66666666667 722.833333333 2.16666666667 710.5 12.5 c 128
 698.166666667 22.8333333333 689.333333333 33.5 684 44.5 c 128
 678.666666667 55.5 675.333333333 64.6666666667 674 72 c 1
 628.666666667 40.6666666667 579.666666667 16.6666666667 527 0 c 128
 474.333333333 -16.6666666667 414.666666667 -25 348 -25 c 0
 297.333333333 -25 254.5 -16.3333333333 219.5 1 c 128
 184.5 18.3333333333 156.833333333 40 136.5 66 c 128
 116.166666667 92 102.833333333 120.5 96.5 151.5 c 128
 90.1666666667 182.5 90 212 96 240 c 2
 229 868 l 1
 57 887 l 1
 57 956 l 1
 395 1024 l 1
 537 1024 l 1
 369 240 l 2
 365.666666667 224 364.833333333 208.666666667 366.5 194 c 128
 368.166666667 179.333333333 372 166.5 378 155.5 c 128
 384 144.5 392 135.666666667 402 129 c 128
 412 122.333333333 423.333333333 119 436 119 c 0
 458.666666667 119 480.833333333 122.166666667 502.5 128.5 c 128
 524.166666667 134.833333333 545.166666667 143.666666667 565.5 155 c 128
 585.833333333 166.333333333 605.666666667 179.333333333 625 194 c 128
 644.333333333 208.666666667 663.333333333 224.666666667 682 242 c 1
 842 999 l 1
 1114 999 l 1
 946 205 l 2
 938 167 939.5 139.666666667 950.5 123 c 128
 961.5 106.333333333 977.666666667 98 999 98 c 0
 1004.33333333 98 1010.5 98.8333333333 1017.5 100.5 c 128
 1024.5 102.166666667 1034.16666667 105.5 1046.5 110.5 c 128
 1058.83333333 115.5 1074.83333333 122.833333333 1094.5 132.5 c 128
 1114.16666667 142.166666667 1139.66666667 155.333333333 1171 172 c 1
 1171 57 l 1
EndSplineSet
EndChar

StartChar: v
Encoding: 118 118 68
Width: 1042
GlyphClass: 2
Flags: HW
LayerCount: 2
Back
Fore
SplineSet
1053 893 m 0
 1053 875.666666667 1051.33333333 859 1048 843 c 128
 1044.66666667 827 1040.66666667 812.333333333 1036 799 c 128
 1031.33333333 785.666666667 1026.33333333 773.833333333 1021 763.5 c 128
 1015.66666667 753.166666667 1011.33333333 745 1008 739 c 0
 962 655 912.666666667 574.833333333 860 498.5 c 128
 807.333333333 422.166666667 755.166666667 351.333333333 703.5 286 c 128
 651.833333333 220.666666667 603 161.666666667 557 109 c 128
 511 56.3333333333 471.333333333 11.6666666667 438 -25 c 1
 238 -25 l 1
 255.333333333 10.3333333333 267.833333333 41.1666666667 275.5 67.5 c 128
 283.166666667 93.8333333333 286.333333333 118.333333333 285 141 c 0
 285 143 284.333333333 153.166666667 283 171.5 c 128
 281.666666667 189.833333333 279.833333333 213.333333333 277.5 242 c 128
 275.166666667 270.666666667 272.333333333 303.5 269 340.5 c 128
 265.666666667 377.5 262 415.666666667 258 455 c 128
 254 494.333333333 249.666666667 534 245 574 c 128
 240.333333333 614 235.5 651.166666667 230.5 685.5 c 128
 225.5 719.833333333 220.333333333 750.5 215 777.5 c 128
 209.666666667 804.5 204.333333333 824.666666667 199 838 c 0
 195.666666667 845.333333333 192.833333333 851.333333333 190.5 856 c 128
 188.166666667 860.666666667 185.333333333 864.166666667 182 866.5 c 128
 178.666666667 868.833333333 174.333333333 870.333333333 169 871 c 128
 163.666666667 871.666666667 156.333333333 872 147 872 c 0
 133 872.666666667 118.333333333 873.666666667 103 875 c 0
 89.6666666667 875.666666667 74.5 876.333333333 57.5 877 c 128
 40.5 877.666666667 23.3333333333 878.333333333 6 879 c 1
 6 952 l 1
 250 1024 l 1
 320.666666667 1022.66666667 375.166666667 1009.66666667 413.5 985 c 128
 451.833333333 960.333333333 473.666666667 922 479 870 c 2
 535 342 l 1
 559.666666667 376 583.833333333 408.166666667 607.5 438.5 c 128
 631.166666667 468.833333333 653.333333333 498.833333333 674 528.5 c 128
 694.666666667 558.166666667 713.833333333 588 731.5 618 c 128
 749.166666667 648 764.666666667 679 778 711 c 1
 721 971 l 1
 738.333333333 987.666666667 761.666666667 1000.66666667 791 1010 c 128
 820.333333333 1019.33333333 851 1024 883 1024 c 0
 907 1024 929.333333333 1021 950 1015 c 128
 970.666666667 1009 988.666666667 1000.16666667 1004 988.5 c 128
 1019.33333333 976.833333333 1031.33333333 963 1040 947 c 128
 1048.66666667 931 1053 913 1053 893 c 0
EndSplineSet
EndChar

StartChar: w
Encoding: 119 119 69
Width: 1538
GlyphClass: 2
Flags: HW
LayerCount: 2
Back
Fore
SplineSet
1546 895 m 0
 1546 866.333333333 1538.66666667 832.166666667 1524 792.5 c 128
 1509.33333333 752.833333333 1489.83333333 710 1465.5 664 c 128
 1441.16666667 618 1413.33333333 570.166666667 1382 520.5 c 128
 1350.66666667 470.833333333 1318.16666667 421.666666667 1284.5 373 c 128
 1250.83333333 324.333333333 1217.5 277.833333333 1184.5 233.5 c 128
 1151.5 189.166666667 1121.33333333 149 1094 113 c 128
 1066.66666667 77 1043.33333333 47 1024 23 c 128
 1004.66666667 -1 991.666666667 -17 985 -25 c 1
 782 -25 l 1
 741 561 l 1
 714.333333333 508.333333333 686.666666667 455.166666667 658 401.5 c 128
 629.333333333 347.833333333 600.5 295.666666667 571.5 245 c 128
 542.5 194.333333333 514.166666667 146 486.5 100 c 128
 458.833333333 54 432.666666667 12.3333333333 408 -25 c 1
 197 -25 l 1
 219 31 l 1
 164 868 l 1
 8 885 l 1
 8 950 l 1
 283 1024 l 1
 430 999 l 1
 469 381 l 1
 492.333333333 426.333333333 516 473.666666667 540 523 c 128
 564 572.333333333 587.833333333 622.166666667 611.5 672.5 c 128
 635.166666667 722.833333333 658.5 773.5 681.5 824.5 c 128
 704.5 875.5 726.666666667 925.666666667 748 975 c 1
 981 999 l 1
 1030 279 l 1
 1053.33333333 313 1078.5 349.5 1105.5 388.5 c 128
 1132.5 427.5 1159.16666667 467.166666667 1185.5 507.5 c 128
 1211.83333333 547.833333333 1236.66666667 588.333333333 1260 629 c 128
 1283.33333333 669.666666667 1303.66666667 708.333333333 1321 745 c 1
 1243 963 l 1
 1245.66666667 967 1250.5 972.5 1257.5 979.5 c 128
 1264.5 986.5 1273.5 993.166666667 1284.5 999.5 c 128
 1295.5 1005.83333333 1308.83333333 1011.5 1324.5 1016.5 c 128
 1340.16666667 1021.5 1358.66666667 1024 1380 1024 c 0
 1408 1024 1432.33333333 1019 1453 1009 c 128
 1473.66666667 999 1490.83333333 987 1504.5 973 c 128
 1518.16666667 959 1528.5 944.666666667 1535.5 930 c 128
 1542.5 915.333333333 1546 903.666666667 1546 895 c 0
EndSplineSet
EndChar

StartChar: x
Encoding: 120 120 70
Width: 1180
GlyphClass: 2
Flags: HW
LayerCount: 2
Back
Fore
SplineSet
1200 895 m 0
 1200 881.666666667 1199 866 1197 848 c 128
 1195 830 1189.5 813 1180.5 797 c 128
 1171.5 781 1157.33333333 767.333333333 1138 756 c 128
 1118.66666667 744.666666667 1091.66666667 739 1057 739 c 1
 967 846 l 1
 950.333333333 834 931 817.666666667 909 797 c 128
 887 776.333333333 864.5 752.166666667 841.5 724.5 c 128
 818.5 696.833333333 796.333333333 666.166666667 775 632.5 c 128
 753.666666667 598.833333333 735 562.666666667 719 524 c 1
 722.333333333 512 727.666666667 495.166666667 735 473.5 c 128
 742.333333333 451.833333333 750.5 428.333333333 759.5 403 c 128
 768.5 377.666666667 778 352 788 326 c 128
 798 300 807.666666667 276.666666667 817 256 c 256
 826.333333333 235.333333333 834.5 215.833333333 841.5 197.5 c 128
 848.5 179.166666667 855.666666667 163 863 149 c 128
 870.333333333 135 878.333333333 124 887 116 c 128
 895.666666667 108 906 104 918 104 c 0
 923.333333333 104 930.5 104.333333333 939.5 105 c 128
 948.5 105.666666667 959.333333333 108 972 112 c 128
 984.666666667 116 999.666666667 122.166666667 1017 130.5 c 128
 1034.33333333 138.833333333 1054.33333333 150.666666667 1077 166 c 1
 1077 47 l 1
 1053.66666667 33 1030.66666667 21.5 1008 12.5 c 128
 985.333333333 3.5 962.333333333 -3.83333333333 939 -9.5 c 128
 915.666666667 -15.1666666667 891.166666667 -19.1666666667 865.5 -21.5 c 128
 839.833333333 -23.8333333333 812 -25 782 -25 c 0
 748.666666667 -25 718 -13.8333333333 690 8.5 c 128
 662 30.8333333333 636.666666667 59 614 93 c 128
 591.333333333 127 571.666666667 164 555 204 c 128
 538.333333333 244 524.666666667 281.666666667 514 317 c 1
 508.666666667 308.333333333 500.333333333 294 489 274 c 128
 477.666666667 254 463.5 231.333333333 446.5 206 c 128
 429.5 180.666666667 410.333333333 154.333333333 389 127 c 128
 367.666666667 99.6666666667 344.333333333 74.8333333333 319 52.5 c 128
 293.666666667 30.1666666667 267 11.6666666667 239 -3 c 128
 211 -17.6666666667 182 -25 152 -25 c 0
 128 -25 104.666666667 -22.3333333333 82 -17 c 128
 59.3333333333 -11.6666666667 39.1666666667 -3.83333333333 21.5 6.5 c 128
 3.83333333333 16.8333333333 -10.3333333333 29.6666666667 -21 45 c 128
 -31.6666666667 60.3333333333 -37 78 -37 98 c 0
 -37 114 -35 131.333333333 -31 150 c 128
 -27 168.666666667 -18.8333333333 186 -6.5 202 c 128
 5.83333333333 218 23.6666666667 231.333333333 47 242 c 128
 70.3333333333 252.666666667 101 258 139 258 c 1
 217 137 l 1
 235 152.333333333 254.666666667 171.333333333 276 194 c 128
 297.333333333 216.666666667 319 242.5 341 271.5 c 128
 363 300.5 384.166666667 332.333333333 404.5 367 c 128
 424.833333333 401.666666667 443 439 459 479 c 1
 455.666666667 492.333333333 450.5 510.833333333 443.5 534.5 c 128
 436.5 558.166666667 428.333333333 583.666666667 419 611 c 128
 409.666666667 638.333333333 399.833333333 666.333333333 389.5 695 c 128
 379.166666667 723.666666667 369 749.666666667 359 773 c 128
 349 796.333333333 339.833333333 815.5 331.5 830.5 c 128
 323.166666667 845.5 316.333333333 853.333333333 311 854 c 2
 109 879 l 1
 109 942 l 1
 117 945.333333333 129.166666667 949.666666667 145.5 955 c 128
 161.833333333 960.333333333 180 966 200 972 c 128
 220 978 240.666666667 984 262 990 c 128
 283.333333333 996 303.333333333 1001.5 322 1006.5 c 128
 340.666666667 1011.5 357 1015.66666667 371 1019 c 128
 385 1022.33333333 394.333333333 1024 399 1024 c 0
 431 1024 459.5 1016.33333333 484.5 1001 c 128
 509.5 985.666666667 532.166666667 963.833333333 552.5 935.5 c 128
 572.833333333 907.166666667 591.333333333 873 608 833 c 128
 624.666666667 793 640.333333333 748 655 698 c 1
 679 734 705.333333333 771.166666667 734 809.5 c 128
 762.666666667 847.833333333 793.166666667 883 825.5 915 c 128
 857.833333333 947 891.333333333 973.166666667 926 993.5 c 128
 960.666666667 1013.83333333 996 1024 1032 1024 c 0
 1052.66666667 1024 1073.16666667 1020.83333333 1093.5 1014.5 c 128
 1113.83333333 1008.16666667 1131.83333333 999.333333333 1147.5 988 c 128
 1163.16666667 976.666666667 1175.83333333 963 1185.5 947 c 128
 1195.16666667 931 1200 913.666666667 1200 895 c 0
EndSplineSet
EndChar

StartChar: y
Encoding: 121 121 71
Width: 1112
GlyphClass: 2
Flags: HW
LayerCount: 2
Back
Fore
SplineSet
1065 844 m 1
 1057 836 1045.33333333 821.5 1030 800.5 c 128
 1014.66666667 779.5 998.833333333 755.833333333 982.5 729.5 c 128
 966.166666667 703.166666667 950.166666667 676 934.5 648 c 128
 918.833333333 620 906.333333333 595.666666667 897 575 c 0
 882.333333333 542.333333333 864.833333333 502.833333333 844.5 456.5 c 128
 824.166666667 410.166666667 801.5 360.333333333 776.5 307 c 128
 751.5 253.666666667 724.5 198.166666667 695.5 140.5 c 128
 666.5 82.8333333333 636 26.3333333333 604 -29 c 0
 570 -88.3333333333 533.5 -144.666666667 494.5 -198 c 128
 455.5 -251.333333333 413.333333333 -298 368 -338 c 128
 322.666666667 -378 273.666666667 -409.833333333 221 -433.5 c 128
 168.333333333 -457.166666667 111 -469 49 -469 c 0
 7.66666666667 -469 -26.8333333333 -463.666666667 -54.5 -453 c 128
 -82.1666666667 -442.333333333 -104.333333333 -429 -121 -413 c 128
 -137.666666667 -397 -149.333333333 -380 -156 -362 c 128
 -162.666666667 -344 -166 -327.666666667 -166 -313 c 0
 -166 -296.333333333 -163.333333333 -278.333333333 -158 -259 c 128
 -152.666666667 -239.666666667 -143.5 -221.5 -130.5 -204.5 c 128
 -117.5 -187.5 -100.5 -173.333333333 -79.5 -162 c 128
 -58.5 -150.666666667 -32 -144.333333333 0 -143 c 1
 88 -299 l 1
 180.666666667 -279 283.666666667 -165 397 43 c 1
 395.666666667 51 392.333333333 68.6666666667 387 96 c 128
 381.666666667 123.333333333 375.166666667 156.666666667 367.5 196 c 128
 359.833333333 235.333333333 351.166666667 278.833333333 341.5 326.5 c 128
 331.833333333 374.166666667 321.666666667 422.333333333 311 471 c 0
 301 517.666666667 291.666666667 564.666666667 283 612 c 128
 274.333333333 659.333333333 266.333333333 702 259 740 c 128
 251.666666667 778 245 808.833333333 239 832.5 c 128
 233 856.166666667 227.666666667 868 223 868 c 2
 6 885 l 1
 6 948 l 1
 14 950.666666667 25.6666666667 954.5 41 959.5 c 128
 56.3333333333 964.5 73.6666666667 969.833333333 93 975.5 c 128
 112.333333333 981.166666667 132.333333333 986.833333333 153 992.5 c 128
 173.666666667 998.166666667 193.5 1003.33333333 212.5 1008 c 128
 231.5 1012.66666667 248.5 1016.5 263.5 1019.5 c 128
 278.5 1022.5 289.666666667 1024 297 1024 c 0
 319.666666667 1024 340.5 1022.5 359.5 1019.5 c 128
 378.5 1016.5 396.166666667 1008.5 412.5 995.5 c 128
 428.833333333 982.5 444.166666667 962.5 458.5 935.5 c 128
 472.833333333 908.5 487.333333333 871 502 823 c 0
 508.666666667 799.666666667 516 772.166666667 524 740.5 c 128
 532 708.833333333 540 674.833333333 548 638.5 c 128
 556 602.166666667 564.333333333 564.333333333 573 525 c 128
 581.666666667 485.666666667 590 446 598 406 c 1
 879 1024 l 1
 977 1024 l 1
 1171 963 l 1
 1171 909 l 1
 1065 844 l 1
EndSplineSet
EndChar

StartChar: z
Encoding: 122 122 72
Width: 1006
GlyphClass: 2
Flags: HW
LayerCount: 2
Back
Fore
SplineSet
344 188 m 1
 473 215 l 1
 509.666666667 195.666666667 540 180 564 168 c 128
 588 156 611.666666667 150 635 150 c 0
 642.333333333 150 652.333333333 151.666666667 665 155 c 128
 677.666666667 158.333333333 690.833333333 162.666666667 704.5 168 c 128
 718.166666667 173.333333333 730.666666667 179.5 742 186.5 c 128
 753.333333333 193.5 761.333333333 201 766 209 c 1
 643 340 l 1
 646.333333333 344.666666667 653.333333333 351.5 664 360.5 c 128
 674.666666667 369.5 687.333333333 378.166666667 702 386.5 c 128
 716.666666667 394.833333333 732.5 402.166666667 749.5 408.5 c 128
 766.5 414.833333333 783.666666667 418 801 418 c 0
 823 418 842 412.666666667 858 402 c 128
 874 391.333333333 887.166666667 378.333333333 897.5 363 c 128
 907.833333333 347.666666667 915.5 331.166666667 920.5 313.5 c 128
 925.5 295.833333333 928 280 928 266 c 0
 928 233.333333333 918.5 199.833333333 899.5 165.5 c 128
 880.5 131.166666667 854.666666667 100 822 72 c 128
 789.333333333 44 751.666666667 21.1666666667 709 3.5 c 128
 666.333333333 -14.1666666667 621 -23 573 -23 c 0
 538.333333333 -23 505.5 -18.5 474.5 -9.5 c 128
 443.5 -0.5 415.666666667 9.33333333333 391 20 c 128
 366.333333333 30.6666666667 345.5 40.5 328.5 49.5 c 128
 311.5 58.5 299.666666667 63 293 63 c 0
 283.666666667 63 275.166666667 62.5 267.5 61.5 c 128
 259.833333333 60.5 254 57 250 51 c 2
 174 -80 l 1
 -33 33 l 1
 643 811 l 1
 514 784 l 1
 478 803.333333333 448.166666667 819.166666667 424.5 831.5 c 128
 400.833333333 843.833333333 377.333333333 850 354 850 c 0
 346.666666667 850 336.666666667 848.333333333 324 845 c 128
 311.333333333 841.666666667 298.333333333 837.166666667 285 831.5 c 128
 271.666666667 825.833333333 259.166666667 819.5 247.5 812.5 c 128
 235.833333333 805.5 227.666666667 798.333333333 223 791 c 1
 344 662 l 1
 340.666666667 656 334 648.5 324 639.5 c 128
 314 630.5 301.666666667 621.833333333 287 613.5 c 128
 272.333333333 605.166666667 256.333333333 597.833333333 239 591.5 c 128
 221.666666667 585.166666667 204.666666667 582 188 582 c 0
 166 582 147 587.333333333 131 598 c 128
 115 608.666666667 101.833333333 621.666666667 91.5 637 c 128
 81.1666666667 652.333333333 73.5 668.666666667 68.5 686 c 128
 63.5 703.333333333 61 719 61 733 c 0
 61 765.666666667 70.5 799.166666667 89.5 833.5 c 128
 108.5 867.833333333 134.333333333 899.166666667 167 927.5 c 128
 199.666666667 955.833333333 237.333333333 979 280 997 c 128
 322.666666667 1015 368 1024 416 1024 c 0
 450.666666667 1024 483.5 1019.33333333 514.5 1010 c 128
 545.5 1000.66666667 573.333333333 990.5 598 979.5 c 128
 622.666666667 968.5 643.5 958.5 660.5 949.5 c 128
 677.5 940.5 689.333333333 936 696 936 c 0
 705.333333333 936 713.5 936.666666667 720.5 938 c 128
 727.5 939.333333333 733.666666667 942.666666667 739 948 c 1
 795 1077 l 1
 1020 963 l 1
 344 188 l 1
EndSplineSet
EndChar

StartChar: braceleft
Encoding: 123 123 73
Width: 1014
GlyphClass: 2
Flags: HW
LayerCount: 2
Back
Fore
SplineSet
1022 1333 m 1
 996.666666667 1333 971.666666667 1331.33333333 947 1328 c 0
 925.666666667 1324.66666667 903.166666667 1319.33333333 879.5 1312 c 128
 855.833333333 1304.66666667 834.333333333 1293.33333333 815 1278 c 0
 791 1258 772.333333333 1233.16666667 759 1203.5 c 128
 745.666666667 1173.83333333 734.833333333 1141.5 726.5 1106.5 c 128
 718.166666667 1071.5 710.666666667 1035 704 997 c 128
 697.333333333 959 688.333333333 921.5 677 884.5 c 128
 665.666666667 847.5 650.5 812 631.5 778 c 128
 612.5 744 586.333333333 714 553 688 c 0
 527 667.333333333 501.166666667 651 475.5 639 c 128
 449.833333333 627 426.333333333 618 405 612 c 128
 383.666666667 606 365 602 349 600 c 0
 337.666666667 598.666666667 329 598 323 598 c 1
 329 597.333333333 337.333333333 596.333333333 348 595 c 0
 362.666666667 593 379.5 588.833333333 398.5 582.5 c 128
 417.5 576.166666667 437.5 567 458.5 555 c 128
 479.5 543 498.666666667 526.666666667 516 506 c 0
 538.666666667 479.333333333 552.833333333 449.166666667 558.5 415.5 c 128
 564.166666667 381.833333333 565.5 346.5 562.5 309.5 c 128
 559.5 272.5 553.666666667 235.166666667 545 197.5 c 128
 536.333333333 159.833333333 529.5 123.666666667 524.5 89 c 128
 519.5 54.3333333333 517.833333333 22.1666666667 519.5 -7.5 c 128
 521.166666667 -37.1666666667 530.333333333 -62 547 -82 c 0
 559.666666667 -97.3333333333 576.333333333 -108.666666667 597 -116 c 128
 617.666666667 -123.333333333 637.666666667 -128.666666667 657 -132 c 0
 679.666666667 -135.333333333 703.666666667 -137 729 -137 c 1
 707 -250 l 1
 667 -250 l 2
 649 -250 628 -249.5 604 -248.5 c 128
 580 -247.5 554.166666667 -245.5 526.5 -242.5 c 128
 498.833333333 -239.5 472 -234.833333333 446 -228.5 c 128
 420 -222.166666667 395.833333333 -214 373.5 -204 c 128
 351.166666667 -194 333 -181.333333333 319 -166 c 0
 293.666666667 -138.666666667 277.666666667 -106.333333333 271 -69 c 128
 264.333333333 -31.6666666667 262.833333333 7.5 266.5 48.5 c 128
 270.166666667 89.5 276.833333333 131.166666667 286.5 173.5 c 128
 296.166666667 215.833333333 304.5 256.333333333 311.5 295 c 128
 318.5 333.666666667 321.833333333 369 321.5 401 c 128
 321.166666667 433 313 459 297 479 c 256
 281 499 260.833333333 513.166666667 236.5 521.5 c 128
 212.166666667 529.833333333 188.666666667 535.333333333 166 538 c 0
 139.333333333 540.666666667 112 540.333333333 84 537 c 1
 106 659 l 1
 134 655 161.666666667 654.333333333 189 657 c 0
 212.333333333 659 237.833333333 664.166666667 265.5 672.5 c 128
 293.166666667 680.833333333 318.666666667 695 342 715 c 0
 366 735 384.5 761.166666667 397.5 793.5 c 128
 410.5 825.833333333 421.166666667 861.333333333 429.5 900 c 128
 437.833333333 938.666666667 445.833333333 979.333333333 453.5 1022 c 128
 461.166666667 1064.66666667 471.333333333 1106.5 484 1147.5 c 128
 496.666666667 1188.5 513.833333333 1227.66666667 535.5 1265 c 128
 557.166666667 1302.33333333 586.333333333 1334.66666667 623 1362 c 0
 643 1377.33333333 666.166666667 1390 692.5 1400 c 128
 718.833333333 1410 746.166666667 1418.16666667 774.5 1424.5 c 128
 802.833333333 1430.83333333 831.333333333 1435.5 860 1438.5 c 128
 888.666666667 1441.5 915.166666667 1443.5 939.5 1444.5 c 128
 963.833333333 1445.5 985 1446 1003 1446 c 2
 1042 1446 l 1
 1022 1333 l 1
EndSplineSet
EndChar

StartChar: bar
Encoding: 124 124 74
Width: 815
GlyphClass: 2
Flags: HW
LayerCount: 2
Back
Fore
SplineSet
320 -528 m 1
 320 1630 l 1
 495 1630 l 1
 495 -528 l 1
 320 -528 l 1
EndSplineSet
EndChar

StartChar: braceright
Encoding: 125 125 75
Width: 1014
GlyphClass: 2
Flags: HW
LayerCount: 2
Back
Fore
SplineSet
930 537 m 1
 902 540.333333333 874.333333333 540.666666667 847 538 c 0
 823 535.333333333 797.166666667 529.833333333 769.5 521.5 c 128
 741.833333333 513.166666667 716 499 692 479 c 0
 668 458.333333333 649.666666667 432 637 400 c 128
 624.333333333 368 613.833333333 332.666666667 605.5 294 c 128
 597.166666667 255.333333333 589.333333333 214.833333333 582 172.5 c 128
 574.666666667 130.166666667 564.666666667 88.5 552 47.5 c 128
 539.333333333 6.5 522.5 -32.5 501.5 -69.5 c 128
 480.5 -106.5 452 -138.666666667 416 -166 c 0
 396 -181.333333333 372.666666667 -194 346 -204 c 128
 319.333333333 -214 291.666666667 -222.166666667 263 -228.5 c 128
 234.333333333 -234.833333333 205.666666667 -239.5 177 -242.5 c 128
 148.333333333 -245.5 121.833333333 -247.5 97.5 -248.5 c 128
 73.1666666667 -249.5 51.6666666667 -250 33 -250 c 2
 -6 -250 l 1
 16 -137 l 1
 40.6666666667 -137 65.3333333333 -135.333333333 90 -132 c 0
 111.333333333 -128.666666667 133.666666667 -123.333333333 157 -116 c 128
 180.333333333 -108.666666667 201.666666667 -97.3333333333 221 -82 c 0
 245 -62 263.666666667 -37.3333333333 277 -8 c 128
 290.333333333 21.3333333333 301.166666667 53.3333333333 309.5 88 c 128
 317.833333333 122.666666667 325.166666667 158.833333333 331.5 196.5 c 128
 337.833333333 234.166666667 346.666666667 271.5 358 308.5 c 128
 369.333333333 345.5 384.333333333 381 403 415 c 128
 421.666666667 449 447.666666667 479.333333333 481 506 c 0
 505.666666667 526 530.666666667 542 556 554 c 128
 581.333333333 566 604.833333333 575.166666667 626.5 581.5 c 128
 648.166666667 587.833333333 667 592 683 594 c 128
 699 596 710.333333333 597.333333333 717 598 c 1
 712.333333333 598 702.666666667 598.666666667 688 600 c 128
 673.333333333 601.333333333 656.333333333 605 637 611 c 128
 617.666666667 617 597.5 626 576.5 638 c 128
 555.5 650 536 666.666666667 518 688 c 0
 495.333333333 714.666666667 481.166666667 745 475.5 779 c 128
 469.833333333 813 468.666666667 848.5 472 885.5 c 128
 475.333333333 922.5 481.166666667 960 489.5 998 c 128
 497.833333333 1036 504.666666667 1072.5 510 1107.5 c 128
 515.333333333 1142.5 517.333333333 1174.66666667 516 1204 c 128
 514.666666667 1233.33333333 505.666666667 1258 489 1278 c 0
 476.333333333 1293.33333333 459.833333333 1304.66666667 439.5 1312 c 128
 419.166666667 1319.33333333 399.333333333 1324.66666667 380 1328 c 0
 357.333333333 1331.33333333 333 1333 307 1333 c 1
 330 1446 l 1
 369 1446 l 2
 387.666666667 1446 409 1445.5 433 1444.5 c 128
 457 1443.5 482.666666667 1441.5 510 1438.5 c 128
 537.333333333 1435.5 564.166666667 1430.83333333 590.5 1424.5 c 128
 616.833333333 1418.16666667 641.166666667 1410 663.5 1400 c 128
 685.833333333 1390 704.333333333 1377.33333333 719 1362 c 0
 744.333333333 1334 760.166666667 1301.5 766.5 1264.5 c 128
 772.833333333 1227.5 774 1188.5 770 1147.5 c 128
 766 1106.5 759.166666667 1064.66666667 749.5 1022 c 128
 739.833333333 979.333333333 731.5 938.666666667 724.5 900 c 128
 717.5 861.333333333 714.166666667 825.833333333 714.5 793.5 c 128
 714.833333333 761.166666667 723 735 739 715 c 256
 755 695 775 680.833333333 799 672.5 c 128
 823 664.166666667 846.333333333 659 869 657 c 0
 895.666666667 654.333333333 923.333333333 655 952 659 c 1
 930 537 l 1
EndSplineSet
EndChar

StartChar: asciitilde
Encoding: 126 126 76
Width: 1706
GlyphClass: 2
Flags: HW
LayerCount: 2
Back
Fore
SplineSet
1530 614 m 1
 1488.66666667 584.666666667 1450.16666667 560 1414.5 540 c 128
 1378.83333333 520 1345.16666667 504 1313.5 492 c 128
 1281.83333333 480 1251.33333333 471.5 1222 466.5 c 128
 1192.66666667 461.5 1163.66666667 459 1135 459 c 0
 1085 459 1036.5 466.166666667 989.5 480.5 c 128
 942.5 494.833333333 895.833333333 510.5 849.5 527.5 c 128
 803.166666667 544.5 756.333333333 560.166666667 709 574.5 c 128
 661.666666667 588.833333333 613 596 563 596 c 0
 515.666666667 596 460.666666667 581.5 398 552.5 c 128
 335.333333333 523.5 261.333333333 476.666666667 176 412 c 1
 176 606 l 1
 253.333333333 664.666666667 325.333333333 705.666666667 392 729 c 128
 458.666666667 752.333333333 519.666666667 764 575 764 c 0
 613.666666667 764 651.333333333 759.833333333 688 751.5 c 128
 724.666666667 743.166666667 760.833333333 733 796.5 721 c 128
 832.166666667 709 867.666666667 696.166666667 903 682.5 c 128
 938.333333333 668.833333333 974 657 1010 647 c 0
 1031.33333333 641 1052.66666667 636.166666667 1074 632.5 c 128
 1095.33333333 628.833333333 1116.33333333 627 1137 627 c 0
 1159 627 1182.66666667 629.666666667 1208 635 c 128
 1233.33333333 640.333333333 1261.83333333 649.833333333 1293.5 663.5 c 128
 1325.16666667 677.166666667 1360.33333333 695.833333333 1399 719.5 c 128
 1437.66666667 743.166666667 1481.33333333 773 1530 809 c 1
 1530 614 l 1
EndSplineSet
EndChar

StartChar: exclam
Encoding: 33 33 83
Width: 778
GlyphClass: 2
Flags: HW
LayerCount: 2
Back
Fore
SplineSet
492 133 m 256
 492 110.333333333 487.5 89.3333333333 478.5 70 c 128
 469.5 50.6666666667 457.333333333 34 442 20 c 128
 426.666666667 6 408.833333333 -5 388.5 -13 c 128
 368.166666667 -21 346.666666667 -25 324 -25 c 0
 302 -25 281.666666667 -20.5 263 -11.5 c 128
 244.333333333 -2.5 228 9.66666666667 214 25 c 128
 200 40.3333333333 189.166666667 58 181.5 78 c 128
 173.833333333 98 170 119 170 141 c 0
 170 163.666666667 174 184.833333333 182 204.5 c 128
 190 224.166666667 201 241.5 215 256.5 c 128
 229 271.5 245.5 283.333333333 264.5 292 c 128
 283.5 300.666666667 304 305 326 305 c 0
 350.666666667 305 373.166666667 300.333333333 393.5 291 c 128
 413.833333333 281.666666667 431.333333333 269.166666667 446 253.5 c 128
 460.666666667 237.833333333 472 219.5 480 198.5 c 128
 488 177.5 492 155.666666667 492 133 c 256
694 1262 m 1
 659.333333333 1156 625.333333333 1052.33333333 592 951 c 0
 578 907.666666667 563.166666667 862.666666667 547.5 816 c 128
 531.833333333 769.333333333 516.5 723 501.5 677 c 128
 486.5 631 471.833333333 586.5 457.5 543.5 c 128
 443.166666667 500.5 430 461.333333333 418 426 c 1
 307 426 l 1
 354 1214 l 1
 354 1242.66666667 359.666666667 1268.83333333 371 1292.5 c 128
 382.333333333 1316.16666667 397.333333333 1336.5 416 1353.5 c 128
 434.666666667 1370.5 456.166666667 1383.66666667 480.5 1393 c 128
 504.833333333 1402.33333333 529.666666667 1407 555 1407 c 0
 605 1407 640.666666667 1395.33333333 662 1372 c 128
 683.333333333 1348.66666667 694 1312 694 1262 c 1
EndSplineSet
EndChar

StartChar: quoteleft
Encoding: 8216 8216 84
Width: 564
GlyphClass: 2
Flags: HW
LayerCount: 2
Back
Fore
SplineSet
490 1020 m 1
 437.06 1055.6 357 1120.8 357 1188 c 0
 357 1251.88 430.507 1362.99 625 1608 c 1
 665 1526 l 1
 568 1391 l 1
 536.239 1341.29 526 1316.6 526 1298 c 1
 528.667 1274.67 560.333 1235.67 621 1181 c 1
 490 1020 l 1
EndSplineSet
EndChar

StartChar: u25CC
Encoding: 9676 9676 85
Width: 1531
GlyphClass: 2
Flags: HW
LayerCount: 2
Back
Fore
SplineSet
1356 814 m 0
 1420.31 814 1416.81 766.867 1417 764 c 0
 1417 745.8 1402.07 673 1307 673 c 0
 1271 673 1246 681.667 1232 699 c 1
 1221.63 731.597 1273.59 785.2 1308 803 c 1
 1328.67 811.039 1338.27 814 1356 814 c 0
1231 979 m 0
 1250.6 979 1287 967.8 1287 923 c 0
 1287 903.667 1280 886 1266 870 c 1
 1243.68 848.853 1170.21 813.05 1136 819 c 1
 1126.67 829.667 1122 845 1122 865 c 0
 1122 956.2 1191.36 979 1231 979 c 0
1085 972 m 1
 1071.2 893.826 1004.11 864 980 864 c 0
 944.706 864 922 903.574 922 942 c 1
 926.549 1005.68 981.283 1030 1014 1030 c 0
 1052.58 1030 1085 1006.29 1085 972 c 1
1242 522 m 1
 1252.57 552.397 1319.21 587 1361 587 c 0
 1397.04 587 1437 574 1437 522 c 1
 1421.24 485.218 1374.37 454 1335 454 c 0
 1291.48 454 1242 486.052 1242 522 c 1
1325 304 m 0
 1325 278.256 1294.53 230 1226 230 c 0
 1165.2 230 1150 291.525 1150 317 c 0
 1150 358.688 1206.58 368 1242 368 c 0
 1318.68 368 1325 319.744 1325 304 c 0
769 970 m 1
 797.475 970 844 957.8 844 909 c 0
 844 891.667 839 874.667 829 858 c 1
 821 841.333 808.667 829 792 821 c 1
 769 817 l 1
 735.4 817 701.197 834.655 685 863 c 1
 684 878 l 1
 684 900.655 692.382 945.71 739 965 c 1
 769 970 l 1
1023 220 m 1
 1056.41 220 1104.66 193.507 1121 169 c 1
 1123.67 163 1125.67 154 1127 142 c 1
 1127 113.6 1112.09 88.1207 1075 71 c 1
 1040 66 l 1
 1007.33 66 982.667 78.3333 966 103 c 1
 961 133 l 2
 961 133.01 957.307 193.542 1004 218 c 1
 1023 220 l 1
657 730 m 0
 657 709.252 646.614 667 570 667 c 0
 494.27 667 483 702.4 483 726 c 0
 483 765.103 519.626 806 573 806 c 0
 612.439 806 657 782.007 657 730 c 0
565 523 m 1
 561.667 505.667 547 489.667 521 475 c 1
 495 462.333 469.667 456 445 456 c 0
 425.667 456 408.333 462 393 474 c 1
 380.333 486 375.333 502.667 378 524 c 1
 384.754 561.822 426.872 589 477 589 c 0
 519.41 589 566.449 566.467 565 523 c 1
733 76 m 1
 738.696 102.203 785.178 164 827 164 c 0
 866.884 164 900.348 113.433 895 76 c 1
 886.27 39.8312 842.458 -3 792 -3 c 0
 774.667 -3 759.667 5.33333 747 22 c 1
 737.667 36 733 54 733 76 c 1
382 284 m 1
 382 329.785 438.194 374 498 374 c 0
 545.766 374 563.59 357.512 572 347 c 1
 584.256 314.828 536.017 258.507 494 241 c 1
 484 233.667 470.333 230 453 230 c 0
 422.333 230 399.333 242 384 266 c 1
 382 284 l 1
684 174 m 0
 684 105.911 636.075 69 565 69 c 0
 549.572 69 513 69.4563 513 118 c 256
 513 134.667 521.333 154 538 176 c 1
 556.595 208.119 616.561 223 642 223 c 1
 665 219 l 1
 677.667 213.667 684 198.667 684 174 c 0
1865 1074 m 1
 218 1074 l 1
 167 1232 l 1
 1817 1232 l 1
 1865 1074 l 1
EndSplineSet
EndChar

StartChar: u0950
Encoding: 2384 2384 86
Width: 1931
GlyphClass: 2
Flags: HW
LayerCount: 2
Back
Fore
SplineSet
1570 1436 m 1
 1367 1270 l 1
 1239 1439 l 1
 1439 1597 l 1
 1570 1436 l 1
1362 1227 m 0
 1423 1227 1551.45 1265.87 1667 1429 c 1
 1808 1330 l 1
 1640.88 1107.17 1468 1074 1383 1074 c 0
 1254.58 1074 1073.39 1136.47 992 1366 c 1
 1099 1443 l 1
 1158.74 1290.8 1256.8 1227 1362 1227 c 0
2008 813 m 0
 2008 597.846 1839.75 448 1674 448 c 0
 1582.8 448 1523.29 483.317 1446 616 c 1
 1360.27 515.981 1256.67 410 1140 410 c 0
 1077.6 410 1032.23 433.513 984 476 c 1
 996 476 l 1
 977.383 338.701 840.571 180 601 180 c 0
 357.4 180 247.542 436.266 195 641 c 1
 290 692 l 1
 338.954 491.928 412 338 595 338 c 0
 726.011 338 831.114 441.842 851 545 c 1
 856 587 l 1
 856 654.2 807.092 685.99 775 699 c 1
 651 655 l 1
 606.333 641 576.333 634 561 634 c 0
 538.745 634 468 730.204 468 756 c 1
 476 792 497.667 810 533 810 c 0
 565.953 810 587.705 814.309 608 816 c 1
 720 831 l 1
 752.582 831 847.642 891.19 871 989 c 1
 873 1022 l 1
 873 1084.03 829.775 1119 771 1119 c 0
 735.667 1119 690.667 1108 636 1086 c 1
 485 1014 l 1
 461 1014 447.367 1044.67 445 1050 c 2
 431 1097 l 1
 417 1158 l 1
 556.308 1222.79 654.6 1244 714 1244 c 0
 866.072 1244 1015 1085.65 1015 971 c 2
 1015 943 l 1
 1008.09 916.744 999.442 822.996 877 756 c 1
 903.986 738.009 933.52 713.029 956 687 c 1
 1035.33 605.639 1020.24 550 1104 550 c 0
 1162.6 550 1287.22 595.738 1397 794 c 1
 1448.33 890 1509.67 961.667 1581 1009 c 1
 1644.33 1049 1711 1069 1781 1069 c 0
 1900.05 1069 2008 967.727 2008 813 c 0
1519 707 m 1
 1540.34 650.974 1592.9 607 1662 607 c 0
 1735.42 607 1858.84 693.452 1885 816 c 1
 1889 849 l 1
 1889 896.989 1863 941 1824 941 c 0
 1715.9 941 1648.54 880.951 1519 707 c 1
EndSplineSet
EndChar

StartChar: u093D
Encoding: 2365 2365 87
Width: 998
GlyphClass: 2
Flags: HW
LayerCount: 2
Back
Fore
SplineSet
316 492 m 1
 389.865 347.787 441.908 287 551 287 c 0
 638.981 287 768.058 366.963 797 491 c 1
 801 530 l 1
 801 568.667 788 610.667 762 656 c 1
 746.667 685.333 720.333 720.333 683 761 c 0
 455.437 1015.87 436.86 1079.52 558 1175.5 c 128
 601.333 1209.83 647 1227 695 1227 c 2
 1070 1227 l 1
 1121 1072 l 1
 714 1072 l 2
 671.152 1072 661.257 1055.03 652 1018 c 1
 646.667 987.333 693.333 920.667 792 818 c 1
 856.395 749.254 959 621.8 959 491 c 1
 955 444 l 1
 923.01 301.275 758.846 133 566 133 c 0
 399.081 133 266.114 300.27 223 435 c 1
 316 492 l 1
EndSplineSet
EndChar

StartChar: u0903
Encoding: 2307 2307 88
Width: 705
GlyphClass: 2
Flags: HW
LayerCount: 2
Back
Fore
SplineSet
1040 1072 m 1
 224 1072 l 1
 170 1230 l 1
 990 1230 l 1
 1040 1072 l 1
843 768 m 1
 600 577 l 1
 452 771 l 1
 680 957 l 1
 843 768 l 1
715 164 m 1
 472 -31 l 1
 323 164 l 1
 552 355 l 1
 715 164 l 1
EndSplineSet
EndChar

StartChar: quoteright
Encoding: 8217 8217 89
Width: 571
GlyphClass: 2
Flags: HW
LayerCount: 2
Back
Fore
SplineSet
665 1588 m 1
 718.468 1552.67 796 1486.6 796 1419 c 0
 796 1355.84 727.22 1249.9 531 1001 c 1
 491 1083 l 1
 529.826 1133.28 629 1262.2 629 1307 c 0
 629 1326.33 597.333 1366.33 534 1427 c 1
 665 1588 l 1
EndSplineSet
EndChar

StartChar: parenleft
Encoding: 40 40 90
Width: 868
GlyphClass: 2
Flags: HW
LayerCount: 2
Back
Fore
SplineSet
944 1358 m 1
 892 1351.33333333 844.5 1334.5 801.5 1307.5 c 128
 758.5 1280.5 719.166666667 1246.33333333 683.5 1205 c 128
 647.833333333 1163.66666667 615.833333333 1116.33333333 587.5 1063 c 128
 559.166666667 1009.66666667 534.333333333 953.166666667 513 893.5 c 128
 491.666666667 833.833333333 473.333333333 772.666666667 458 710 c 128
 442.666666667 647.333333333 430.166666667 585.5 420.5 524.5 c 128
 410.833333333 463.5 403.833333333 405.166666667 399.5 349.5 c 128
 395.166666667 293.833333333 393 243.666666667 393 199 c 256
 393 154.333333333 396.333333333 110.666666667 403 68 c 128
 409.666666667 25.3333333333 422.166666667 -13.3333333333 440.5 -48 c 128
 458.833333333 -82.6666666667 484.166666667 -111.666666667 516.5 -135 c 128
 548.833333333 -158.333333333 590.333333333 -173.333333333 641 -180 c 1
 618 -291 l 1
 532 -289 459 -272.833333333 399 -242.5 c 128
 339 -212.166666667 290.166666667 -171.5 252.5 -120.5 c 128
 214.833333333 -69.5 187.5 -9.83333333333 170.5 58.5 c 128
 153.5 126.833333333 145 200.333333333 145 279 c 0
 145 360.333333333 152 445.666666667 166 535 c 128
 180 624.333333333 201.333333333 712.666666667 230 800 c 128
 258.666666667 887.333333333 295.166666667 970.666666667 339.5 1050 c 128
 383.833333333 1129.33333333 436.333333333 1199.5 497 1260.5 c 128
 557.666666667 1321.5 627.166666667 1370.66666667 705.5 1408 c 128
 783.833333333 1445.33333333 871 1465.33333333 967 1468 c 1
 944 1358 l 1
EndSplineSet
EndChar

StartChar: parenright
Encoding: 41 41 91
Width: 868
GlyphClass: 2
Flags: HW
LayerCount: 2
Back
Fore
SplineSet
723 899 m 0
 723 818.333333333 716.166666667 733.333333333 702.5 644 c 128
 688.833333333 554.666666667 667.5 466.333333333 638.5 379 c 128
 609.5 291.666666667 573 208.166666667 529 128.5 c 128
 485 48.8333333333 432.5 -21.6666666667 371.5 -83 c 128
 310.5 -144.333333333 241 -193.666666667 163 -231 c 128
 85 -268.333333333 -2 -288.333333333 -98 -291 c 1
 -78 -180 l 1
 -26 -173.333333333 21.6666666667 -156.5 65 -129.5 c 128
 108.333333333 -102.5 147.666666667 -68.1666666667 183 -26.5 c 128
 218.333333333 15.1666666667 250.166666667 62.8333333333 278.5 116.5 c 128
 306.833333333 170.166666667 331.833333333 226.833333333 353.5 286.5 c 128
 375.166666667 346.166666667 393.666666667 407.5 409 470.5 c 128
 424.333333333 533.5 436.833333333 595.333333333 446.5 656 c 128
 456.166666667 716.666666667 463.333333333 774.833333333 468 830.5 c 128
 472.666666667 886.166666667 475 936.333333333 475 981 c 256
 475 1025.66666667 471.666666667 1069.16666667 465 1111.5 c 128
 458.333333333 1153.83333333 445.833333333 1192.16666667 427.5 1226.5 c 128
 409.166666667 1260.83333333 383.833333333 1289.66666667 351.5 1313 c 128
 319.166666667 1336.33333333 277.666666667 1351.33333333 227 1358 c 1
 250 1468 l 1
 335.333333333 1465.33333333 408 1449 468 1419 c 128
 528 1389 576.833333333 1348.66666667 614.5 1298 c 128
 652.166666667 1247.33333333 679.666666667 1187.83333333 697 1119.5 c 128
 714.333333333 1051.16666667 723 977.666666667 723 899 c 0
EndSplineSet
EndChar

StartChar: u0964
Encoding: 2404 2404 92
Width: 637
GlyphClass: 2
Flags: HW
LayerCount: 2
Back
Fore
SplineSet
478 -8 m 1
 333 95 l 1
 576 1255 l 1
 724 1149 l 1
 478 -8 l 1
EndSplineSet
EndChar

StartChar: u0905
Encoding: 2309 2309 112
Width: 1436
GlyphClass: 2
Flags: HW
LayerCount: 2
Back
Fore
SplineSet
1022 939 m 1
 1022 891.216 984.728 808.474 887 755 c 1
 971.667 686.333 1054.33 652 1135 652 c 0
 1181.28 652 1297.76 684.09 1332 723 c 1
 1406 1070 l 1
 1132 1070 l 1
 1078 1228 l 1
 1712 1228 l 1
 1759 1072 l 1
 1570 1072 l 1
 1341 0 l 1
 1193 98 l 1
 1285 533 l 1
 1265 525.667 1241 519.667 1213 515 c 1
 1150 511 l 2
 1135.52 511 1083.28 516.36 1000 558 c 1
 1002 539 l 1
 1002 523 l 2
 1002 355.399 843.927 189 605 189 c 0
 359.6 189 252.17 442.502 196 644 c 1
 296 695 l 1
 336.695 510.904 404.148 340 602 340 c 0
 735.23 340 833.313 444.806 859 550 c 1
 863 585 l 1
 863 611.667 855.333 634.667 840 654 c 1
 827.333 672.667 807.667 687.333 781 698 c 1
 667 659 l 1
 614.333 643.667 581 635.333 567 634 c 1
 539.689 634 487 701.3 487 761 c 0
 487 793.667 503.667 810 537 810 c 1
 728 829 l 1
 758.447 829 855.838 895.832 876 988 c 1
 880 1021 l 1
 880 1078.88 838.928 1118 779 1118 c 0
 731.007 1118 667.03 1097.5 599 1067 c 1
 497 1016 l 1
 481.667 1016 464.667 1039.67 446 1087 c 1
 427 1158 l 1
 576.462 1220.57 664.6 1244 724 1244 c 0
 888.869 1244 1024 1110.74 1024 965 c 1
 1022 939 l 1
EndSplineSet
EndChar

StartChar: comma
Encoding: 44 44 113
Width: 657
GlyphClass: 2
Flags: HW
LayerCount: 2
Back
Fore
SplineSet
410 172 m 0
 410 132 402.5 91.6666666667 387.5 51 c 128
 372.5 10.3333333333 352 -29.3333333333 326 -68 c 128
 300 -106.666666667 269.833333333 -143.166666667 235.5 -177.5 c 128
 201.166666667 -211.833333333 164.666666667 -242 126 -268 c 128
 87.3333333333 -294 47.5 -315.166666667 6.5 -331.5 c 128
 -34.5 -347.833333333 -74.3333333333 -357.333333333 -113 -360 c 1
 -94 -260 l 1
 -56 -254.666666667 -20.1666666667 -244.666666667 13.5 -230 c 128
 47.1666666667 -215.333333333 77.3333333333 -196.5 104 -173.5 c 128
 130.666666667 -150.5 153 -123.333333333 171 -92 c 128
 189 -60.6666666667 201 -25.3333333333 207 14 c 1
 82 14 l 1
 68.6666666667 26.6666666667 58.5 41.3333333333 51.5 58 c 128
 44.5 74.6666666667 41 92.3333333333 41 111 c 0
 41 138.333333333 46.8333333333 164.5 58.5 189.5 c 128
 70.1666666667 214.5 85.6666666667 236.5 105 255.5 c 128
 124.333333333 274.5 146.666666667 289.5 172 300.5 c 128
 197.333333333 311.5 224 317 252 317 c 0
 298 317 335.833333333 305.166666667 365.5 281.5 c 128
 395.166666667 257.833333333 410 221.333333333 410 172 c 0
EndSplineSet
EndChar

StartChar: hyphen
Encoding: 45 45 114
Width: 713
GlyphClass: 2
Flags: HW
LayerCount: 2
Back
Fore
SplineSet
598 385 m 1
 61 385 l 1
 104 602 l 1
 641 602 l 1
 598 385 l 1
EndSplineSet
EndChar

StartChar: period
Encoding: 46 46 115
Width: 651
GlyphClass: 2
Flags: HW
LayerCount: 2
Back
Fore
SplineSet
391 145 m 0
 391 121.666666667 386.5 99.6666666667 377.5 79 c 128
 368.5 58.3333333333 356.333333333 40.3333333333 341 25 c 128
 325.666666667 9.66666666667 307.666666667 -2.5 287 -11.5 c 128
 266.333333333 -20.5 244.333333333 -25 221 -25 c 256
 197.666666667 -25 175.5 -20.5 154.5 -11.5 c 128
 133.5 -2.5 115.166666667 9.66666666667 99.5 25 c 128
 83.8333333333 40.3333333333 71.5 58.3333333333 62.5 79 c 128
 53.5 99.6666666667 49 121.666666667 49 145 c 0
 49 169 53.5 191.333333333 62.5 212 c 128
 71.5 232.666666667 83.8333333333 250.833333333 99.5 266.5 c 128
 115.166666667 282.166666667 133.5 294.5 154.5 303.5 c 128
 175.5 312.5 197.666666667 317 221 317 c 256
 244.333333333 317 266.333333333 312.5 287 303.5 c 128
 307.666666667 294.5 325.666666667 282.166666667 341 266.5 c 128
 356.333333333 250.833333333 368.5 232.666666667 377.5 212 c 128
 386.5 191.333333333 391 169 391 145 c 0
EndSplineSet
EndChar

StartChar: slash
Encoding: 47 47 116
Width: 1026
GlyphClass: 2
Flags: HW
LayerCount: 2
Back
Fore
SplineSet
160 -190 m 1
 0 -190 l 1
 864 1374 l 1
 1026 1374 l 1
 160 -190 l 1
EndSplineSet
EndChar

StartChar: u0966
Encoding: 2406 2406 117
Width: 1047
GlyphClass: 2
Flags: HW
LayerCount: 2
Back
Fore
SplineSet
770 954 m 0
 914.229 954 1046 844.655 1046 684 c 0
 1046 662.667 1043 639 1037 613 c 1
 1010.88 461.512 783.537 237 596 237 c 0
 432.383 237 310 335.432 310 499 c 0
 310 750 594.775 954 770 954 c 0
479 584 m 1
 479 458.899 572.377 378 705 378 c 0
 770.164 378 849.254 445.46 873 560 c 1
 878 610 l 1
 878 720.222 802.8 815 690 815 c 0
 651.566 815 526.451 809.827 484 638 c 1
 480 612 l 1
 479 584 l 1
EndSplineSet
EndChar

StartChar: u0967
Encoding: 2407 2407 118
Width: 1047
GlyphClass: 2
Flags: HW
LayerCount: 2
Back
Fore
SplineSet
541 394 m 1
 633.18 304.927 862 81.6053 862 -53 c 1
 859 -77 l 1
 848.112 -134.551 823.323 -168.547 769 -209 c 1
 611 -97 l 1
 653 -69 l 1
 672.333 -54.3333 684.333 -40.6667 689 -28 c 1
 710.188 75.2918 344.184 419.82 334 429 c 1
 420.133 493.953 557.245 610.245 618 671 c 1
 446.804 772.32 411 879 411 931 c 1
 415 961 l 1
 437.812 1082.66 578.175 1222 718 1222 c 0
 874.766 1222 984 1074.72 984 944 c 1
 980 907 l 1
 962.005 812.526 895.693 737.308 784 629 c 2
 541 394 l 1
822 993 m 1
 822 1031.7 804.8 1079 736 1079 c 256
 681.712 1079 592.107 1011.68 575 929 c 1
 573 908 l 1
 573 886.667 584 862 606 834 c 1
 621.45 816.343 639.135 799.645 695 756 c 1
 739.823 799.464 805.535 907.769 820 963 c 1
 822 993 l 1
EndSplineSet
EndChar

StartChar: u0968
Encoding: 2408 2408 119
Width: 1047
GlyphClass: 2
Flags: HW
LayerCount: 2
Back
Fore
SplineSet
1095 884 m 1
 1095 812.749 1012.31 528.112 705 425 c 1
 911 -109 l 1
 785 -174 l 1
 568 394 l 1
 460.413 394 385 417.6 385 512 c 0
 385 549.6 402.86 655.932 457 700 c 0
 475.667 714 500.667 721 532 721 c 0
 546 721 568.667 697.667 600 651 c 2
 643 587 l 1
 812.231 621.396 933.48 751.807 966 904 c 1
 970 930 l 1
 971 956 l 1
 971 1043.4 910.516 1089 832 1089 c 0
 759.2 1089 632.545 1068.9 468 1011 c 1
 370 1156 l 1
 611.529 1242.8 722.8 1248 811 1248 c 0
 949.675 1248 1096 1104.93 1096 919 c 1
 1095 884 l 1
EndSplineSet
EndChar

StartChar: u0969
Encoding: 2409 2409 120
Width: 1047
GlyphClass: 2
Flags: HW
LayerCount: 2
Back
Fore
SplineSet
1029 520 m 0
 1029 322.892 821.994 200.171 680 168 c 1
 832 -113 l 1
 720 -189 l 1
 586 95 l 1
 536.538 193.923 422.553 139.21 368.5 206.5 c 128
 352.167 226.833 344 251.667 344 281 c 2
 344 300 l 1
 349 329 l 1
 373.582 447.813 433.443 462 474 462 c 0
 497.8 462 543.678 411.054 593 322 c 1
 763.717 322 858.565 420.097 879 520 c 1
 881 548 l 1
 881 581.333 870.333 611.333 849 638 c 1
 829.667 664.667 805.333 678 776 678 c 1
 642 659 l 1
 594.667 653.667 552 651 514 651 c 0
 423.6 651 401 710.963 401 758 c 0
 401 803.724 413.634 818.294 455 824 c 1
 525 828 l 1
 584 828 l 1
 603.333 825.333 617.667 823.667 627 823 c 2
 725 814 l 1
 739 815.333 757.667 822.333 781 835 c 0
 837.667 867.667 873.333 910.333 888 963 c 1
 889 984 l 1
 889 1038.67 837.667 1066 735 1066 c 2
 420 1066 l 1
 360 1224 l 1
 690 1224 l 2
 798 1224 885 1190.67 951 1124 c 1
 1003.67 1068 1030 1005.67 1030 937 c 1
 1026 901 l 1
 1018.06 859.339 980.005 787.575 898 729 c 1
 967.312 663.593 1029 595.292 1029 520 c 0
EndSplineSet
EndChar

StartChar: u096A
Encoding: 2410 2410 121
Width: 1047
GlyphClass: 2
Flags: HW
LayerCount: 2
Back
Fore
SplineSet
405 372 m 0
 405 481.127 456.969 578.485 639 719 c 1
 607.667 761.667 535.667 833.333 423 934 c 1
 211 1113 l 1
 331 1198 l 1
 728 791 l 1
 1255 1230 l 1
 1290 1069 l 1
 834 691 l 1
 978.67 561.4 1035 452.6 1035 393 c 1
 1027.29 269.66 864.797 143 666 143 c 0
 518.256 143 405 227.769 405 372 c 0
637 269 m 0
 728.438 269 855.062 341.995 860 421 c 1
 860 458.6 829.455 528.023 742 609 c 1
 584.948 484.072 536.975 405.546 534 352 c 1
 534 301.476 580.128 269 637 269 c 0
EndSplineSet
EndChar

StartChar: u096B
Encoding: 2411 2411 122
Width: 1047
GlyphClass: 2
Flags: HW
LayerCount: 2
Back
Fore
SplineSet
697 662 m 2
 697 705.27 697.412 781 799 781 c 0
 844.541 781 950.057 675.723 940 624 c 1
 934.667 604 922.333 578.333 903 547 c 0
 889.667 527 872 505 850 481 c 1
 986 -137 l 1
 856 -191 l 1
 744 394 l 1
 711.199 375.01 607.905 319 529 319 c 0
 361.797 319 190 498.613 190 670 c 1
 194 714 l 1
 218.769 820.9 299.849 1032.87 402 1229 c 1
 550 1099 l 1
 466.977 956.987 359.778 739.307 339 651 c 1
 335 614 l 1
 335 531.2 399.675 476 501 476 c 0
 546.203 476 645.4 501.4 702 558 c 1
 698 604 l 1
 697 662 l 2
EndSplineSet
EndChar

StartChar: u096C
Encoding: 2412 2412 123
Width: 1047
GlyphClass: 2
Flags: HW
LayerCount: 2
Back
Fore
SplineSet
690 349 m 1
 690 405.092 707.2 481 776 481 c 0
 816.232 481 958.255 378.233 951 326 c 1
 946.687 306.053 931.712 250.816 860 205 c 1
 963 -125 l 1
 849 -174 l 1
 756 149 l 1
 742 149 731.333 148.333 724 147 c 1
 703 147 l 2
 436.646 147 256 327.98 256 502 c 1
 260 545 l 1
 273.621 619.16 341.758 694.717 399 734 c 1
 319.531 823.614 296 925.2 296 973 c 2
 296 989 l 1
 324.751 1219.01 652.527 1226 736 1226 c 2
 791.5 1226 l 130
 813.567 1226 899.81 1217.94 952 1208 c 1
 998 1052 l 1
 894.667 1067.33 806.333 1075 733 1075 c 0
 586.943 1075 477.128 1046.6 453 934 c 1
 451 909 l 1
 451 837.287 512.656 797 557 797 c 0
 593.3 797 708.25 822 799 822 c 0
 839 822 869.667 809.667 891 785 c 1
 906.333 765 914 740.667 914 712 c 1
 910 673 l 1
 906.621 657.795 870.012 629 749 629 c 1
 674 633 l 1
 586 644 l 1
 546.193 644 438.8 577.477 416 482 c 1
 414 454 l 1
 414 378.763 477.169 291 599 291 c 0
 627 291 658.667 296.333 694 307 c 1
 690 349 l 1
EndSplineSet
EndChar

StartChar: u096D
Encoding: 2413 2413 124
Width: 1047
GlyphClass: 2
Flags: HW
LayerCount: 2
Back
Fore
SplineSet
888 1100 m 256
 1068.18 1100 1179 941.299 1179 792 c 0
 1179 751.333 1171.67 697.667 1157 631 c 0
 1126.33 483 1060.33 362.333 959 269 c 0
 865 183.667 762.667 141 652 141 c 0
 330.597 141 228 472.322 228 841 c 0
 228 955.667 237.667 1081 257 1217 c 1
 371 1260 l 1
 346.844 1075.38 343 962.4 343 888 c 0
 343 510 455.333 321 680 321 c 0
 814 321 942.366 382.836 1015 596 c 1
 981.667 579.333 939 571 887 571 c 0
 726.706 571 625 658.743 625 806 c 0
 625 1015.07 770.625 1100 888 1100 c 256
870 679 m 0
 973.695 679 1063 790.36 1063 848 c 0
 1063 889.4 1013.95 917 949 917 c 0
 908.044 917 780.654 906.883 768 793 c 1
 768 779 l 2
 768 713.517 810.928 679 870 679 c 0
EndSplineSet
EndChar

StartChar: u096E
Encoding: 2414 2414 125
Width: 1047
GlyphClass: 2
Flags: HW
LayerCount: 2
Back
Fore
SplineSet
502 187 m 0
 641.807 187 817.759 311.962 968 426 c 1
 1066 309 l 1
 943.609 200.208 758.8 62 554 62 c 0
 323.978 62 166 208.628 166 351 c 2
 166 367 l 1
 175.478 438.083 204.308 482.773 255 536 c 1
 457 732 l 1
 730 985 l 1
 1031 1259 l 1
 1077 1093 l 1
 363 420 l 1
 332.333 389.333 313.333 360 306 332 c 1
 306 232.75 427.508 187 502 187 c 0
EndSplineSet
EndChar

StartChar: u096F
Encoding: 2415 2415 126
Width: 1047
GlyphClass: 2
Flags: HW
LayerCount: 2
Back
Fore
SplineSet
729 1246 m 0
 881.194 1246 1005 1116.17 1005 982 c 1
 1001 940 l 1
 968.495 787.879 767.602 634 572 634 c 1
 598.667 589.333 645.333 524.333 712 439 c 1
 868 245 l 1
 931.927 170.418 960 97.8 960 61 c 2
 960 43 l 1
 952.156 -1.82233 893.097 -72.0677 783 -157 c 1
 652 -34 l 1
 762.906 35.9192 792.223 59.3365 798 81 c 1
 802 103 l 1
 802 122.333 790.333 149.667 767 185 c 0
 750.333 211.667 707 268.667 637 356 c 1
 397 692 l 1
 320.113 797.532 306 846.4 306 885 c 1
 307 907 l 1
 315.43 947.044 332.228 1054.1 462.5 1153 c 128
 544.167 1215 633 1246 729 1246 c 0
466 836 m 1
 466 806.165 466.232 798.41 476 763 c 1
 665.739 763 809.961 869.988 844 1014 c 1
 846 1040 l 1
 846 1094.4 802.539 1108 759 1108 c 0
 639.804 1108 504.383 1023.03 468 871 c 1
 466 836 l 1
EndSplineSet
EndChar

StartChar: colon
Encoding: 58 58 127
Width: 651
GlyphClass: 2
Flags: HW
LayerCount: 2
Back
Fore
SplineSet
391 145 m 0
 391 121.666666667 386.5 99.6666666667 377.5 79 c 128
 368.5 58.3333333333 356.333333333 40.3333333333 341 25 c 128
 325.666666667 9.66666666667 307.666666667 -2.5 287 -11.5 c 128
 266.333333333 -20.5 244.333333333 -25 221 -25 c 256
 197.666666667 -25 175.5 -20.5 154.5 -11.5 c 128
 133.5 -2.5 115.166666667 9.66666666667 99.5 25 c 128
 83.8333333333 40.3333333333 71.5 58.3333333333 62.5 79 c 128
 53.5 99.6666666667 49 121.666666667 49 145 c 0
 49 169 53.5 191.333333333 62.5 212 c 128
 71.5 232.666666667 83.8333333333 250.833333333 99.5 266.5 c 128
 115.166666667 282.166666667 133.5 294.5 154.5 303.5 c 128
 175.5 312.5 197.666666667 317 221 317 c 256
 244.333333333 317 266.333333333 312.5 287 303.5 c 128
 307.666666667 294.5 325.666666667 282.166666667 341 266.5 c 128
 356.333333333 250.833333333 368.5 232.666666667 377.5 212 c 128
 386.5 191.333333333 391 169 391 145 c 0
530 848 m 256
 530 824.666666667 525.666666667 802.666666667 517 782 c 128
 508.333333333 761.333333333 496.333333333 743.333333333 481 728 c 128
 465.666666667 712.666666667 447.666666667 700.5 427 691.5 c 128
 406.333333333 682.5 384 678 360 678 c 0
 336.666666667 678 314.5 682.5 293.5 691.5 c 128
 272.5 700.5 254.166666667 712.666666667 238.5 728 c 128
 222.833333333 743.333333333 210.5 761.333333333 201.5 782 c 128
 192.5 802.666666667 188 824.666666667 188 848 c 256
 188 871.333333333 192.5 893.5 201.5 914.5 c 128
 210.5 935.5 222.833333333 953.833333333 238.5 969.5 c 128
 254.166666667 985.166666667 272.5 997.5 293.5 1006.5 c 128
 314.5 1015.5 336.666666667 1020 360 1020 c 0
 384 1020 406.333333333 1015.5 427 1006.5 c 128
 447.666666667 997.5 465.666666667 985.166666667 481 969.5 c 128
 496.333333333 953.833333333 508.333333333 935.5 517 914.5 c 128
 525.666666667 893.5 530 871.333333333 530 848 c 256
EndSplineSet
EndChar

StartChar: semicolon
Encoding: 59 59 128
Width: 651
GlyphClass: 2
Flags: HW
LayerCount: 2
Back
Fore
SplineSet
410 172 m 0
 410 132 402.5 91.6666666667 387.5 51 c 128
 372.5 10.3333333333 352 -29.3333333333 326 -68 c 128
 300 -106.666666667 269.833333333 -143.166666667 235.5 -177.5 c 128
 201.166666667 -211.833333333 164.666666667 -242 126 -268 c 128
 87.3333333333 -294 47.5 -315.166666667 6.5 -331.5 c 128
 -34.5 -347.833333333 -74.3333333333 -357.333333333 -113 -360 c 1
 -94 -260 l 1
 -56 -254.666666667 -20.1666666667 -244.666666667 13.5 -230 c 128
 47.1666666667 -215.333333333 77.3333333333 -196.5 104 -173.5 c 128
 130.666666667 -150.5 153 -123.333333333 171 -92 c 128
 189 -60.6666666667 201 -25.3333333333 207 14 c 1
 82 14 l 1
 68.6666666667 26.6666666667 58.5 41.3333333333 51.5 58 c 128
 44.5 74.6666666667 41 92.3333333333 41 111 c 0
 41 138.333333333 46.8333333333 164.5 58.5 189.5 c 128
 70.1666666667 214.5 85.6666666667 236.5 105 255.5 c 128
 124.333333333 274.5 146.666666667 289.5 172 300.5 c 128
 197.333333333 311.5 224 317 252 317 c 0
 298 317 335.833333333 305.166666667 365.5 281.5 c 128
 395.166666667 257.833333333 410 221.333333333 410 172 c 0
530 848 m 256
 530 824.666666667 525.666666667 802.666666667 517 782 c 128
 508.333333333 761.333333333 496.333333333 743.333333333 481 728 c 128
 465.666666667 712.666666667 447.666666667 700.5 427 691.5 c 128
 406.333333333 682.5 384 678 360 678 c 0
 336.666666667 678 314.5 682.5 293.5 691.5 c 128
 272.5 700.5 254.166666667 712.666666667 238.5 728 c 128
 222.833333333 743.333333333 210.5 761.333333333 201.5 782 c 128
 192.5 802.666666667 188 824.666666667 188 848 c 256
 188 871.333333333 192.5 893.5 201.5 914.5 c 128
 210.5 935.5 222.833333333 953.833333333 238.5 969.5 c 128
 254.166666667 985.166666667 272.5 997.5 293.5 1006.5 c 128
 314.5 1015.5 336.666666667 1020 360 1020 c 0
 384 1020 406.333333333 1015.5 427 1006.5 c 128
 447.666666667 997.5 465.666666667 985.166666667 481 969.5 c 128
 496.333333333 953.833333333 508.333333333 935.5 517 914.5 c 128
 525.666666667 893.5 530 871.333333333 530 848 c 256
EndSplineSet
EndChar

StartChar: u0907
Encoding: 2311 2311 130
Width: 820
GlyphClass: 2
Flags: HW
LayerCount: 2
Back
Fore
SplineSet
300 779 m 0
 300 912.6 388.3 946 479 946 c 2
 757 946 l 1
 782 1069 l 1
 218 1069 l 1
 164 1227 l 1
 1083 1227 l 1
 1141 1072 l 1
 938 1072 l 1
 890 849 l 2
 884.667 820.333 863 806 825 806 c 2
 522 806 l 2
 440.4 806 420 755.3 420 713 c 0
 420 660.009 451.263 607 498 607 c 0
 553.87 607 667.804 653 712 653 c 0
 801.592 653 875 513.829 875 420 c 1
 874 399 l 1
 843.311 260.285 717.48 162.762 518 114 c 1
 729 -161 l 1
 623 -238 l 1
 476.083 8.74528 417.552 77.8475 394 86 c 1
 307.789 86 201 115.2 201 232 c 0
 201 258 203.352 277.849 207 297 c 1
 215.095 323.599 263.478 375 326 375 c 0
 355.673 375 416.242 328.493 451 248 c 1
 554.898 248 718.799 313.648 743 436 c 1
 748 473 l 1
 748 500.333 734 514 706 514 c 0
 657.355 514 542.43 464 496 464 c 0
 382.727 464 300 627.068 300 779 c 0
EndSplineSet
EndChar

StartChar: u0909
Encoding: 2313 2313 131
Width: 1058
GlyphClass: 2
Flags: HW
LayerCount: 2
Back
Fore
SplineSet
923 931 m 0
 923 987.968 886.761 1042.45 852 1071 c 1
 201 1071 l 1
 147 1229 l 1
 1328 1229 l 1
 1384 1072 l 1
 1009 1072 l 1
 1023.93 1041.56 1068 946.935 1068 877 c 0
 1068 797.4 1025.61 736.637 886 678 c 1
 982.998 640.494 1067 526.023 1067 413 c 1
 1063 376 l 1
 1022.69 184.196 834.54 91 692 91 c 0
 580.667 91 482.333 141.333 397 242 c 1
 325.667 328.667 275.667 436.667 247 566 c 1
 361 615 l 1
 434.101 363.207 506.042 235 675 235 c 0
 787.979 235 882.32 321.475 903 421 c 1
 907 458 l 1
 907 500.667 888.333 536 851 564 c 0
 820.333 586 773 605.333 709 622 c 1
 642 607 l 1
 575 600 l 1
 560 600 l 2
 554 600 548.333 600.667 543 602 c 2
 514 613 l 1
 489.843 639.354 471 709.8 471 734 c 0
 471 784.4 500.175 797 540 797 c 1
 629 789 l 1
 669 783.667 699 778.333 719 773 c 1
 813.796 787.175 923 825.145 923 931 c 0
EndSplineSet
EndChar

StartChar: u090A
Encoding: 2314 2314 132
Width: 831
GlyphClass: 2
Flags: HW
LayerCount: 2
Back
Fore
SplineSet
908 933 m 0
 908 989 869.597 1044.9 837 1073 c 1
 186 1073 l 1
 132 1231 l 1
 1666 1231 l 1
 1723 1072 l 1
 996 1072 l 1
 1010.65 1042.13 1055 947.005 1055 879 c 0
 1055 763.471 953.387 710.521 870 678 c 1
 882 673.333 889.833 669.833 893.5 667.5 c 128
 917.208 653.875 938.105 637.439 960 622 c 1
 1168.41 761.953 1234.4 770 1303 770 c 0
 1360.86 770 1476 695.658 1476 525 c 0
 1476 500.333 1473.33 472.667 1468 442 c 1
 1443.33 326.667 1377.33 216.333 1270 111 c 1
 1128 179 l 1
 1212.13 270.58 1346.68 452.207 1361 527 c 1
 1363 550 l 1
 1363 596.268 1328.23 625 1284 625 c 0
 1230.66 625 1109.97 570.757 1032 513 c 1
 1046 491 1053 463 1053 429 c 1
 1052 396 l 1
 1045.19 363.65 1021.53 184.741 789 110 c 128
 751.667 98 714 92 676 92 c 0
 563.333 92 465 142.333 381 243 c 0
 309.667 329.667 259.667 437.667 231 567 c 1
 345 616 l 1
 418.101 364.207 490.042 236 659 236 c 0
 771.979 236 866.32 322.475 887 422 c 1
 891 461 l 1
 891 503 872.333 538 835 566 c 0
 804.333 588 757 607.333 693 624 c 1
 626 609 l 1
 558 602 l 1
 543 602 l 2
 537 602 531.333 602.667 526 604 c 2
 497 615 l 1
 489.667 625 481 640.667 471 662 c 1
 467.874 672.94 454 710.992 454 736 c 0
 454 786.4 486.725 799 524 799 c 1
 612 791 l 1
 654 785.667 684.667 780.333 704 775 c 1
 798.796 789.175 908 827.145 908 933 c 0
EndSplineSet
EndChar

StartChar: question
Encoding: 63 63 133
Width: 1096
Flags: HW
LayerCount: 2
Back
Fore
SplineSet
532 133 m 256
 532 110.333333333 527.5 89.3333333333 518.5 70 c 128
 509.5 50.6666666667 497.333333333 34 482 20 c 128
 466.666666667 6 449 -5 429 -13 c 128
 409 -21 387.666666667 -25 365 -25 c 256
 342.333333333 -25 321.5 -20.5 302.5 -11.5 c 128
 283.5 -2.5 267 9.66666666667 253 25 c 128
 239 40.3333333333 228.166666667 58 220.5 78 c 128
 212.833333333 98 209 119 209 141 c 0
 209 163.666666667 213 184.833333333 221 204.5 c 128
 229 224.166666667 240 241.5 254 256.5 c 128
 268 271.5 284.666666667 283.333333333 304 292 c 128
 323.333333333 300.666666667 344.333333333 305 367 305 c 0
 391 305 413.166666667 300.333333333 433.5 291 c 128
 453.833333333 281.666666667 471.166666667 269.166666667 485.5 253.5 c 128
 499.833333333 237.833333333 511.166666667 219.5 519.5 198.5 c 128
 527.833333333 177.5 532 155.666666667 532 133 c 256
1051 1094 m 0
 1051 1047.33333333 1043.5 1003.5 1028.5 962.5 c 128
 1013.5 921.5 992.833333333 883.333333333 966.5 848 c 128
 940.166666667 812.666666667 909.5 780.333333333 874.5 751 c 128
 839.5 721.666666667 802 695.666666667 762 673 c 128
 722 650.333333333 680.666666667 631.166666667 638 615.5 c 128
 595.333333333 599.833333333 553.333333333 588 512 580 c 1
 477 406 l 1
 338 406 l 1
 391 678 l 1
 439 688 485.5 705.333333333 530.5 730 c 128
 575.5 754.666666667 615.333333333 785 650 821 c 128
 684.666666667 857 712.333333333 897.5 733 942.5 c 128
 753.666666667 987.5 764 1035.66666667 764 1087 c 0
 764 1121.66666667 758.166666667 1151.33333333 746.5 1176 c 128
 734.833333333 1200.66666667 719 1220.83333333 699 1236.5 c 128
 679 1252.16666667 655.5 1263.66666667 628.5 1271 c 128
 601.5 1278.33333333 572.333333333 1282 541 1282 c 1
 420 1047 l 2
 418.666666667 1045.66666667 415.666666667 1044.16666667 411 1042.5 c 128
 406.333333333 1040.83333333 401.5 1039.16666667 396.5 1037.5 c 128
 391.5 1035.83333333 386.833333333 1034.5 382.5 1033.5 c 128
 378.166666667 1032.5 375.666666667 1032 375 1032 c 0
 357.666666667 1032 339.833333333 1033.16666667 321.5 1035.5 c 128
 303.166666667 1037.83333333 286.5 1042.66666667 271.5 1050 c 128
 256.5 1057.33333333 244 1067.66666667 234 1081 c 128
 224 1094.33333333 219 1111.66666667 219 1133 c 0
 219 1166.33333333 226 1196.16666667 240 1222.5 c 128
 254 1248.83333333 272.666666667 1272.16666667 296 1292.5 c 128
 319.333333333 1312.83333333 346.166666667 1330.33333333 376.5 1345 c 128
 406.833333333 1359.66666667 438 1371.5 470 1380.5 c 128
 502 1389.5 533.833333333 1396.16666667 565.5 1400.5 c 128
 597.166666667 1404.83333333 626.333333333 1407 653 1407 c 0
 702.333333333 1407 750.833333333 1401.16666667 798.5 1389.5 c 128
 846.166666667 1377.83333333 888.666666667 1359.33333333 926 1334 c 128
 963.333333333 1308.66666667 993.5 1276.33333333 1016.5 1237 c 128
 1039.5 1197.66666667 1051 1150 1051 1094 c 0
EndSplineSet
EndChar

StartChar: u090B
Encoding: 2315 2315 134
Width: 1034
GlyphClass: 2
Flags: HW
LayerCount: 2
Back
Fore
SplineSet
608 908 m 0
 735.2 908 821.3 841.515 926 727 c 1
 998 1071 l 1
 224 1071 l 1
 170 1229 l 1
 1964 1229 l 1
 2013 1072 l 1
 1164 1072 l 1
 1076 662 l 1
 1099.33 656 1118.67 653 1134 653 c 0
 1230.4 653 1324.82 716.362 1375 754 c 1
 1368 798 l 1
 1366 840 l 1
 1366 908 1398.4 925 1447 925 c 0
 1499.8 925 1694.16 829.081 1684 771 c 0
 1680.67 756.333 1655 733.333 1607 702 c 1
 1546 666 l 1
 1586 522 l 2
 1600.67 466 1608 432 1608 420 c 1
 1591.99 339.962 1266.83 303.491 1237 156 c 1
 1235 133 l 1
 1235 73 1302.17 58 1353 58 c 0
 1442.8 58 1527.7 93.4196 1581 143 c 1
 1687 20 l 1
 1581.69 -60.7388 1469.43 -69 1421 -69 c 0
 1248.48 -69 1091 30.2 1091 179 c 2
 1091 207 l 1
 1100.68 243.788 1104.02 310.009 1256 386 c 2
 1433 474 l 1
 1434.33 486.667 1433.33 499.333 1430 512 c 2
 1411 598 l 1
 1372.6 572.4 1274.2 524 1183 524 c 0
 1106.8 524 1074.7 541.171 1056 552 c 1
 936 -15 l 1
 787 81 l 1
 869 466 l 1
 377 168 l 1
 265 280 l 1
 874 627 l 1
 783.96 695.553 693.469 751 610 751 c 0
 570.359 751 541.197 744.69 513 737 c 2
 393 708 l 1
 305 859 l 1
 373.512 862.606 523.56 908 608 908 c 0
EndSplineSet
EndChar

StartChar: u0960
Encoding: 2400 2400 135
Width: 1034
GlyphClass: 2
Flags: HW
LayerCount: 2
Back
Fore
SplineSet
599 901 m 0
 727.8 901 819.57 832.94 921 722 c 1
 993 1066 l 1
 222 1066 l 1
 168 1224 l 1
 1962 1224 l 1
 2015 1072 l 1
 1163 1072 l 1
 1078 671 l 1
 1134.65 665.73 1219.39 701.852 1244 762 c 1
 1239 799 l 1
 1234 856 l 1
 1234 924 1266.66 941 1313 941 c 0
 1362.92 941 1562.71 846.957 1551 784 c 0
 1547.31 760.919 1512.18 724.446 1430 685 c 1
 1570 469 l 1
 1329.18 396.119 1277 317.8 1277 280 c 0
 1277 253.6 1304.8 236 1341 236 c 0
 1396.86 236 1433.71 263.712 1456 286 c 1
 1568 148 l 1
 1440.64 87.7623 1319.39 21.5902 1303 -51 c 1
 1301 -76 l 1
 1301 -116.8 1321.95 -144 1376 -144 c 0
 1413.2 -144 1481.77 -128.032 1562 -82 c 1
 1629 -199 l 1
 1509.36 -266.903 1405.3 -281 1358 -281 c 0
 1204.36 -281 1124 -183.164 1124 -78 c 0
 1124 -40.6127 1136.34 49.9604 1239 122 c 1
 1131.03 162.143 1096 206.6 1096 263 c 1
 1098 289 l 1
 1103 319 l 1
 1124.77 426.398 1284.34 511.535 1372 544 c 1
 1323 612 l 1
 1302.3 599.152 1231.56 564 1118 564 c 0
 1082.6 564 1070.23 566.792 1059 570 c 1
 934 -20 l 1
 785 76 l 1
 864 463 l 1
 377 188 l 1
 268 299 l 1
 867 619 l 1
 801.094 670.836 699 743 587 743 c 0
 563.667 743 538.667 740.333 512 735 c 2
 388 709 l 1
 303 860 l 1
 332.6 860 539.8 901 599 901 c 0
EndSplineSet
EndChar

StartChar: u090F
Encoding: 2319 2319 139
Width: 1023
GlyphClass: 2
Flags: HW
LayerCount: 2
Back
Fore
SplineSet
1128 -93 m 1
 1121.99 -121.542 1129.06 -137.869 1001 -281 c 1
 884 -158 l 1
 926 -112 l 1
 942.692 -91.5988 969.323 -66.8571 906 -28 c 1
 359 347 l 1
 323 373.667 305 411.667 305 461 c 1
 306 486 l 1
 430 1067 l 1
 219 1067 l 1
 165 1225 l 1
 1292 1225 l 1
 1342 1067 l 1
 1120 1067 l 1
 997 488 l 2
 989 452 973.333 425.333 950 408 c 1
 926.667 392.667 896 385 858 385 c 2
 822 385 l 1
 765.696 396.853 782.744 387.07 703 409 c 1
 638 551 l 1
 717 547 l 1
 799 539 l 1
 825.667 539 841.667 549 847 569 c 1
 953 1067 l 1
 603 1067 l 1
 483 491 l 1
 479 455 l 1
 479 435.667 482 423.333 488 418 c 2
 1029 38 l 2
 1062.33 14 1087.67 -9.66667 1105 -33 c 1
 1120.33 -56.3333 1128 -76.3333 1128 -93 c 1
EndSplineSet
EndChar

StartChar: u0915.half
Encoding: 65551 -1 140
Width: 1040
GlyphClass: 3
Flags: HW
AnchorPoint: "N" 185 165 basechar 0
LayerCount: 2
Back
Fore
SplineSet
613 914 m 0
 703.417 914 795.463 894.581 877 754 c 1
 945 1074 l 1
 223 1074 l 1
 170 1232 l 1
 1767 1232 l 1
 1819 1072 l 1
 1117 1072 l 1
 1043 725 l 1
 1166.78 804.44 1233.4 808 1281 808 c 1
 1246 645 l 1
 1174.37 645 1101.72 598.523 1002 526 c 1
 891 1 l 1
 740 99 l 1
 807 414 l 1
 729.336 367.401 649.8 331 545 331 c 0
 382.045 331 265 437.828 265 594 c 0
 265 615.333 267.333 640 272 668 c 1
 282.667 719.333 310.333 767.333 355 812 c 0
 421 880 507 914 613 914 c 0
387 559 m 0
 387 524.2 408.127 472 503 472 c 0
 623.687 472 758.29 544.718 848 612 c 1
 834.662 673.356 745.127 760 605 760 c 0
 447.662 760 387 633.105 387 559 c 0
EndSplineSet
Ligature2: "'half' Half Forms in Devanagari lookup 3 subtable" u0915 u094D
LCarets2: 1 2
EndChar

StartChar: u0958.half
Encoding: 65552 -1 141
Width: 1040
GlyphClass: 3
Flags: HW
LayerCount: 2
Back
Fore
SplineSet
502 125 m 1
 332 -17 l 1
 225 125 l 1
 393 259 l 1
 502 125 l 1
614 912 m 0
 704.417 912 796.463 892.581 878 752 c 1
 946 1072 l 1
 224 1072 l 1
 171 1230 l 1
 1768 1230 l 1
 1820 1070 l 1
 1118 1070 l 1
 1044 723 l 1
 1167.78 802.44 1234.4 806 1282 806 c 1
 1247 643 l 1
 1175.37 643 1102.72 596.523 1003 524 c 1
 892 -1 l 1
 741 97 l 1
 808 412 l 1
 730.336 365.401 650.8 329 546 329 c 0
 383.045 329 266 435.828 266 592 c 0
 266 613.333 268.333 638 273 666 c 1
 283.667 717.333 311.333 765.333 356 810 c 0
 422 878 508 912 614 912 c 0
388 557 m 0
 388 522.2 409.127 470 504 470 c 0
 624.687 470 759.29 542.718 849 610 c 1
 835.662 671.356 746.127 758 606 758 c 0
 448.662 758 388 631.105 388 557 c 0
EndSplineSet
Ligature2: "'half' Half Forms in Devanagari lookup 3 subtable" u0958 u094D
EndChar

StartChar: u0915
Encoding: 2325 2325 142
Width: 954
GlyphClass: 2
Flags: HW
AnchorPoint: "N" 104 156 basechar 0
LayerCount: 2
Back
Fore
SplineSet
612 912 m 0
 771.6 912 843.339 823.309 878 757 c 1
 945 1071 l 1
 223 1071 l 1
 170 1229 l 1
 1753 1229 l 1
 1801 1072 l 1
 1117 1072 l 1
 1043 725 l 1
 1126.65 777.898 1192.55 808 1265 808 c 0
 1369.73 808 1474 706.154 1474 549 c 0
 1474 405.661 1418.73 301.419 1255 117 c 1
 1139 242 l 1
 1264.23 370.478 1354 510 1354 577 c 0
 1354 602.9 1334.31 654 1270 654 c 256
 1216 654 1117.57 606.548 1000 524 c 1
 889 -1 l 1
 738 97 l 1
 805 412 l 1
 732.877 365.397 649 329 545 329 c 0
 379.98 329 264 436.598 264 592 c 0
 264 613.333 266.333 638 271 666 c 1
 281.667 717.333 309.333 765.333 354 810 c 0
 420 878 506 912 612 912 c 0
388 562 m 0
 388 501.539 446.944 478 514 478 c 0
 608.667 478 720 521.667 848 609 c 1
 811.499 691.736 713.273 761 595 761 c 0
 460.126 761 388 648.597 388 562 c 0
EndSplineSet
EndChar

StartChar: u0958
Encoding: 2392 2392 143
Width: 954
GlyphClass: 2
Flags: HW
LayerCount: 2
Back
Fore
SplineSet
502 125 m 1
 332 -17 l 1
 225 125 l 1
 393 259 l 1
 502 125 l 1
613 910 m 0
 772.6 910 844.339 821.309 879 755 c 1
 946 1069 l 1
 224 1069 l 1
 171 1227 l 1
 1754 1227 l 1
 1802 1070 l 1
 1118 1070 l 1
 1044 723 l 1
 1127.65 775.898 1193.55 806 1266 806 c 0
 1370.73 806 1475 704.154 1475 547 c 0
 1475 403.661 1419.73 299.419 1256 115 c 1
 1140 240 l 1
 1265.23 368.478 1355 508 1355 575 c 0
 1355 600.9 1335.31 652 1271 652 c 256
 1217 652 1118.57 604.548 1001 522 c 1
 890 -3 l 1
 739 95 l 1
 806 410 l 1
 733.877 363.397 650 327 546 327 c 0
 380.98 327 265 434.598 265 590 c 0
 265 611.333 267.333 636 272 664 c 1
 282.667 715.333 310.333 763.333 355 808 c 0
 421 876 507 910 613 910 c 0
389 560 m 0
 389 499.539 447.944 476 515 476 c 0
 609.667 476 721 519.667 849 607 c 1
 812.499 689.736 714.273 759 596 759 c 0
 461.126 759 389 646.597 389 560 c 0
EndSplineSet
EndChar

StartChar: u0915.vatu
Encoding: 65553 -1 144
Width: 954
GlyphClass: 3
Flags: HW
AnchorPoint: "N" 52 -108 basechar 0
LayerCount: 2
Back
Fore
SplineSet
610 910 m 0
 769.6 910 841.339 821.309 876 755 c 1
 943 1069 l 1
 221 1069 l 1
 168 1227 l 1
 1751 1227 l 1
 1801 1072 l 1
 1117 1072 l 1
 1043 725 l 1
 1126.65 777.898 1192.55 808 1265 808 c 0
 1369.73 808 1474 706.154 1474 549 c 0
 1474 405.661 1418.73 301.419 1255 117 c 1
 1139 242 l 1
 1264.23 370.478 1354 510 1354 577 c 0
 1354 602.9 1334.31 654 1270 654 c 256
 1216 654 1117.57 606.548 1000 524 c 1
 889 -1 l 1
 738 97 l 1
 805 412 l 1
 215 19 l 1
 112 128 l 1
 464 340 l 1
 349.182 363.607 262 454.791 262 592 c 0
 262 612 264.333 636 269 664 c 1
 279.667 715.333 307.333 763.333 352 808 c 0
 418 876 504 910 610 910 c 0
593 759 m 0
 433.613 759 386 611.36 386 572.5 c 130
 386 561 l 2
 386 524.815 417.308 485.938 447 480 c 128
 460.333 477.333 481.667 476 511 476 c 0
 605.667 476 717.333 519.667 846 607 c 1
 809.499 689.736 711.273 759 593 759 c 0
EndSplineSet
Ligature2: "'vatu' Vattu Variants in Devanagari lookup 4 subtable" u0915 u0930.sub
LCarets2: 1 0
EndChar

StartChar: u0915_u094D_u0924
Encoding: 65554 -1 145
Width: 1086
GlyphClass: 2
Flags: HW
LayerCount: 2
Back
Fore
SplineSet
663 102 m 1
 470.677 273.488 415 434.8 415 518 c 2
 415 533 l 1
 427.82 622.738 496.266 694.627 533 721 c 1
 528 705 l 1
 348 705 l 1
 299 845 l 1
 1004 845 l 1
 1053 1077 l 1
 222 1077 l 1
 168 1235 l 1
 1850 1235 l 1
 1898 1072 l 1
 1218 1072 l 1
 1164 805 l 1
 1259 833 l 1
 1299.67 843 1336.67 848 1370 848 c 0
 1494.8 848 1571 716.111 1571 571 c 1
 1570 535 l 2
 1570 523 1568.33 511.667 1565 501 c 1
 1527.61 307.247 1327.72 146.988 1217 59 c 1
 1097 182 l 1
 1280.79 314.369 1432.76 450.18 1453 602 c 1
 1453 614 l 2
 1453 666 1418 692 1348 692 c 0
 1284.84 692 1202.24 672.341 1125 626 c 1
 994 2 l 1
 839 100 l 1
 970 702 l 1
 891 702 l 2
 792.333 702 714.333 680.667 657 638 c 1
 607.667 602.667 576 554.333 562 493 c 1
 560 464 l 1
 560 379.367 635.531 265.814 748 195 c 1
 663 102 l 1
EndSplineSet
EndChar

StartChar: u0915_u094D_u0937.half
Encoding: 65556 -1 147
Width: 842
GlyphClass: 3
Flags: HW
AnchorPoint: "N" 124 108 basechar 0
LayerCount: 2
Back
Fore
SplineSet
933 996 m 0
 933 892.091 861.771 825.848 757 756 c 1
 787.667 742 831.333 735 888 735 c 0
 952 735 1027.67 743.667 1115 761 c 1
 1267 794 l 1
 1225 639 l 1
 1191.67 627 1153.33 617 1110 609 c 1
 1052 600.999 1016.4 600 993 600 c 0
 830.678 600 694.476 649.393 647 692 c 1
 472.718 601.177 401 556.72 401 447 c 0
 401 365.505 469.601 330 553 330 c 0
 581 330 606 333 628 339 c 1
 615.333 371.667 609 401.333 609 428 c 0
 609 491.8 648.574 515 706 515 c 0
 748 515 790 496 832 458 c 1
 870 425.333 887.667 398.333 885 377 c 1
 877.823 348.294 852.796 306.571 787 249 c 1
 920 -29 l 1
 796 -94 l 1
 697 207 l 1
 671.181 201.564 650.204 198 619 198 c 0
 410.84 198 251 370.319 251 512 c 0
 251 572.167 257.602 649.217 509 776 c 1
 415.713 844.489 362 900.8 362 984 c 0
 362 1123.39 514.109 1248 670 1248 c 0
 770.933 1248 933 1129.02 933 996 c 0
791 1046 m 2
 791 1081.4 774.267 1122.31 714 1121 c 1
 549.19 1121 538 987.562 538 975 c 0
 538 920.6 571.266 869.005 619 839 c 1
 754.701 893.657 791 1001.9 791 1034 c 130
 791 1046 l 2
EndSplineSet
Ligature2: "'half' Half Forms in Devanagari lookup 3 subtable" u0915_u094D_u0937 u094D
LCarets2: 1 0
EndChar

StartChar: u0916.half
Encoding: 65557 -1 149
Width: 1043
GlyphClass: 3
Flags: HW
AnchorPoint: "N" 130 125 basechar 0
LayerCount: 2
Back
Fore
SplineSet
1433 710 m 0
 1433 540.193 1226.53 397 1088 397 c 0
 892.234 397 779 532.309 779 663 c 0
 779 680.983 779.065 687.389 785 723 c 1
 809.115 833.241 941.998 968 1158 968 c 0
 1318.46 968 1433 824.591 1433 710 c 0
462 451 m 1
 584.965 254.809 699.2 191 897 191 c 0
 1084.2 191 1317.22 345.678 1365 375 c 1
 1327 204 l 1
 1206 142 l 129
 1095.65 86.8229 976.2 46 823 46 c 0
 706.333 46 598.667 96.6667 500 198 c 1
 408.997 296.431 347.121 426.109 320 488 c 1
 250.312 661.608 261.777 669.278 302.5 705 c 128
 321.5 721.667 337 730 349 730 c 1
 388 722 l 1
 472 689 l 1
 525.911 763.646 573 981.376 573 1068 c 1
 226 1068 l 1
 175 1226 l 1
 1398 1226 l 1
 1447 1068 l 1
 741 1068 l 1
 725 913 l 1
 710 811 l 1
 693.333 731.667 667.333 665 632 611 c 1
 593.333 549.667 536.667 496.333 462 451 c 1
1037 538 m 0
 1197.63 538 1331 643.771 1331 734 c 0
 1331 770 1302.23 824 1181 824 c 0
 1042.63 824 905 715.615 905 626 c 0
 905 573.2 955.6 538 1037 538 c 0
EndSplineSet
Ligature2: "'half' Half Forms in Devanagari lookup 3 subtable" u0916 u094D
LCarets2: 1 0
EndChar

